<?xml version="1.0" encoding="iso-8859-1"?>
<!-- Generator: Adobe Illustrator 19.0.0, SVG Export Plug-In . SVG Version: 6.00 Build 0)  -->
<svg version="1.1" id="Capa_1" xmlns="http://www.w3.org/2000/svg" xmlns:xlink="http://www.w3.org/1999/xlink" x="0px" y="0px"
	 viewBox="0 0 512 512" style="enable-background:new 0 0 512 512;" xml:space="preserve">
<path style="fill:#BC9A7B;" d="M268.284,303.173l-72.212,197.624c-2.463,6.728-8.88,11.203-16.018,11.203h-0.2
	c-7.228-0.09-13.635-4.735-15.958-11.583l-17.38-51.318l-7.719-22.806l-20.433,12.344l-46.553,28.132
	c-6.177,3.734-14.076,3.164-19.652-1.432c-5.576-4.585-7.659-12.224-5.186-19.012l78.969-216.095l59.988,30.745l26.89,13.776
	L268.284,303.173z"/>
<polygon style="fill:#A5896F;" points="212.821,274.751 146.516,449.099 138.797,426.293 118.364,438.637 185.931,260.976 "/>
<path style="fill:#9F7953;" d="M459.841,465.337c-5.576,4.595-13.475,5.166-19.652,1.432l-46.543-28.122l-20.443-12.354
	l-7.719,22.806l-17.38,51.318c-2.323,6.848-8.73,11.493-15.958,11.583h-0.2c-7.138,0-13.555-4.475-16.018-11.203l-72.212-197.624
	l55.453-28.422l26.89-13.776l59.998-30.745l78.969,216.085C467.5,453.113,465.417,460.752,459.841,465.337z"/>
<polygon style="fill:#8C6D50;" points="393.646,438.647 373.203,426.293 365.484,449.099 299.169,274.751 326.059,260.976 "/>
<path style="fill:#FF8700;" d="M415.381,156.557c0,86.328-70.23,156.557-156.557,156.557h-0.13
	c-86.268-0.07-156.437-70.27-156.437-156.557S172.425,0.07,258.693,0h0.13C345.151,0,415.381,70.23,415.381,156.557z"/>
<path style="fill:#E47500;" d="M415.381,156.557c0,86.328-70.23,156.557-156.557,156.557h-0.13V0h0.13
	C345.151,0,415.381,70.23,415.381,156.557z"/>
<path style="fill:#9F7953;" d="M293.573,229.37c0,8.299-6.728,15.017-15.017,15.017h-39.475c-8.289,0-15.017-6.718-15.017-15.017
	c0-8.289,6.728-15.017,15.017-15.017h39.475C286.845,214.353,293.573,221.08,293.573,229.37z"/>
<path style="fill:#896746;" d="M293.573,229.37c0,8.299-6.728,15.017-15.017,15.017h-19.863v-30.034h19.863
	C286.845,214.353,293.573,221.08,293.573,229.37z"/>
<path style="fill:#9F7953;" d="M283.296,126.043c4.135-1.922,7.378-5.426,9.741-10.512c2.353-5.086,3.524-10.852,3.524-17.29
	c0-20.663-12.574-31.065-37.743-31.185c-0.16-0.01-0.31-0.01-0.471-0.01c-13.365,0-23.216,3.114-29.553,9.321
	c-6.347,6.217-9.511,13.315-9.511,21.294c0,4.325,0.831,7.208,2.493,8.63c1.662,1.432,5.486,2.142,11.453,2.142
	c4.695,0,7.969-0.811,9.801-2.443c1.832-1.622,2.753-3.995,2.753-7.128c0-3.134,1.021-5.336,3.053-6.628
	c2.042-1.291,5.206-1.932,9.511-1.932c0.16,0,0.32,0,0.471,0.01c8.069,0.15,12.104,4.195,12.104,12.144
	c0,3.264-0.37,5.937-1.111,8.019c-0.731,2.082-1.802,3.544-3.214,4.395c-1.422,0.841-2.773,1.402-4.075,1.682
	c-1.041,0.23-2.273,0.36-3.704,0.4c-0.36,0.01-0.741,0.02-1.131,0.02c-5.086,0-7.629,3.424-7.629,10.262s2.543,10.262,7.619,10.262
	c0.39,0,0.771,0,1.141,0.02c4.765,0.12,8.43,1.061,11.012,2.803c2.773,1.882,4.165,5.496,4.165,10.852v3.254
	c0,5.586-1.161,9.541-3.484,11.883c-2.263,2.273-6.157,3.444-11.693,3.504h-0.471c-10.081,0-15.127-3.304-15.127-9.921
	c0-3.304-0.951-5.606-2.843-6.918c-1.892-1.311-5.536-1.972-10.932-1.972c-4.815,0-8.139,0.681-9.971,2.052
	c-1.842,1.372-2.753,3.934-2.753,7.699c0,8.319,3.424,15.788,10.282,22.395c6.848,6.607,17.019,9.921,30.495,9.921
	c0.44,0,0.881,0,1.322-0.02c12.364-0.2,22.355-3.334,29.994-9.391c7.899-6.267,11.853-16.008,11.853-29.233v-3.254
	C300.666,138.747,294.879,130.368,283.296,126.043z"/>
<path style="fill:#896746;" d="M300.666,151.171v3.254c0,13.225-3.954,22.966-11.853,29.233c-7.639,6.057-17.63,9.19-29.994,9.391
	v-23.236c5.536-0.06,9.431-1.231,11.693-3.504c2.323-2.343,3.484-6.297,3.484-11.883v-3.254c0-5.356-1.392-8.97-4.165-10.852
	c-2.583-1.742-6.247-2.683-11.012-2.803v-20.563c1.432-0.04,2.663-0.17,3.704-0.4c1.301-0.28,2.653-0.841,4.075-1.682
	c1.412-0.851,2.483-2.313,3.214-4.395c0.741-2.082,1.111-4.755,1.111-8.019c0-7.949-4.035-11.994-12.104-12.144V67.056
	c25.169,0.12,37.743,10.522,37.743,31.185c0,6.437-1.171,12.204-3.524,17.29c-2.363,5.086-5.606,8.59-9.741,10.512
	C294.879,130.368,300.666,138.747,300.666,151.171z"/>
<g>
</g>
<g>
</g>
<g>
</g>
<g>
</g>
<g>
</g>
<g>
</g>
<g>
</g>
<g>
</g>
<g>
</g>
<g>
</g>
<g>
</g>
<g>
</g>
<g>
</g>
<g>
</g>
<g>
</g>
</svg>
