<?xml version="1.0" encoding="iso-8859-1"?>
<!-- Generator: Adobe Illustrator 19.0.0, SVG Export Plug-In . SVG Version: 6.00 Build 0)  -->
<svg version="1.1" id="Capa_1" xmlns="http://www.w3.org/2000/svg" xmlns:xlink="http://www.w3.org/1999/xlink" x="0px" y="0px"
	 viewBox="0 0 512 512" style="enable-background:new 0 0 512 512;" xml:space="preserve">
<path style="fill:#FF623F;" d="M268.284,303.173l-72.212,197.624c-2.463,6.728-8.88,11.203-16.018,11.203h-0.2
	c-7.228-0.09-13.635-4.735-15.958-11.583l-17.38-51.318l-7.719-22.806l-20.433,12.344l-46.553,28.132
	c-6.177,3.734-14.076,3.164-19.652-1.432c-5.576-4.585-7.659-12.224-5.186-19.012l78.969-216.095l59.988,30.745l26.89,13.776
	L268.284,303.173z"/>
<g>
	<polygon style="fill:#E70020;" points="212.821,274.751 146.516,449.099 138.797,426.293 118.364,438.637 185.931,260.976 	"/>
	<path style="fill:#E70020;" d="M459.841,465.337c-5.576,4.595-13.475,5.166-19.652,1.432l-46.543-28.122l-20.443-12.354
		l-7.719,22.806l-17.38,51.318c-2.323,6.848-8.73,11.493-15.958,11.583h-0.2c-7.138,0-13.555-4.475-16.018-11.203l-72.212-197.624
		l55.453-28.422l26.89-13.776l59.998-30.745l78.969,216.085C467.5,453.113,465.417,460.752,459.841,465.337z"/>
</g>
<polygon style="fill:#C10019;" points="393.646,438.647 373.203,426.293 365.484,449.099 299.169,274.751 326.059,260.976 "/>
<path style="fill:#FFB64C;" d="M415.381,156.557c0,86.328-70.23,156.557-156.557,156.557h-0.13
	c-86.268-0.07-156.437-70.27-156.437-156.557S172.425,0.07,258.693,0h0.13C345.151,0,415.381,70.23,415.381,156.557z"/>
<path style="fill:#FF9800;" d="M415.381,156.557c0,86.328-70.23,156.557-156.557,156.557h-0.13V0h0.13
	C345.151,0,415.381,70.23,415.381,156.557z"/>
<path style="fill:#BC9A7B;" d="M270.576,70.52c-2.453-1.602-5.166-2.403-8.129-2.403c-1.452,0-2.703,0.2-3.754,0.601
	c-0.43,0.17-0.831,0.37-1.201,0.601l-22.566,13.675c-3.314,1.942-4.966,4.966-4.966,9.06c0,2.743,0.801,5.196,2.403,7.358
	c1.592,2.162,3.584,3.244,5.977,3.244c1.482,0,2.913-0.451,4.275-1.362l4.966-3.083v87.029c0,2.623,1.301,4.645,3.924,6.077
	c2.072,1.121,4.465,1.802,7.188,2.032c0.721,0.07,1.462,0.1,2.223,0.1c3.644,0,6.778-0.711,9.401-2.132
	c2.623-1.432,3.934-3.454,3.934-6.077V76.497C274.251,74.104,273.019,72.112,270.576,70.52z"/>
<path style="fill:#9F7953;" d="M260.916,193.449c-0.761,0-1.502-0.03-2.223-0.1V68.718c1.051-0.4,2.303-0.601,3.754-0.601
	c2.963,0,5.676,0.801,8.129,2.403c2.443,1.592,3.674,3.584,3.674,5.977V185.24c0,2.623-1.311,4.645-3.934,6.077
	C267.693,192.738,264.56,193.449,260.916,193.449z"/>
<path style="fill:#BC9A7B;" d="M293.573,229.37c0,8.299-6.728,15.017-15.017,15.017h-39.475c-8.289,0-15.017-6.718-15.017-15.017
	c0-8.289,6.728-15.017,15.017-15.017h39.475C286.845,214.353,293.573,221.08,293.573,229.37z"/>
<path style="fill:#9F7953;" d="M293.573,229.37c0,8.299-6.728,15.017-15.017,15.017h-19.863v-30.034h19.863
	C286.845,214.353,293.573,221.08,293.573,229.37z"/>
<g>
</g>
<g>
</g>
<g>
</g>
<g>
</g>
<g>
</g>
<g>
</g>
<g>
</g>
<g>
</g>
<g>
</g>
<g>
</g>
<g>
</g>
<g>
</g>
<g>
</g>
<g>
</g>
<g>
</g>
</svg>
