<?xml version="1.0" encoding="utf-8"?>
<!-- Generator: Adobe Illustrator 19.2.1, SVG Export Plug-In . SVG Version: 6.00 Build 0)  -->
<svg version="1.1" id="Calque_1" xmlns="http://www.w3.org/2000/svg" xmlns:xlink="http://www.w3.org/1999/xlink" x="0px" y="0px"
	 viewBox="0 0 2846.1 1000" style="enable-background:new 0 0 2846.1 1000;" xml:space="preserve">
<style type="text/css">
	.st0{opacity:0.6;fill:#F6C90E;enable-background:new    ;}
	.st1{opacity:0.5;fill:#F6C90E;enable-background:new    ;}
	.st2{enable-background:new    ;}
	.st3{fill:#F6C90E;}
	.st4{fill:none;}
</style>
<ellipse class="st0" cx="469.7" cy="741.2" rx="279.7" ry="84.7"/>
<path class="st1" d="M751.9,746.3l-10.3-23.1l-662-549.1l112.9,572.2c-0.5,1-4.9-90.3,279.7-84.7C757,667.3,753.7,749.9,751.9,746.3
	z"/>
<ellipse class="st0" cx="518.4" cy="741.2" rx="279.7" ry="84.7"/>
<path class="st1" d="M239.6,741.3l10.6-22.9l670.1-539.2L798.9,749.6c0.5,1,6.2-90.3-278.4-88.8
	C235.7,662.2,237.8,744.8,239.6,741.3z"/>
<g class="st2">
	<path class="st3" d="M1009.3,522.7c-7-5.3-12.7-11.9-17.1-19.8c-4.4-7.9-7.9-16.3-10.5-25.2c-2.5-8.9-4.2-18.1-5-27.6
		c-0.8-9.5-1.1-18.6-0.9-27.2c2.2-6.5,4.8-12.4,7.9-17.8c3.1-5.4,6.6-10.6,10.5-15.5c3.8-4.9,7.9-9.6,12.1-14.1
		c4.2-4.4,8.3-8.9,12.4-13.5c1.4,0,2.8,0.4,4,1.1c1-2.6,2.4-4.9,4.3-6.8c1.9-1.9,4-3.7,6.1-5.2c2.2-1.6,4.3-3.1,6.5-4.7
		c2.2-1.6,4-3.4,5.4-5.6c6-1.4,11.4-3.5,16-6.1c4.7-2.6,9.2-5.5,13.5-8.6c4.3-3.1,8.8-6,13.3-8.6c4.6-2.6,9.8-4.7,15.9-6.1
		c2.2-2.4,4.9-4.4,8.1-6.1c3.2-1.7,6.5-3.2,9.7-4.7s6.4-3,9.4-4.7c3-1.7,5.5-4,7.4-6.8c1.4,1.9,3.5,2.6,6.1,2c2.6-0.6,5-1.3,7.2-2
		c1.4-0.2,2.6,0,3.6,0.7c1,0.7,1.9,1.5,2.7,2.3c0.8,0.8,1.6,1.4,2.2,1.6c0.6,0.2,1.3-0.5,2-2.2c1.9,0.2,2.5,1.1,1.6,2.5
		c-0.8,1.4-1.4,2.4-1.6,2.9c2.4-0.5,4.4-0.1,5.9,1.3c1.6,1.3,4,2.2,7.4,2.7c1.2,1.2,1.6,2.2,1.1,2.9c-0.5,0.7-0.8,1.9-1.1,3.6
		c8.6,2.6,14.2,6.8,16.6,12.4c2.4,5.6,2.6,11.5,0.7,17.7c-1.9,6.1-5.5,11.8-10.6,16.9c-5.2,5.2-10.9,8.6-17.1,10.3
		c-7.4,1.9-14.4,3.8-20.7,5.8c-6.4,1.9-12.5,4.1-18.4,6.5c-5.9,2.4-11.4,5.2-16.6,8.5c-5.2,3.2-9.7,7-13.5,11.4
		c-6.7,1.9-12.8,4.6-18.2,7.9c-5.4,3.4-10.5,7.1-15.1,11.2c-4.7,4.1-9.2,8.3-13.5,12.8c-4.3,4.4-8.6,8.8-13,13.2
		c0,4.1-0.7,7.2-2.2,9.4s-3,4.3-4.7,6.5c0.5,4.6,1.5,8.5,3.1,11.7c1.6,3.2,3.2,6.5,4.9,9.9c19.2,5.8,39.6,9.3,61.1,10.6
		c21.5,1.3,42.8,2.1,64,2.3c2.2,2.9,4.6,5.6,7.4,8.1c2.8,2.5,5.3,5.1,7.6,7.7c2.3,2.6,4.1,5.7,5.4,9.2c1.3,3.5,1.6,7.6,0.9,12.4
		c-4.1,4.1-8.5,8-13.3,11.7c-4.8,3.7-9.6,7.4-14.4,11c-2.2,0.2-4.7,0.2-7.7,0c-3-0.2-6.1-0.4-9.4-0.4s-6.5,0.2-9.7,0.5
		c-3.2,0.4-6.3,1.1-9.2,2.3c-15.1-0.5-30.6-2.3-46.5-5.6c-15.9-3.2-30.5-7.1-44-11.7c-2.6-3.1-5.4-6.1-8.3-8.8
		C1018,525.9,1014.2,523.9,1009.3,522.7z"/>
	<path class="st3" d="M1259.4,516.6c-2.6,9.6-5,16.9-7,21.8c-2,4.9-5.1,10-9.2,15.3c-3.1-0.5-5.3-0.1-6.5,1.1
		c-1.2,1.2-2.5,2.3-4,3.2c-2.2,0.5-3.7,0.5-4.7,0c-1-0.5-1.8-1-2.5-1.6c-0.7-0.6-1.6-1.2-2.7-1.8c-1.1-0.6-2.7-0.9-4.9-0.9
		c-0.5-1.9-1-3.7-1.6-5.4c-0.6-1.7-2.2-2.3-4.9-1.8c0.5-1.9,0.6-3.5,0.4-4.9c-0.2-1.3-0.5-2.5-0.9-3.6c-0.4-1.1-0.7-2.2-0.9-3.2
		c-0.2-1.1-0.1-2.5,0.4-4.1c-1.2,0-2.2-0.8-2.9-2.5c-0.7-1.7-1.6-3.4-2.5-5c0.7-4.3,1.4-8.4,2.2-12.3c0.7-3.8,1.6-7.4,2.7-10.8
		c1.1-3.4,2-6.7,2.7-10.1c0.7-3.4,0.4-6.8-1.1-10.5c1,0.7,1.7,0.5,2.2-0.5c0.5-1.1,0.8-2.5,1.1-4.3c0.2-1.8,0.4-3.6,0.4-5.4
		c0-1.8-0.1-3.3-0.4-4.5c2.4-6.2,4.4-12.7,5.9-19.3c1.6-6.6,3-13.2,4.3-19.6c1.3-6.5,2.7-12.8,4.1-19.1c1.4-6.2,3.4-12,5.8-17.3
		c2.6-0.5,5.6-0.2,8.8,0.9c3.2,1.1,5.2,2.5,5.9,4.1c6.2-4.8,11.8-10.6,16.6-17.5c4.8-6.8,9.7-13.5,14.8-20s10.6-12.3,16.8-17.3
		c6.1-5,13.9-8,23.2-9c4.8,3.6,10.1,7.3,16,11c5.9,3.7,10.7,8.6,14.6,14.6c1.9,1,3.5,2,4.9,3.1c1.3,1.1,2.9,2.2,4.9,3.4v4.3
		c2.9,2.6,5.2,5.7,7,9.2c1.8,3.5,3.4,7.2,4.9,11.2c1.4,4,2.9,7.9,4.3,11.9c1.4,4,3.1,7.7,5,11.4c-0.5,1.2-0.7,2.2-0.7,3.1
		c0,0.8,0.2,1.7,0.5,2.7c0.4,1,0.7,1.9,0.9,2.9c0.2,1,0.2,2.3,0,4c-0.7,10.6-4.1,19.1-10.3,25.6c-6.1,6.5-13.5,11.8-22.2,16
		c-8.6,4.2-17.9,7.7-27.7,10.6c-9.9,2.9-18.7,6-26.7,9.4c0,1,0.4,1.4,1.3,1.4c0.8,0,1.1,0.6,0.9,1.8c5.8,3.6,10.3,6.5,13.7,8.6
		c3.4,2.2,6.5,4,9.5,5.4c3,1.4,6.2,2.7,9.7,3.8c3.5,1.1,8.3,2.3,14.6,3.8c6.2,1.4,11.1,2.6,14.6,3.4c3.5,0.8,6.7,1.6,9.5,2.2
		c2.9,0.6,5.8,1.1,8.8,1.4c3,0.4,7.3,0.8,12.8,1.3c2.2,2.2,4,4.7,5.6,7.7c1.6,3,2.6,6,3.1,9c0.5,3,0.6,5.9,0.4,8.6
		c-0.2,2.8-1.1,5-2.5,6.7c0.2,0.7,0.8,1,1.6,0.9c0.8-0.1,1.7-0.1,2.7,0.2c-1.4,1-2.6,2.2-3.6,3.6c-1,1.4-1.9,2.9-2.9,4.3
		c-1,1.4-2,2.7-3.2,3.8c-1.2,1.1-2.9,1.7-5,2c-7.4,2.9-16.8,3.1-28.1,0.5c-11.3-2.5-25.6-7.2-42.9-13.9c-8.6-3.4-15.7-6.3-21.1-8.8
		c-5.4-2.5-10.1-5-14.1-7.6c-4-2.5-7.6-5.2-10.8-8.1C1267.9,524.1,1264,520.7,1259.4,516.6z M1311,393c-2.6,3.8-5.6,7.3-8.8,10.5
		c-3.2,3.1-6.4,6.3-9.4,9.5c-3,3.2-5.7,6.8-8.1,10.8c-2.4,4-4.1,8.6-5,13.9c8.4-1,17.2-3.3,26.3-7c9.1-3.7,17.8-7.3,25.9-10.6
		c-1-7.4-3.5-13.5-7.7-18C1319.9,397.4,1315.5,394.4,1311,393z"/>
	<path class="st3" d="M1602.1,351.2c0.2,1.7,0.3,2.9,0.2,3.8c-0.1,0.8-0.2,1.6-0.4,2.3c-0.1,0.7-0.2,1.5-0.2,2.3
		c0,0.8,0.2,2.1,0.7,3.8c-5,8.2-10.9,13.8-17.5,16.8c-6.6,3-13.8,5.2-21.4,6.5c-7.7,1.3-15.6,2.7-23.6,4.1c-8.1,1.4-16,4.6-24,9.4
		c-3.1-1.2-5.9-1.2-8.5,0c-2.5,1.2-6.2,1.6-11,1.1c-1.4,1.4-3.2,2.5-5.4,3.1c-2.2,0.6-4.3,1.3-6.5,2c1,2.2,1.4,4.4,1.3,6.7
		c-0.1,2.3,0.2,4.1,0.9,5.6c8.4,0.7,17.7,0.6,27.9-0.4c10.2-1,20.2-1.6,30.1-1.8c0.2,1.2,0.1,2-0.4,2.3c-0.5,0.4-0.6,1-0.4,2
		c1.7,1.2,3.4,2.7,5,4.5c1.7,1.8,3.4,3.5,5,5.2c1.7,1.7,3.4,3.1,5.2,4.1c1.8,1.1,3.9,1.5,6.3,1.3c1,1.9,1.6,4,2,6.3
		c0.4,2.3,0.1,4.6-0.9,7c-3.8,2.6-7.7,5.3-11.5,8.1c-3.8,2.8-7.9,5.2-12.1,7.4c-4.2,2.2-8.6,3.9-13.3,5.2c-4.7,1.3-9.9,1.9-15.7,1.6
		c-1.2,0-2.1,0-2.7,0c-0.6,0-1.4-0.4-2.3-1.1c-1.9,1.2-4.6,1.6-8.1,1.1c-3.5-0.5-6.2-0.1-8.1,1.1c-2.6-1.2-5.8-1.7-9.5-1.6
		c-3.7,0.1-7-0.3-9.9-1.3c-3.8,5-7.3,10.5-10.5,16.2c-3.1,5.8-5.9,11.9-8.3,18.4c8.2,1.2,15,1.7,20.4,1.4c5.4-0.2,10.5-0.7,15.3-1.3
		c4.8-0.6,9.7-1.2,14.8-1.8c5-0.6,11.4-0.8,19.1-0.5c4.8-2.6,10.5-4.4,17.1-5.2c6.6-0.8,12.7-2.2,18.2-4.1c1.9,0.7,3.6,2,5,3.8
		c1.4,1.8,2.8,3.5,4.1,5c1.3,1.6,2.7,2.9,4.1,4.1c1.4,1.2,3.2,1.7,5.4,1.4c1,1,1.6,2.1,2,3.4c0.4,1.3,0.7,2.6,0.9,3.8
		c0.2,1.2,0.7,2.2,1.3,3.1c0.6,0.8,1.6,1.1,3.1,0.9c-3.6,7.9-7.7,14-12.4,18.2c-4.7,4.2-10,7.4-16,9.5c-6,2.2-12.7,3.8-20,5
		c-7.3,1.2-15.4,2.6-24.3,4.3c-2.2,0.5-4,0.4-5.4-0.2c-1.4-0.6-3.1-0.9-5-0.9c-5.5,1.2-12.1,2.3-19.8,3.2c-7.7,1-15.5,1.3-23.4,1.1
		c-7.9-0.2-15.5-1.3-22.7-3.1c-7.2-1.8-13.1-5-17.7-9.5c-1.9-1.7-3.2-3.7-3.8-5.9c-0.6-2.3-2.2-4-4.9-5.2c-0.2-3.1-0.7-6.6-1.4-10.5
		c-0.7-3.8-1.4-7.9-2.2-12.1c-0.7-4.2-1.3-8.3-1.6-12.4c-0.4-4.1-0.2-7.8,0.5-11.2c0.7-3.6,2.2-6.8,4.5-9.7c2.3-2.9,3.1-6,2.3-9.4
		c1.2-0.2,1.9-0.9,2.2-2c0.2-1.1,1.2-1.5,2.9-1.3c1.4-4.3,3-8.4,4.7-12.3c1.7-3.8,3.4-7.6,5.2-11.2c1.8-3.6,3.6-7.3,5.4-11
		c1.8-3.7,3.5-7.9,5.2-12.4c-3.4-3.1-5.8-6.5-7.4-10.3c-1.6-3.7-2.7-7.4-3.4-11.2c-0.7-3.7-1.3-7.6-1.8-11.5c-0.5-4-1.3-8-2.5-12.1
		c2.4-3.6,5.3-6.5,8.8-8.8c3.5-2.3,7.3-4.1,11.4-5.6c4.1-1.4,8.5-2.6,13.3-3.6c4.8-1,9.8-2,15.1-3.2c9.6-3.1,18.2-5.5,25.8-7.2
		c7.6-1.7,15-3.1,22.3-4.1c7.3-1.1,15-2.1,22.9-3.1c7.9-1,16.9-2.4,27-4.3c2.2,2.2,4.2,3.2,6.1,3.2c1-2.2,2.1-2.8,3.4-2
		c1.3,0.8,1.9,0.2,1.6-2c2.4,4.1,5.5,7.5,9.2,10.3C1593.4,346.9,1597.6,349.3,1602.1,351.2z"/>
	<path class="st3" d="M1784.1,523.8c-1.4,4.1-3.5,8.2-6.3,12.4c-2.8,4.2-6,7.9-9.7,11.2c-3.7,3.2-7.9,5.9-12.4,8.1
		c-4.6,2.2-9.4,3.4-14.4,3.6c-3.1-0.7-5.2-1.5-6.3-2.3c-1.1-0.8-2.2-1.6-3.4-2.3c-0.7-0.5-1.4-0.9-2-1.3c-0.6-0.4-1.1-0.7-1.6-0.9
		l-4.3-1.8l1.4-4.7c0.5-1.9,0.4-3.4-0.4-4.5c-0.7-1.1-2.2-2.6-4.3-4.5c-0.7-0.7-1.4-1.4-2.2-2.2s-1.3-1.4-1.8-2.2l-6.1-6.8l9.7-2.5
		c6-1.7,10-3.8,12.1-6.5c2-2.6,2.8-7.1,2.3-13.3c-4.8-1-8.8-1.1-12.1-0.4c-3.2,0.7-6.5,1.6-9.9,2.5c-4.3,1.2-8.7,2.2-13.2,3.1
		c-4.4,0.8-9.3,1.3-14.6,1.3c-1.9,0-3.7-0.1-5.4-0.2c-1.7-0.1-3.5-0.3-5.4-0.5l-3.6-0.7c-0.5-2.6-1-4.1-1.4-4.5
		c-0.5-0.4-1-0.8-1.4-1.3c-1.2-1.2-2.5-2.8-3.8-4.9c-1.3-2-1.6-4.6-0.9-7.7c-1.2-2.2-1.9-4.3-2.2-6.5c-1.4,2.9-2.5,5.9-3.2,9
		l-1.4,3.6l-3.6,0.7c-0.5,0.2-0.8,0.8-1.1,1.6c-0.2,0.8-0.4,1.5-0.4,2l-1.8,6.1c-0.5,0.5-1,0.9-1.4,1.3c-0.5,0.4-1,0.8-1.4,1.3
		c-0.5,2.2-1.1,4.3-1.8,6.5s-1.4,4.2-2.2,6.1c-1.2,3.1-2.2,6.2-3.1,9.2c-0.8,3-1.1,5.9-0.9,8.8l-1.4,4c-1.2,1.4-2.5,2.6-4,3.4
		c-1.4,0.8-2.9,1.6-4.3,2.3c-0.5,0.5-1.1,0.9-2,1.3c-0.8,0.4-1.5,0.7-2,0.9l-1.1,4l-4.3,0.7c-2.6,0.5-4.5,0.8-5.6,1.1
		c-1.1,0.2-2.3,0.4-3.8,0.4l-3.6-0.4c-2.6-2.2-4.7-3.9-6.1-5.2c-1.4-1.3-3.1-2.6-5-3.8c-2.2-2.9-3.4-5-3.6-6.5
		c-0.2-1.4-0.5-2.8-0.7-4c-0.5-1.4-0.8-2.6-0.9-3.6c-0.1-1-0.4-1.7-0.9-2.2l-4.7-4.3l4-3.2l0.4-6.1c4.8-12.3,9.9-24,15.3-35.3
		c5.4-11.3,11-22.8,16.8-34.6c1.9-3.8,3.8-7.7,5.6-11.5c1.8-3.8,3.7-7.7,5.6-11.5c-0.2-0.7-0.4-1.6-0.4-2.5c0-1,0.2-2,0.7-3.2
		c2.6-4.1,4.8-7.7,6.5-11c1.7-3.2,3.4-6.5,5-9.9c1.9-4.1,3.9-8,5.9-11.9c2-3.8,4.6-7.8,7.7-11.9l5.8-2.5c0.7-0.2,1.6-0.5,2.5-0.9
		c1-0.4,2-0.5,3.2-0.5l5.4,0.7c6.7-3.1,12.6-7.5,17.7-13.2c5-5.6,10.2-12.4,15.5-20.4l3.6-5l4.7,2.9c1.2,0.7,2.9,1.4,5,2
		c2.2,0.6,4.4,1.3,6.8,2c4.3,1,8.4,2,12.3,3.2c3.8,1.2,7,3,9.4,5.4c1.4,3.8,2.3,6.7,2.5,8.6c0.2,1.9,0.6,3.8,1.1,5.8
		c0.7,4.1,1.4,8.2,2,12.3c0.6,4.1,1,8.6,1.3,13.7c1.2,4.1,2.2,8.1,3.1,12.1c0.8,4,1.6,8,2.3,12.1c1.2,5.8,2.4,11.4,3.6,16.8
		c1.2,5.4,2.8,10.5,4.7,15.3c1.9,0,3.1,0.1,3.6,0.4c1.2-0.5,2.5-0.8,3.8-1.1c1.3-0.2,2.8-0.5,4.5-0.7l4-0.4l1.4,3.6
		c0.2,1.2,1.4,2.4,3.6,3.6c3.1,0.2,5.4,0.9,6.8,2c1.4,1.1,2.8,2.2,4,3.4c1,1,1.9,1.7,2.9,2.2l5.4,2.2l-2.9,5.4
		c-2.4,4.3-5.8,8.5-10.3,12.4c-4.4,4-9.4,7.3-15,9.9c0.2,1.4,0.4,2.8,0.5,4.1c0.1,1.3,0.4,2.7,0.9,4.1c0.7,4.1,1.3,8.3,1.8,12.6
		c0.5,4.3,0.5,8.8,0,13.3L1784.1,523.8z M1680,461.4c7.2-0.5,13.8-1,19.6-1.6c5.9-0.6,12.4-1.6,19.6-3.1c-1.7-7.2-3.5-14.7-5.4-22.5
		c-1.9-7.8-4-15.6-6.1-23.2l-2.2,3.6c-4.8,5-9.4,10.7-13.9,16.9c-4.4,6.2-8.2,12.1-11.4,17.7c-1.4,2.2-2.9,4.3-4.3,6.5
		s-2.8,4.3-4,6.5c1.4-0.2,2.8-0.4,4.1-0.4C1677.5,461.8,1678.8,461.7,1680,461.4z"/>
	<path class="st3" d="M1994.5,380.7c-6,0-12.5,0.4-19.5,1.3c-7,0.8-13.8,1.7-20.5,2.7c-4.8,0.7-9.4,1.3-13.9,1.8
		c-4.4,0.5-8.5,0.8-12.1,1.1c-1.7,5.3-3.4,10-5,14.1c-1.7,4.1-3.5,8.1-5.4,11.9c-1.9,4.1-3.7,8.2-5.2,12.4
		c-1.6,4.2-3.1,8.7-4.5,13.5c-2.4,3.8-4.4,7.4-5.9,10.6c-1.6,3.2-2.8,6.9-3.8,11c-2.9,3.6-5,7.4-6.5,11.4c-1.4,4-2.5,7.4-3.2,10.3
		l-1.4,4.3c-1.4,1.4-2.3,2.6-2.5,3.4c-0.2,0.8-0.8,1.6-1.8,2.3c-0.2,2.6-1.1,5.3-2.5,7.9c-0.5,1.2-0.8,2.3-1.1,3.4
		c-0.2,1.1-0.4,1.9-0.4,2.3c0,2.4-0.6,4-1.8,4.7c0.2,1.2,0.2,2.5,0,3.8c-0.2,1.3-0.5,2.6-0.7,3.8c-0.7,2.9-1,5.2-0.7,6.8
		c0.7,1,1.4,1.8,2,2.5c0.6,0.7,1,1.7,1.3,2.9c1.4,1,2.5,1.6,3.2,1.8c1,0.7,2.4,1.6,4.3,2.5l3.2,3.6c1.2,7,0.1,12.5-3.2,16.6
		c-3.6,4.6-9.7,6.8-18.4,6.8h-4.3c-1.2-1.2-1.9-2.2-2.2-2.9c-1.9-0.7-3.5-1.3-4.7-1.8c-1.2-0.5-2.3-1.4-3.2-2.9
		c-3.1-1.4-5.6-2.6-7.6-3.6l-3.2-1.8c0-2.6,0-4.1,0-4.3c-1.7-2.2-2.9-4.6-3.8-7.2c-0.8-2.6-1.5-5.3-2-7.9c-0.5-2.2-1-4.2-1.6-6.1
		c-0.6-1.9-1.4-3.6-2.3-5c-0.5-13.9,0.8-25.7,4-35.3c3.1-9.6,6.4-18.9,9.7-27.7c1.9-4.8,3.8-9.7,5.8-14.6c1.9-4.9,3.6-10,5-15.3
		l3.2-3.6c1.7-3.8,3.1-7,4.1-9.5c1.1-2.5,2.2-5.1,3.4-7.7c0.7-1.7,1.4-3.3,2-4.9c0.6-1.6,1.1-2.9,1.6-4.1c-1.4,0-2.8,0.1-4,0.2
		c-1.2,0.1-2.4,0.3-3.6,0.5c-1.4,0.2-2.8,0.4-4,0.5c-1.2,0.1-2.4,0.2-3.6,0.2c-1.7,0-2.9-0.1-3.6-0.4c-2.6,1.2-5.5,1.8-8.6,1.8h-3.6
		c-0.7,0-1.4-0.1-2-0.2c-0.6-0.1-1.1-0.2-1.6-0.2c-2.4,0-4.3,0.4-5.8,1.1c-2.9,0-5.6,0-8.3,0h-3.6c-0.5,0-1.1,0.1-1.8,0.2
		c-0.7,0.1-1.3,0.2-1.8,0.2c-1.7,0-3.5-0.2-5.4-0.5c-1.9-0.4-4-1.1-6.1-2.3c-2.9-3.8-4.8-5.9-5.8-6.1l-3.2-4.3
		c-0.2-1.4-0.6-2.8-1.1-4.1c-0.5-1.3-1-2.8-1.4-4.5c-1-2.4-1.9-5-2.7-7.7c-0.8-2.8-1.3-6.1-1.3-9.9c0.2-1.9,0.7-3.4,1.4-4.3
		c0.7-1,1.3-1.8,1.8-2.5l1.1-5.4l4.7,0.4h10.1c7.7,0,15.5-0.3,23.4-0.9c7.9-0.6,16.1-1.3,24.5-2c4.8-0.5,9.7-1,14.6-1.4
		c4.9-0.5,10-1,15.3-1.4c1-2.2,1.9-4.2,2.9-6.1l3.6-1.8c4.3-0.2,7.4,0.3,9.2,1.6c1.8,1.3,3.3,2.6,4.5,3.8c5.3-0.5,10.6-1,16-1.6
		c5.4-0.6,10.9-1.4,16.4-2.3c8.2-1.2,16.4-2.3,24.7-3.2c8.3-1,16.3-1.4,24-1.4c3.4,0,6.6,0.1,9.7,0.4c3.1,0.2,6,0.6,8.6,1.1l3.6,2.5
		c0.7,1.4,1.7,2.8,3.1,4c1.3,1.2,2.7,2.4,4.1,3.6c2.9,2.6,5.8,5.8,8.6,9.4s4,8.9,3.2,15.9c-1.9,2.9-3.4,4.6-4.3,5l-3.2,4.3l-3.6-0.4
		c-1.4,0-2.8,0.2-4,0.5c-1.2,0.4-2.4,0.8-3.6,1.3c-1,0.5-1.9,0.9-2.9,1.3c-1,0.4-2,0.7-3.2,0.9c-2.2,0-3.9-0.1-5.2-0.2
		C1997.4,380.8,1996,380.7,1994.5,380.7z"/>
	<path class="st3" d="M2165.4,445.9c-0.2,2.9,0,5.6,0.7,8.3c0.7,2.6,1.6,5.2,2.7,7.7c1.1,2.5,2.1,5.1,3.1,7.7c1,2.6,1.7,5.3,2.2,7.9
		c0.5,3.4,0.5,7,0,11c-0.5,4-1.3,7.8-2.5,11.5c-1.2,3.7-2.8,7.1-4.7,10.1c-1.9,3-4.2,5.2-6.8,6.7c-3.4,4.3-7.4,7.7-12.3,10.1
		c-4.8,2.4-9.3,5.3-13.3,8.6c-2.6,1.7-5.6,2.9-8.8,3.6c-3.2,0.7-6.5,1.4-9.9,2.2c-2.6,1.4-5.8,2.9-9.4,4.5c-3.6,1.6-7.3,3-11.2,4.3
		c-3.8,1.3-7.7,2.3-11.5,2.9c-3.8,0.6-7.2,0.8-10.1,0.5c-7.2,2.6-14.2,4.4-21.1,5.2c-6.8,0.8-14.8,0.3-24-1.6
		c-8.6,1.2-16.6,0.8-24-1.1c-7.3-1.9-13.8-5-19.5-9.2c-5.6-4.2-10.6-9.2-14.8-15.1c-4.2-5.9-7.6-12.1-10.3-18.6
		c-1.9-13.7-1.4-26.1,1.4-37.3c2.9-11.2,7-21.5,12.4-31c5.4-9.5,11.6-18.3,18.6-26.3c7-8,13.7-15.9,20.2-23.6
		c1.4,0.5,2.6,0.4,3.4-0.2c0.8-0.6,1.6-1.4,2.3-2.5c0.7-1.1,1.5-2.1,2.3-3.1c0.8-1,1.9-1.6,3.1-1.8c1.7-3.6,4.1-6.3,7.4-8.1
		c3.2-1.8,5.8-4.4,7.7-7.7c2.2-0.5,4-1.2,5.4-2.2c1.4-1,2.8-2,4.1-3.2c1.3-1.2,2.7-2.3,4.1-3.4c1.4-1.1,3.1-1.9,5-2.3v-4
		c4.3-1.9,7.5-4.1,9.5-6.7c2-2.5,4.5-5.6,7.4-9.2c2.2-0.2,3.9-0.4,5.2-0.4c1.3,0,3.3-0.2,5.9-0.7c1.9-3.4,3.7-5.9,5.2-7.6
		c1.6-1.7,3.9-3.5,7-5.4c2.9,1.4,6.1,2.4,9.5,2.9c3.5,0.5,6.5,2,9.2,4.7c0.2,2.4,1,4.3,2.2,5.6c1.2,1.3,2.5,2.5,4,3.6
		c1.4,1.1,2.8,2.2,4.1,3.4c1.3,1.2,2.2,2.9,2.7,5c1,0.2,1.6,0.1,2-0.4c0.4-0.5,1-0.6,2-0.4c0.7,3.4,1.6,5.6,2.5,6.7
		c1,1.1,1.9,3.2,2.9,6.3c-1.2,2.4-2.1,4.9-2.7,7.4c-0.6,2.5-2.1,4.4-4.5,5.6c-0.2,1.7,0.2,2.6,1.4,2.7c1.2,0.1,1.9,0.8,2.2,2
		c0.2,2.2-0.1,3.7-1.1,4.7c5.8,9.4,10.9,19.3,15.5,29.7C2154.4,426.7,2159.6,436.6,2165.4,445.9z M2120.3,480.2
		c1-2.6,2.2-4.8,3.8-6.5c1.6-1.7,2.5-4.2,2.7-7.6c-1.2-1.9-1.9-3.4-2.2-4.5c-0.2-1.1-0.4-2.8-0.4-5.2c-5.3-7.4-9.9-15.4-13.7-24
		c-3.8-8.5-8.2-16.5-13-24c-0.5,1-1.3,1.9-2.5,2.9c-1.2,1-2.5,0.7-4-0.7c-0.5,1.9-1.3,3.3-2.5,4.1c-1.2,0.8-2.5,1.2-4,1.1
		c-1.4-0.1-2.9-0.5-4.5-1.1c-1.6-0.6-2.9-1.4-4.1-2.3c-7,5.5-13.9,10.9-20.9,16.2c-7,5.3-13.2,11.4-18.7,18.4
		c-1,0.5-1.6,0.7-1.8,0.5c-0.2-0.1-1,0.1-2.2,0.5c-1.9,4.6-4.3,8.7-7,12.4c-2.8,3.7-5.5,7.5-8.1,11.4c-2.6,3.8-4.9,7.9-6.8,12.3
		c-1.9,4.3-3,9.4-3.2,15.1c4.1,3.4,8.9,5.4,14.4,6.1c5.5,0.7,11.2,0.8,17.1,0.4c5.9-0.5,11.6-1.3,17.3-2.3
		c5.6-1.1,10.9-1.6,15.7-1.6c10.1-2.4,18.7-5.6,25.9-9.6C2104.8,488.3,2112.4,484.3,2120.3,480.2z"/>
	<path class="st3" d="M2245.4,516.6c-2.6,9.6-5,16.9-7,21.8c-2,4.9-5.1,10-9.2,15.3c-3.1-0.5-5.3-0.1-6.5,1.1
		c-1.2,1.2-2.5,2.3-4,3.2c-2.2,0.5-3.7,0.5-4.7,0c-1-0.5-1.8-1-2.5-1.6c-0.7-0.6-1.6-1.2-2.7-1.8c-1.1-0.6-2.7-0.9-4.9-0.9
		c-0.5-1.9-1-3.7-1.6-5.4c-0.6-1.7-2.2-2.3-4.9-1.8c0.5-1.9,0.6-3.5,0.4-4.9c-0.2-1.3-0.5-2.5-0.9-3.6c-0.4-1.1-0.7-2.2-0.9-3.2
		c-0.2-1.1-0.1-2.5,0.4-4.1c-1.2,0-2.2-0.8-2.9-2.5c-0.7-1.7-1.6-3.4-2.5-5c0.7-4.3,1.4-8.4,2.2-12.3c0.7-3.8,1.6-7.4,2.7-10.8
		c1.1-3.4,2-6.7,2.7-10.1c0.7-3.4,0.4-6.8-1.1-10.5c1,0.7,1.7,0.5,2.2-0.5c0.5-1.1,0.8-2.5,1.1-4.3c0.2-1.8,0.4-3.6,0.4-5.4
		c0-1.8-0.1-3.3-0.4-4.5c2.4-6.2,4.4-12.7,5.9-19.3c1.6-6.6,3-13.2,4.3-19.6c1.3-6.5,2.7-12.8,4.1-19.1c1.4-6.2,3.4-12,5.8-17.3
		c2.6-0.5,5.6-0.2,8.8,0.9c3.2,1.1,5.2,2.5,5.9,4.1c6.2-4.8,11.8-10.6,16.6-17.5c4.8-6.8,9.7-13.5,14.8-20s10.6-12.3,16.8-17.3
		c6.1-5,13.9-8,23.2-9c4.8,3.6,10.1,7.3,16,11c5.9,3.7,10.7,8.6,14.6,14.6c1.9,1,3.5,2,4.9,3.1c1.3,1.1,2.9,2.2,4.9,3.4v4.3
		c2.9,2.6,5.2,5.7,7,9.2c1.8,3.5,3.4,7.2,4.9,11.2c1.4,4,2.9,7.9,4.3,11.9c1.4,4,3.1,7.7,5,11.4c-0.5,1.2-0.7,2.2-0.7,3.1
		c0,0.8,0.2,1.7,0.5,2.7c0.4,1,0.7,1.9,0.9,2.9c0.2,1,0.2,2.3,0,4c-0.7,10.6-4.1,19.1-10.3,25.6c-6.1,6.5-13.5,11.8-22.2,16
		c-8.6,4.2-17.9,7.7-27.7,10.6c-9.9,2.9-18.7,6-26.7,9.4c0,1,0.4,1.4,1.3,1.4c0.8,0,1.1,0.6,0.9,1.8c5.8,3.6,10.3,6.5,13.7,8.6
		c3.4,2.2,6.5,4,9.5,5.4c3,1.4,6.2,2.7,9.7,3.8c3.5,1.1,8.3,2.3,14.6,3.8c6.2,1.4,11.1,2.6,14.6,3.4c3.5,0.8,6.7,1.6,9.5,2.2
		c2.9,0.6,5.8,1.1,8.8,1.4c3,0.4,7.3,0.8,12.8,1.3c2.2,2.2,4,4.7,5.6,7.7c1.6,3,2.6,6,3.1,9c0.5,3,0.6,5.9,0.4,8.6
		c-0.2,2.8-1.1,5-2.5,6.7c0.2,0.7,0.8,1,1.6,0.9c0.8-0.1,1.7-0.1,2.7,0.2c-1.4,1-2.6,2.2-3.6,3.6c-1,1.4-1.9,2.9-2.9,4.3
		c-1,1.4-2,2.7-3.2,3.8c-1.2,1.1-2.9,1.7-5,2c-7.4,2.9-16.8,3.1-28.1,0.5c-11.3-2.5-25.6-7.2-42.9-13.9c-8.6-3.4-15.7-6.3-21.1-8.8
		c-5.4-2.5-10.1-5-14.1-7.6c-4-2.5-7.6-5.2-10.8-8.1C2253.8,524.1,2249.9,520.7,2245.4,516.6z M2296.9,393
		c-2.6,3.8-5.6,7.3-8.8,10.5c-3.2,3.1-6.4,6.3-9.4,9.5c-3,3.2-5.7,6.8-8.1,10.8c-2.4,4-4.1,8.6-5,13.9c8.4-1,17.2-3.3,26.3-7
		c9.1-3.7,17.8-7.3,25.9-10.6c-1-7.4-3.5-13.5-7.7-18C2305.8,397.4,2301.4,394.4,2296.9,393z"/>
	<path class="st3" d="M2392.7,391.9c1.7-5,4.4-9.4,8.1-13c3.7-3.6,7.8-6.7,12.3-9.2c4.4-2.5,9.1-4.6,13.9-6.3
		c4.8-1.7,9.4-3.1,13.7-4.3c9.6-4.1,19.9-8,30.8-11.7c10.9-3.7,22.1-7,33.5-9.9c11.4-2.9,23.1-4.7,35.1-5.6
		c12-0.8,24.6,0.7,37.8,4.5c0.7,2.4,1.8,4.7,3.2,6.8s2.9,4.3,4.5,6.5c1.6,2.2,2.9,4.3,4.1,6.3c1.2,2,1.9,4.1,2.2,6.3
		c2.4,2.2,4.3,4.5,5.8,7c1.4,2.5,1.7,5.8,0.7,9.9c-2.4,1.9-4.7,3.7-7,5.2c-2.3,1.6-4.7,2.9-7.4,4.1c-8.9-2.2-17.9-2.9-27-2.2
		c-9.1,0.7-17.3,1.3-24.5,1.8c-2.2-2.2-4.7-3.2-7.7-3.2c-3,0-6.1,0.5-9.4,1.4c-3.2,1-6.5,1.9-9.7,2.9c-3.2,1-6.3,1.2-9.2,0.7
		c-2.4,1.9-5.3,3.2-8.8,3.8c-3.5,0.6-7.3,1.1-11.4,1.6c-0.2,1.2,0,2,0.7,2.3c0.7,0.4,0.8,1.1,0.4,2.3c1.4,1.7,3.3,2.9,5.6,3.6
		c2.3,0.7,4.7,1.4,7.2,2.2c2.5,0.7,4.7,1.6,6.7,2.7c1.9,1.1,3.2,2.8,4,5.2c3.6,0,6.7,0.8,9.4,2.5c2.6,1.7,4.8,3.7,6.5,6.1
		c1.7,2.4,2.9,5,3.8,7.7c0.8,2.8,1.3,5.2,1.3,7.4c0.7,1.9,1.6,2.8,2.5,2.5c1-0.2,2,0.2,3.2,1.4c0.7,3.1,2.5,6.3,5.4,9.5
		c2.9,3.2,5.2,6.8,6.8,10.6c0.5,6,0.8,11.4,1.1,16c0.2,4.7-0.6,9.4-2.5,14.2c-3.6,8.9-8.6,16.8-15,23.8c-6.4,7-13.6,13.2-21.6,18.6
		c-8.1,5.4-16.6,10-25.8,13.9c-9.1,3.8-18,7.1-26.7,9.7c-1-0.2-1.9-0.2-2.9,0c-1,0.2-1.2-0.4-0.7-1.8c-1.9,1.7-4,2.8-6.3,3.2
		c-2.3,0.5-4.7,0.7-7.4,0.5c-2.6-0.1-5.3-0.3-8.1-0.5c-2.8-0.2-5.3-0.1-7.7,0.4c-1.7-1.7-3.2-3.3-4.5-4.9c-1.3-1.6-2.3-3.5-3.1-5.9
		c-1.2,0-1.7-0.6-1.6-1.8c0.1-1.2-0.3-1.8-1.3-1.8c1.4-2.4,2.1-3.8,2-4.1c-0.1-0.4-0.5-0.7-1.1-0.9c-0.6-0.2-1.1-0.5-1.6-0.9
		c-0.5-0.4-0.6-0.9-0.4-1.6c1-1.9,1.3-4.1,1.1-6.7c-0.2-2.5-0.5-5.1-0.7-7.7c-0.2-2.6-0.1-5.2,0.5-7.6c0.6-2.4,2.3-4.3,5.2-5.8
		c8.2,1,15.9,0.7,23.2-0.9c7.3-1.6,14.2-3.8,20.7-6.7c6.5-2.9,12.7-6,18.6-9.4c5.9-3.4,11.7-6.4,17.5-9c0.7-2.2,1.7-4,3.1-5.4
		c1.3-1.4,2.7-2.8,4.1-4c1.4-1.2,2.8-2.5,4-4c1.2-1.4,2-3.2,2.5-5.4c0.2-1.7-0.2-2.7-1.3-3.1c-1.1-0.4-1.6-1.3-1.6-2.7l-4-1.1
		c-4.6-2.6-9.7-4.9-15.5-6.7c-5.8-1.8-10.7-3.8-14.8-5.9c-2.6,1.4-5.1,1.8-7.4,1.1c-2.3-0.7-5.2-1.4-8.8-2.2
		c-8.2-0.5-16-1.3-23.6-2.5c-7.6-1.2-14.8-3.4-21.8-6.5c-0.5-1.2-1.1-2.3-1.8-3.2c-0.7-1-2-1.2-4-0.7c-1.4-1.9-2.9-3.8-4.3-5.6
		c-1.4-1.8-2.8-3.8-4-5.9c0.5-2.9,0.8-5.3,1.1-7.4c0.2-2-0.5-4-2.2-5.9c1-3.1,1.7-5.6,2.2-7.6C2393.2,397.5,2393.2,395,2392.7,391.9
		z"/>
</g>
<polygon class="st4" points="1370.4,770.1 975.8,770.1 975.8,770.1 "/>
<g class="st2">
	<path class="st3" d="M1392.1,647.4c0,8.6-1.3,16.3-3.8,23.2c-2.6,6.9-6.2,12.7-10.8,17.5c-4.7,4.8-10.2,8.5-16.8,11.1
		c-6.5,2.6-13.7,3.8-21.5,3.8h-40.6V591.9h40.6c7.8,0,15,1.3,21.5,3.8c6.5,2.6,12.1,6.3,16.8,11.1c4.7,4.8,8.3,10.6,10.8,17.5
		C1390.8,631.2,1392.1,638.8,1392.1,647.4z M1383.8,647.4c0-7.7-1.1-14.7-3.2-20.7c-2.1-6.1-5.2-11.2-9.1-15.4
		c-3.9-4.2-8.6-7.4-14.1-9.6c-5.5-2.2-11.6-3.3-18.2-3.3h-32.5v98h32.5c6.6,0,12.7-1.1,18.2-3.3s10.2-5.4,14.1-9.6
		c3.9-4.2,7-9.3,9.1-15.4C1382.7,662.1,1383.8,655.2,1383.8,647.4z"/>
	<path class="st3" d="M1424.1,597.9c0,0.9-0.2,1.8-0.6,2.6c-0.4,0.8-0.9,1.5-1.5,2.2s-1.4,1.1-2.2,1.5c-0.8,0.4-1.7,0.5-2.7,0.5
		c-0.9,0-1.8-0.2-2.7-0.5c-0.8-0.4-1.6-0.9-2.2-1.5s-1.1-1.3-1.5-2.2c-0.4-0.8-0.5-1.7-0.5-2.6c0-0.9,0.2-1.8,0.5-2.7
		c0.4-0.9,0.9-1.6,1.5-2.2s1.4-1.1,2.2-1.5c0.8-0.4,1.7-0.5,2.7-0.5c0.9,0,1.8,0.2,2.7,0.5c0.8,0.4,1.6,0.9,2.2,1.5s1.1,1.4,1.5,2.2
		S1424.1,597,1424.1,597.9z M1420.8,624.8V703h-7.5v-78.1H1420.8z"/>
	<path class="st3" d="M1490.4,634.5c-0.4,0.7-1,1.1-1.8,1.1c-0.6,0-1.3-0.3-2.2-1c-0.9-0.7-2.1-1.4-3.6-2.2
		c-1.5-0.8-3.3-1.5-5.5-2.2c-2.2-0.7-4.9-1-8-1c-2.8,0-5.4,0.4-7.7,1.2c-2.3,0.8-4.3,1.9-6,3.3c-1.6,1.4-2.9,2.9-3.8,4.8
		c-0.9,1.8-1.3,3.7-1.3,5.7c0,2.5,0.6,4.5,1.9,6.1c1.3,1.6,2.9,3,4.9,4.2c2,1.2,4.3,2.1,6.9,3c2.6,0.8,5.3,1.7,8,2.5
		c2.7,0.8,5.3,1.8,8,2.8s4.9,2.3,6.9,3.8c2,1.5,3.7,3.4,4.9,5.6c1.3,2.2,1.9,4.9,1.9,8c0,3.4-0.6,6.6-1.8,9.5
		c-1.2,2.9-3,5.5-5.3,7.6c-2.3,2.1-5.2,3.8-8.6,5.1c-3.4,1.3-7.3,1.9-11.7,1.9c-5.5,0-10.2-0.9-14.2-2.6c-4-1.8-7.5-4-10.7-6.9
		l1.7-2.7c0.3-0.4,0.6-0.7,0.9-0.9c0.3-0.2,0.8-0.3,1.4-0.3c0.7,0,1.5,0.4,2.5,1.3c1,0.8,2.3,1.7,3.9,2.7c1.6,1,3.6,1.9,6,2.7
		c2.4,0.8,5.3,1.3,8.8,1.3c3.3,0,6.2-0.5,8.7-1.4c2.5-0.9,4.6-2.2,6.3-3.7c1.7-1.6,2.9-3.4,3.8-5.5c0.9-2.1,1.3-4.4,1.3-6.7
		c0-2.6-0.6-4.8-1.9-6.5c-1.3-1.7-2.9-3.2-4.9-4.4c-2-1.2-4.4-2.2-6.9-3.1c-2.6-0.8-5.2-1.7-8-2.5c-2.7-0.8-5.4-1.8-8-2.7
		c-2.6-1-4.9-2.2-6.9-3.8c-2-1.5-3.7-3.4-4.9-5.5c-1.3-2.2-1.9-4.9-1.9-8.1c0-2.8,0.6-5.4,1.8-8c1.2-2.6,2.9-4.8,5.1-6.8
		c2.2-1.9,4.9-3.5,8.1-4.6c3.2-1.2,6.8-1.7,10.8-1.7c4.8,0,9,0.7,12.7,2c3.7,1.4,7.1,3.5,10.1,6.3L1490.4,634.5z"/>
	<path class="st3" d="M1566.7,635.3c-0.3,0.3-0.5,0.5-0.7,0.7c-0.2,0.2-0.6,0.3-1,0.3c-0.5,0-1.2-0.4-2.1-1.1
		c-0.9-0.7-2.1-1.5-3.6-2.3c-1.5-0.8-3.4-1.6-5.7-2.3c-2.3-0.7-5-1.1-8.3-1.1c-4.5,0-8.5,0.8-12,2.4c-3.5,1.6-6.4,3.9-8.8,6.9
		c-2.4,3-4.2,6.6-5.5,10.8s-1.8,9-1.8,14.3c0,5.5,0.6,10.4,1.9,14.6c1.3,4.2,3.1,7.8,5.5,10.7c2.4,2.9,5.2,5.1,8.6,6.6
		c3.3,1.5,7.1,2.3,11.1,2.3c3.8,0,6.9-0.4,9.5-1.3c2.5-0.9,4.6-1.9,6.3-2.9c1.6-1,2.9-2,3.9-2.9c0.9-0.9,1.7-1.3,2.4-1.3
		s1.2,0.3,1.6,0.8l2,2.5c-1.2,1.6-2.7,3-4.6,4.4c-1.8,1.4-3.9,2.5-6.2,3.5s-4.8,1.8-7.5,2.3s-5.5,0.8-8.4,0.8c-5,0-9.5-0.9-13.6-2.7
		c-4.1-1.8-7.6-4.4-10.6-7.9c-3-3.4-5.3-7.6-6.9-12.6c-1.6-5-2.5-10.6-2.5-17c0-6,0.8-11.4,2.4-16.3c1.6-4.9,3.9-9.2,6.9-12.7
		c3-3.6,6.7-6.3,11.1-8.3c4.4-2,9.4-2.9,15-2.9c5.1,0,9.6,0.8,13.5,2.4c3.9,1.6,7.4,3.8,10.3,6.6L1566.7,635.3z"/>
	<path class="st3" d="M1617.6,623.6c5.6,0,10.6,1,15,2.9c4.4,1.9,8.2,4.6,11.2,8.1c3,3.5,5.3,7.7,6.9,12.7
		c1.6,4.9,2.4,10.5,2.4,16.6s-0.8,11.6-2.4,16.6c-1.6,4.9-3.9,9.1-6.9,12.6c-3,3.5-6.8,6.2-11.2,8.1s-9.4,2.8-15,2.8
		s-10.6-0.9-15-2.8c-4.4-1.9-8.2-4.6-11.2-8.1c-3.1-3.5-5.4-7.7-7-12.6c-1.6-4.9-2.4-10.4-2.4-16.6s0.8-11.7,2.4-16.6
		c1.6-4.9,3.9-9.2,7-12.7c3.1-3.5,6.8-6.2,11.2-8.1C1607,624.5,1612,623.6,1617.6,623.6z M1617.6,698.1c4.7,0,8.7-0.8,12.2-2.4
		c3.5-1.6,6.4-3.9,8.7-6.9c2.3-3,4.1-6.6,5.2-10.8c1.2-4.2,1.7-8.9,1.7-14.2c0-5.2-0.6-9.9-1.7-14.1c-1.2-4.2-2.9-7.9-5.2-10.9
		c-2.3-3-5.2-5.3-8.7-6.9c-3.5-1.6-7.5-2.4-12.2-2.4s-8.7,0.8-12.2,2.4c-3.5,1.6-6.4,3.9-8.7,6.9c-2.3,3-4.1,6.6-5.3,10.9
		c-1.2,4.2-1.8,8.9-1.8,14.1c0,5.2,0.6,10,1.8,14.2c1.2,4.2,2.9,7.8,5.3,10.8c2.3,3,5.2,5.3,8.7,6.9
		C1608.9,697.3,1613,698.1,1617.6,698.1z"/>
	<path class="st3" d="M1735.2,624.8l-33,78.1h-6.6l-33-78.1h5.9c0.7,0,1.3,0.2,1.8,0.6c0.5,0.4,0.8,0.8,0.9,1.3l25.8,61.6
		c0.8,2.3,1.4,4.6,1.9,6.8c0.5-2.2,1.1-4.5,2-6.8l25.9-61.6c0.3-0.6,0.6-1,1.1-1.4c0.4-0.3,1-0.5,1.6-0.5H1735.2z"/>
	<path class="st3" d="M1752,660.8v1.5c0,5.9,0.7,11,2,15.5s3.3,8.2,5.8,11.2c2.5,3,5.5,5.3,9.1,6.8c3.6,1.5,7.5,2.3,11.9,2.3
		c3.9,0,7.3-0.4,10.2-1.3c2.9-0.9,5.3-1.8,7.3-2.9c2-1.1,3.5-2,4.7-2.9c1.2-0.9,2-1.3,2.5-1.3c0.7,0,1.2,0.3,1.6,0.8l2,2.5
		c-1.3,1.6-2.9,3-5,4.4c-2.1,1.4-4.4,2.5-6.9,3.5c-2.5,1-5.3,1.7-8.2,2.3s-5.8,0.9-8.8,0.9c-5.3,0-10.2-0.9-14.6-2.8
		c-4.4-1.9-8.2-4.6-11.3-8.1c-3.1-3.6-5.6-7.9-7.3-13.1c-1.7-5.2-2.6-11.1-2.6-17.7c0-5.6,0.8-10.8,2.4-15.5
		c1.6-4.7,3.9-8.8,6.9-12.2c3-3.4,6.7-6.1,11.1-8c4.4-1.9,9.3-2.9,14.9-2.9c4.4,0,8.5,0.8,12.2,2.3c3.8,1.5,7,3.7,9.8,6.6
		c2.8,2.9,5,6.5,6.6,10.7s2.4,9.1,2.4,14.6c0,1.2-0.2,1.9-0.5,2.4s-0.8,0.6-1.6,0.6H1752z M1804.1,656c0-4.2-0.6-7.9-1.8-11.3
		c-1.2-3.3-2.8-6.1-5-8.4c-2.1-2.3-4.7-4.1-7.7-5.3c-3-1.2-6.2-1.8-9.8-1.8c-4,0-7.6,0.6-10.8,1.9c-3.2,1.3-6,3.1-8.3,5.4
		c-2.3,2.4-4.2,5.2-5.6,8.5c-1.4,3.3-2.4,7-2.8,11.1H1804.1z"/>
	<path class="st3" d="M1838.3,643.7c1.2-3.2,2.6-6,4.1-8.5c1.5-2.5,3.3-4.6,5.3-6.3c2-1.7,4.3-3,6.8-4c2.5-0.9,5.2-1.4,8.3-1.4
		c1.6,0,3.2,0.1,4.8,0.4c1.6,0.3,3,0.8,4.2,1.5l-0.6,5.2c-0.3,0.8-0.8,1.3-1.5,1.3c-0.6,0-1.6-0.2-2.9-0.5c-1.3-0.4-3-0.5-5.1-0.5
		c-3,0-5.7,0.5-8,1.4c-2.3,0.9-4.4,2.3-6.3,4.1c-1.9,1.8-3.5,4.1-4.9,6.8c-1.4,2.7-2.7,5.8-3.8,9.3V703h-7.5v-78.1h4
		c0.9,0,1.5,0.2,1.9,0.5c0.4,0.4,0.6,1,0.7,1.9L1838.3,643.7z"/>
	<path class="st3" d="M1933.1,638.5c3.6-4.5,7.8-8.1,12.5-10.8c4.7-2.7,10-4.1,15.8-4.1c4.3,0,8.1,0.7,11.3,2c3.3,1.4,6,3.3,8.1,5.9
		c2.1,2.6,3.8,5.7,4.9,9.3s1.6,7.7,1.6,12.2V703h-7.5V653c0-7.3-1.7-13.1-5-17.2c-3.3-4.2-8.5-6.2-15.3-6.2c-5.1,0-9.8,1.3-14.2,3.9
		c-4.4,2.6-8.4,6.2-11.8,10.8V703h-7.5v-78.1h4.2c1.3,0,2.1,0.7,2.3,2L1933.1,638.5z"/>
	<path class="st3" d="M2014.9,660.8v1.5c0,5.9,0.7,11,2,15.5s3.3,8.2,5.8,11.2c2.5,3,5.5,5.3,9.1,6.8c3.6,1.5,7.5,2.3,11.9,2.3
		c3.9,0,7.3-0.4,10.2-1.3c2.9-0.9,5.3-1.8,7.3-2.9c2-1.1,3.5-2,4.7-2.9c1.2-0.9,2-1.3,2.5-1.3c0.7,0,1.2,0.3,1.6,0.8l2,2.5
		c-1.3,1.6-2.9,3-5,4.4c-2.1,1.4-4.4,2.5-6.9,3.5c-2.5,1-5.3,1.7-8.2,2.3s-5.8,0.9-8.8,0.9c-5.3,0-10.2-0.9-14.6-2.8
		c-4.4-1.9-8.2-4.6-11.3-8.1c-3.1-3.6-5.6-7.9-7.3-13.1c-1.7-5.2-2.6-11.1-2.6-17.7c0-5.6,0.8-10.8,2.4-15.5
		c1.6-4.7,3.9-8.8,6.9-12.2c3-3.4,6.7-6.1,11.1-8c4.4-1.9,9.3-2.9,14.9-2.9c4.4,0,8.5,0.8,12.2,2.3c3.8,1.5,7,3.7,9.8,6.6
		c2.8,2.9,5,6.5,6.6,10.7s2.4,9.1,2.4,14.6c0,1.2-0.2,1.9-0.5,2.4s-0.8,0.6-1.6,0.6H2014.9z M2067.1,656c0-4.2-0.6-7.9-1.8-11.3
		c-1.2-3.3-2.8-6.1-5-8.4c-2.1-2.3-4.7-4.1-7.7-5.3c-3-1.2-6.2-1.8-9.8-1.8c-4,0-7.6,0.6-10.8,1.9c-3.2,1.3-6,3.1-8.3,5.4
		c-2.3,2.4-4.2,5.2-5.6,8.5c-1.4,3.3-2.4,7-2.8,11.1H2067.1z"/>
	<path class="st3" d="M2197,624.8l-26.1,78.1h-5.6c-0.9,0-1.5-0.5-1.8-1.6l-21.4-63.4c-0.3-0.8-0.5-1.6-0.7-2.4s-0.4-1.6-0.5-2.4
		c-0.3,1.6-0.7,3.1-1.2,4.7l-21.7,63.4c-0.3,1.1-0.9,1.6-1.9,1.6h-5.3l-26.1-78.1h5.7c0.7,0,1.3,0.2,1.8,0.6
		c0.5,0.4,0.8,0.8,0.9,1.3l19.7,61.6c0.3,1.2,0.6,2.4,0.9,3.5c0.3,1.1,0.5,2.2,0.6,3.3c0.3-1.1,0.6-2.2,0.9-3.3
		c0.3-1.1,0.7-2.3,1.1-3.5l20.9-62.2c0.4-1.2,1.1-1.7,2.2-1.7h3.1c1.2,0,1.9,0.6,2.3,1.7l20.7,62.2c0.4,1.2,0.7,2.4,1,3.5
		c0.3,1.1,0.6,2.2,0.9,3.3c0.2-1.1,0.4-2.2,0.7-3.3c0.2-1.1,0.5-2.2,0.9-3.5l19.9-61.6c0.2-0.6,0.5-1,1-1.4c0.5-0.3,1-0.5,1.6-0.5
		H2197z"/>
	<path class="st3" d="M2305.6,635.3c-0.3,0.3-0.5,0.5-0.7,0.7c-0.2,0.2-0.6,0.3-1,0.3c-0.5,0-1.2-0.4-2.1-1.1
		c-0.9-0.7-2.1-1.5-3.6-2.3c-1.5-0.8-3.4-1.6-5.7-2.3c-2.3-0.7-5-1.1-8.3-1.1c-4.5,0-8.5,0.8-12,2.4c-3.5,1.6-6.4,3.9-8.8,6.9
		c-2.4,3-4.2,6.6-5.5,10.8c-1.2,4.2-1.8,9-1.8,14.3c0,5.5,0.6,10.4,1.9,14.6c1.3,4.2,3.1,7.8,5.5,10.7c2.4,2.9,5.2,5.1,8.6,6.6
		c3.3,1.5,7.1,2.3,11.1,2.3c3.8,0,6.9-0.4,9.5-1.3c2.5-0.9,4.6-1.9,6.3-2.9c1.6-1,2.9-2,3.9-2.9c0.9-0.9,1.7-1.3,2.4-1.3
		s1.2,0.3,1.6,0.8l2,2.5c-1.2,1.6-2.7,3-4.6,4.4c-1.8,1.4-3.9,2.5-6.2,3.5s-4.8,1.8-7.5,2.3s-5.5,0.8-8.4,0.8c-5,0-9.5-0.9-13.6-2.7
		c-4.1-1.8-7.6-4.4-10.6-7.9c-3-3.4-5.3-7.6-6.9-12.6c-1.6-5-2.5-10.6-2.5-17c0-6,0.8-11.4,2.4-16.3c1.6-4.9,3.9-9.2,6.9-12.7
		c3-3.6,6.7-6.3,11.1-8.3c4.4-2,9.4-2.9,15-2.9c5.1,0,9.6,0.8,13.5,2.4c3.9,1.6,7.4,3.8,10.3,6.6L2305.6,635.3z"/>
	<path class="st3" d="M2334.3,643.7c1.2-3.2,2.6-6,4.1-8.5c1.5-2.5,3.3-4.6,5.3-6.3c2-1.7,4.3-3,6.8-4c2.5-0.9,5.2-1.4,8.3-1.4
		c1.6,0,3.2,0.1,4.8,0.4c1.6,0.3,3,0.8,4.2,1.5l-0.6,5.2c-0.3,0.8-0.8,1.3-1.5,1.3c-0.6,0-1.6-0.2-2.9-0.5c-1.3-0.4-3-0.5-5.1-0.5
		c-3,0-5.7,0.5-8,1.4c-2.3,0.9-4.4,2.3-6.3,4.1c-1.9,1.8-3.5,4.1-4.9,6.8c-1.4,2.7-2.7,5.8-3.8,9.3V703h-7.5v-78.1h4
		c0.9,0,1.5,0.2,1.9,0.5c0.4,0.4,0.6,1,0.7,1.9L2334.3,643.7z"/>
	<path class="st3" d="M2380.9,660.8v1.5c0,5.9,0.7,11,2,15.5c1.4,4.4,3.3,8.2,5.8,11.2c2.5,3,5.5,5.3,9.1,6.8
		c3.6,1.5,7.5,2.3,11.9,2.3c3.9,0,7.3-0.4,10.2-1.3c2.9-0.9,5.3-1.8,7.3-2.9c2-1.1,3.5-2,4.7-2.9c1.2-0.9,2-1.3,2.5-1.3
		c0.7,0,1.2,0.3,1.6,0.8l2,2.5c-1.3,1.6-2.9,3-5,4.4c-2.1,1.4-4.4,2.5-6.9,3.5c-2.5,1-5.3,1.7-8.2,2.3c-2.9,0.6-5.8,0.9-8.8,0.9
		c-5.3,0-10.2-0.9-14.6-2.8c-4.4-1.9-8.2-4.6-11.3-8.1c-3.1-3.6-5.6-7.9-7.3-13.1c-1.7-5.2-2.6-11.1-2.6-17.7
		c0-5.6,0.8-10.8,2.4-15.5c1.6-4.7,3.9-8.8,6.9-12.2c3-3.4,6.7-6.1,11.1-8c4.4-1.9,9.3-2.9,14.9-2.9c4.4,0,8.5,0.8,12.2,2.3
		c3.8,1.5,7,3.7,9.8,6.6c2.8,2.9,5,6.5,6.6,10.7c1.6,4.2,2.4,9.1,2.4,14.6c0,1.2-0.2,1.9-0.5,2.4c-0.3,0.4-0.8,0.6-1.6,0.6H2380.9z
		 M2433,656c0-4.2-0.6-7.9-1.8-11.3c-1.2-3.3-2.8-6.1-5-8.4c-2.1-2.3-4.7-4.1-7.7-5.3c-3-1.2-6.2-1.8-9.8-1.8c-4,0-7.6,0.6-10.8,1.9
		c-3.2,1.3-6,3.1-8.3,5.4c-2.3,2.4-4.2,5.2-5.6,8.5c-1.4,3.3-2.4,7-2.8,11.1H2433z"/>
	<path class="st3" d="M2457.9,635.9c4.1-4.1,8.4-7.2,12.9-9.3c4.5-2.1,9.6-3.1,15.3-3.1c4.2,0,7.8,0.7,11,2c3.1,1.3,5.7,3.2,7.8,5.7
		c2.1,2.5,3.6,5.5,4.7,9c1,3.5,1.6,7.5,1.6,11.8V703h-3c-1.6,0-2.5-0.7-2.9-2.2l-1.1-10c-2.1,2.1-4.3,4-6.4,5.7s-4.3,3.1-6.6,4.2
		c-2.3,1.2-4.8,2-7.5,2.7c-2.7,0.6-5.6,0.9-8.8,0.9c-2.7,0-5.3-0.4-7.8-1.2c-2.5-0.8-4.8-2-6.7-3.6c-2-1.6-3.5-3.7-4.7-6.2
		c-1.2-2.5-1.8-5.6-1.8-9.1c0-3.3,0.9-6.4,2.8-9.2c1.9-2.8,4.8-5.3,8.9-7.4c4-2.1,9.2-3.8,15.5-5s13.9-2,22.7-2.2v-8.2
		c0-7.2-1.6-12.8-4.7-16.7s-7.7-5.8-13.9-5.8c-3.8,0-7,0.5-9.6,1.6s-4.9,2.2-6.7,3.5c-1.8,1.3-3.3,2.4-4.5,3.5
		c-1.2,1-2.1,1.6-2.9,1.6c-0.6,0-1-0.1-1.4-0.4c-0.4-0.3-0.7-0.6-0.9-1L2457.9,635.9z M2503.8,665.2c-7.4,0.3-13.8,0.9-19.2,1.8
		c-5.4,0.9-9.8,2.2-13.3,3.7s-6.1,3.4-7.7,5.6c-1.7,2.2-2.5,4.6-2.5,7.4c0,2.6,0.4,4.9,1.3,6.8c0.9,1.9,2,3.5,3.5,4.7
		c1.4,1.2,3.1,2.1,5,2.7c1.9,0.6,3.8,0.9,5.9,0.9c3,0,5.8-0.3,8.4-1c2.5-0.7,4.9-1.6,7.1-2.7c2.2-1.2,4.2-2.6,6.1-4.2
		c1.9-1.6,3.7-3.4,5.6-5.3V665.2z"/>
	<path class="st3" d="M2556.6,704.2c-5.3,0-9.4-1.5-12.4-4.4s-4.4-7.5-4.4-13.6v-53.4h-11.2c-0.6,0-1-0.2-1.4-0.5
		c-0.4-0.3-0.5-0.8-0.5-1.3v-2.9l13.3-0.9l1.9-27.9c0.1-0.5,0.3-0.9,0.6-1.3s0.8-0.5,1.3-0.5h3.5v29.8h24.6v5.6h-24.6v53
		c0,2.1,0.3,4,0.8,5.5c0.5,1.5,1.3,2.8,2.3,3.8c1,1,2.1,1.7,3.4,2.2c1.3,0.5,2.7,0.7,4.2,0.7c1.9,0,3.5-0.3,4.9-0.8
		c1.4-0.5,2.5-1.2,3.5-1.8c1-0.7,1.8-1.3,2.4-1.8c0.6-0.5,1.1-0.8,1.5-0.8c0.4,0,0.8,0.3,1.3,0.8l2,3.3c-2,2.2-4.5,4-7.6,5.3
		C2563.1,703.5,2559.9,704.2,2556.6,704.2z"/>
	<path class="st3" d="M2619.7,623.6c5.6,0,10.6,1,15,2.9c4.4,1.9,8.2,4.6,11.2,8.1c3,3.5,5.3,7.7,6.9,12.7
		c1.6,4.9,2.4,10.5,2.4,16.6s-0.8,11.6-2.4,16.6c-1.6,4.9-3.9,9.1-6.9,12.6c-3,3.5-6.8,6.2-11.2,8.1s-9.4,2.8-15,2.8
		s-10.6-0.9-15-2.8c-4.4-1.9-8.2-4.6-11.2-8.1c-3.1-3.5-5.4-7.7-7-12.6c-1.6-4.9-2.4-10.4-2.4-16.6s0.8-11.7,2.4-16.6
		c1.6-4.9,3.9-9.2,7-12.7c3.1-3.5,6.8-6.2,11.2-8.1C2609.1,624.5,2614.1,623.6,2619.7,623.6z M2619.7,698.1c4.7,0,8.7-0.8,12.2-2.4
		c3.5-1.6,6.4-3.9,8.7-6.9c2.3-3,4.1-6.6,5.2-10.8c1.2-4.2,1.7-8.9,1.7-14.2c0-5.2-0.6-9.9-1.7-14.1c-1.2-4.2-2.9-7.9-5.2-10.9
		c-2.3-3-5.2-5.3-8.7-6.9c-3.5-1.6-7.5-2.4-12.2-2.4s-8.7,0.8-12.2,2.4c-3.5,1.6-6.4,3.9-8.7,6.9c-2.3,3-4.1,6.6-5.3,10.9
		c-1.2,4.2-1.8,8.9-1.8,14.1c0,5.2,0.6,10,1.8,14.2c1.2,4.2,2.9,7.8,5.3,10.8c2.3,3,5.2,5.3,8.7,6.9
		C2611,697.3,2615,698.1,2619.7,698.1z"/>
	<path class="st3" d="M2683.5,643.7c1.2-3.2,2.6-6,4.1-8.5c1.5-2.5,3.3-4.6,5.3-6.3c2-1.7,4.3-3,6.8-4c2.5-0.9,5.2-1.4,8.3-1.4
		c1.6,0,3.2,0.1,4.8,0.4c1.6,0.3,3,0.8,4.2,1.5l-0.6,5.2c-0.3,0.8-0.8,1.3-1.5,1.3c-0.6,0-1.6-0.2-2.9-0.5c-1.3-0.4-3-0.5-5.1-0.5
		c-3,0-5.7,0.5-8,1.4c-2.3,0.9-4.4,2.3-6.3,4.1c-1.9,1.8-3.5,4.1-4.9,6.8c-1.4,2.7-2.7,5.8-3.8,9.3V703h-7.5v-78.1h4
		c0.9,0,1.5,0.2,1.9,0.5c0.4,0.4,0.6,1,0.7,1.9L2683.5,643.7z"/>
	<path class="st3" d="M2773.9,634.5c-0.4,0.7-1,1.1-1.8,1.1c-0.6,0-1.3-0.3-2.2-1c-0.9-0.7-2.1-1.4-3.6-2.2
		c-1.5-0.8-3.3-1.5-5.5-2.2c-2.2-0.7-4.9-1-8-1c-2.8,0-5.4,0.4-7.7,1.2c-2.3,0.8-4.3,1.9-6,3.3c-1.6,1.4-2.9,2.9-3.8,4.8
		c-0.9,1.8-1.3,3.7-1.3,5.7c0,2.5,0.6,4.5,1.9,6.1c1.3,1.6,2.9,3,4.9,4.2c2,1.2,4.3,2.1,6.9,3c2.6,0.8,5.3,1.7,8,2.5s5.3,1.8,8,2.8
		c2.6,1,4.9,2.3,6.9,3.8c2,1.5,3.7,3.4,4.9,5.6s1.9,4.9,1.9,8c0,3.4-0.6,6.6-1.8,9.5c-1.2,2.9-3,5.5-5.3,7.6
		c-2.3,2.1-5.2,3.8-8.6,5.1c-3.4,1.3-7.3,1.9-11.7,1.9c-5.5,0-10.2-0.9-14.2-2.6s-7.5-4-10.7-6.9l1.7-2.7c0.3-0.4,0.6-0.7,0.9-0.9
		c0.3-0.2,0.8-0.3,1.4-0.3c0.7,0,1.5,0.4,2.5,1.3s2.3,1.7,3.9,2.7c1.6,1,3.6,1.9,6,2.7c2.4,0.8,5.3,1.3,8.8,1.3
		c3.3,0,6.2-0.5,8.7-1.4c2.5-0.9,4.6-2.2,6.3-3.7c1.7-1.6,2.9-3.4,3.8-5.5c0.9-2.1,1.3-4.4,1.3-6.7c0-2.6-0.6-4.8-1.9-6.5
		c-1.3-1.7-2.9-3.2-4.9-4.4c-2-1.2-4.4-2.2-6.9-3.1c-2.6-0.8-5.2-1.7-8-2.5c-2.7-0.8-5.4-1.8-8-2.7c-2.6-1-4.9-2.2-6.9-3.8
		c-2-1.5-3.7-3.4-4.9-5.5c-1.3-2.2-1.9-4.9-1.9-8.1c0-2.8,0.6-5.4,1.8-8c1.2-2.6,2.9-4.8,5.1-6.8c2.2-1.9,4.9-3.5,8.1-4.6
		c3.2-1.2,6.8-1.7,10.8-1.7c4.8,0,9,0.7,12.7,2c3.7,1.4,7.1,3.5,10.1,6.3L2773.9,634.5z"/>
</g>
</svg>
