<?xml version="1.0" encoding="utf-8"?>
<!-- Generator: Adobe Illustrator 19.2.1, SVG Export Plug-In . SVG Version: 6.00 Build 0)  -->
<svg version="1.1" id="Calque_1" xmlns="http://www.w3.org/2000/svg" xmlns:xlink="http://www.w3.org/1999/xlink" x="0px" y="0px"
	 viewBox="0 0 418 414.3" style="enable-background:new 0 0 418 414.3;" xml:space="preserve">
<style type="text/css">
	.st0{fill:#EEEEEE;}
	.st1{font-family:'PermanentMarker';}
	.st2{font-size:60px;}
	.st3{opacity:0.6;fill:#F6C90E;}
	.st4{opacity:0.5;fill:#F6C90E;}
	.st5{opacity:0.6;fill:#EEEEEE;}
	.st6{font-family:'Lato-Light';}
	.st7{font-size:20px;}
</style>
<text transform="matrix(1 0 0 1 45.5843 340.0691)" class="st0 st1 st2">CREATORS</text>
<ellipse class="st3" cx="198.7" cy="243.3" rx="109" ry="33"/>
<path class="st4" d="M308.7,245.3l-4-9l-258-214l44,223c-0.2,0.4-1.9-35.2,109-33C310.7,214.5,309.4,246.7,308.7,245.3z"/>
<text transform="matrix(1 0 0 1 161.6669 368.9217)" class="st5 st6 st7">Discover new creators</text>
<ellipse class="st3" cx="217.7" cy="243.3" rx="109" ry="33"/>
<path class="st4" d="M109,243.3l4.1-8.9L374.3,24.3L327,246.6c0.2,0.4,2.4-35.2-108.5-34.6C107.5,212.5,108.3,244.7,109,243.3z"/>
</svg>
