<?xml version="1.0" encoding="utf-8"?>
<!-- Generator: Adobe Illustrator 19.2.1, SVG Export Plug-In . SVG Version: 6.00 Build 0)  -->
<svg version="1.1" id="Calque_1" xmlns="http://www.w3.org/2000/svg" xmlns:xlink="http://www.w3.org/1999/xlink" x="0px" y="0px"
	 viewBox="0 0 418 414.3" style="enable-background:new 0 0 418 414.3;" xml:space="preserve">
<style type="text/css">
	.st0{enable-background:new    ;}
	.st1{fill:#F6C90E;}
	.st2{opacity:0.6;fill:#F6C90E;enable-background:new    ;}
	.st3{opacity:0.5;fill:#F6C90E;enable-background:new    ;}
	.st4{opacity:0.6;enable-background:new    ;}
</style>
<g class="st0">
	<path class="st1" d="M51,335c-1.1-0.9-2.1-1.9-2.8-3.2c-0.7-1.3-1.3-2.7-1.7-4.1c-0.4-1.4-0.7-2.9-0.8-4.5c-0.1-1.5-0.2-3-0.1-4.4
		c0.4-1.1,0.8-2,1.3-2.9c0.5-0.9,1.1-1.7,1.7-2.5c0.6-0.8,1.3-1.6,2-2.3c0.7-0.7,1.4-1.5,2-2.2c0.2,0,0.4,0.1,0.6,0.2
		c0.2-0.4,0.4-0.8,0.7-1.1c0.3-0.3,0.6-0.6,1-0.8c0.4-0.3,0.7-0.5,1.1-0.8c0.4-0.3,0.6-0.6,0.9-0.9c1-0.2,1.8-0.6,2.6-1
		c0.8-0.4,1.5-0.9,2.2-1.4c0.7-0.5,1.4-1,2.2-1.4c0.7-0.4,1.6-0.8,2.6-1c0.4-0.4,0.8-0.7,1.3-1c0.5-0.3,1.1-0.5,1.6-0.8
		s1-0.5,1.5-0.8c0.5-0.3,0.9-0.6,1.2-1.1c0.2,0.3,0.6,0.4,1,0.3c0.4-0.1,0.8-0.2,1.2-0.3c0.2,0,0.4,0,0.6,0.1
		c0.2,0.1,0.3,0.2,0.4,0.4c0.1,0.1,0.3,0.2,0.4,0.3c0.1,0,0.2-0.1,0.3-0.4c0.3,0,0.4,0.2,0.3,0.4c-0.1,0.2-0.2,0.4-0.3,0.5
		c0.4-0.1,0.7,0,1,0.2c0.3,0.2,0.7,0.4,1.2,0.4c0.2,0.2,0.3,0.4,0.2,0.5c-0.1,0.1-0.1,0.3-0.2,0.6c1.4,0.4,2.3,1.1,2.7,2
		c0.4,0.9,0.4,1.9,0.1,2.9c-0.3,1-0.9,1.9-1.7,2.8c-0.8,0.8-1.8,1.4-2.8,1.7c-1.2,0.3-2.3,0.6-3.4,0.9c-1,0.3-2,0.7-3,1.1
		c-1,0.4-1.9,0.8-2.7,1.4c-0.8,0.5-1.6,1.1-2.2,1.8c-1.1,0.3-2.1,0.7-3,1.3c-0.9,0.5-1.7,1.2-2.5,1.8c-0.8,0.7-1.5,1.4-2.2,2.1
		c-0.7,0.7-1.4,1.4-2.1,2.1c0,0.7-0.1,1.2-0.4,1.5s-0.5,0.7-0.8,1.1c0.1,0.7,0.2,1.4,0.5,1.9c0.3,0.5,0.5,1.1,0.8,1.6
		c3.1,0.9,6.4,1.5,9.9,1.7c3.5,0.2,7,0.3,10.4,0.4c0.4,0.5,0.8,0.9,1.2,1.3c0.4,0.4,0.9,0.8,1.2,1.3c0.4,0.4,0.7,0.9,0.9,1.5
		c0.2,0.6,0.3,1.2,0.1,2c-0.7,0.7-1.4,1.3-2.2,1.9c-0.8,0.6-1.6,1.2-2.3,1.8c-0.4,0-0.8,0-1.3,0c-0.5,0-1-0.1-1.5-0.1
		s-1.1,0-1.6,0.1s-1,0.2-1.5,0.4c-2.5-0.1-5-0.4-7.6-0.9s-5-1.2-7.1-1.9c-0.4-0.5-0.9-1-1.3-1.4C52.4,335.5,51.8,335.2,51,335z"/>
	<path class="st1" d="M83.9,335c-0.2,0-0.4-0.1-0.5-0.4c-0.2-0.3-0.3-0.7-0.5-1h0.6c-0.3-0.9-0.3-1.6-0.2-2.4
		c0.1-0.7,0.3-1.4,0.5-2.1c0.2-0.7,0.4-1.3,0.5-2c0.1-0.6,0.1-1.3-0.2-2c0.2,0.1,0.3,0.1,0.4-0.1c0.1-0.2,0.2-0.5,0.2-0.8
		c0.1-0.3,0.1-0.7,0.1-1.1c0-0.4,0-0.7-0.1-0.9c0.5-1.2,0.9-2.5,1.2-3.8s0.6-2.6,0.8-3.8c0.2-1.3,0.5-2.5,0.8-3.7
		c0.3-1.2,0.7-2.3,1.1-3.4c0.5-0.1,1.1,0,1.7,0.2c0.6,0.2,1,0.5,1.2,0.8c1.2-0.9,2.3-2.1,3.2-3.4c0.9-1.3,1.9-2.6,2.8-3.9
		c1-1.3,2-2.4,3.3-3.4c1.2-1,2.7-1.6,4.5-1.8c0.9,0.7,2,1.4,3.2,2.1s2.1,1.7,2.9,2.8c0.3,0.2,0.6,0.4,0.9,0.6
		c0.3,0.2,0.6,0.4,0.9,0.6v0.9c0.5,0.5,1,1.1,1.4,1.8c0.4,0.7,0.7,1.4,1,2.2s0.6,1.5,0.8,2.3c0.3,0.8,0.6,1.5,0.9,2.2
		c-0.1,0.2-0.1,0.4-0.1,0.6c0,0.2,0.1,0.4,0.1,0.5s0.1,0.4,0.1,0.6c0,0.2,0.1,0.5,0.1,0.8c-0.2,2.1-0.8,3.7-2,5
		c-1.2,1.3-2.6,2.3-4.3,3.1c-1.7,0.8-3.5,1.5-5.4,2.1c-1.9,0.6-3.7,1.2-5.2,1.8c0,0.2,0.1,0.2,0.3,0.2s0.2,0.1,0.1,0.4
		c1.2,0.7,2.1,1.3,2.7,1.7c0.6,0.4,1.2,0.8,1.8,1.1c0.6,0.3,1.2,0.5,1.9,0.7c0.7,0.2,1.6,0.4,2.8,0.7c1.2,0.3,2.2,0.5,2.8,0.7
		c0.7,0.2,1.3,0.3,1.8,0.4c0.5,0.1,1.1,0.2,1.8,0.3c0.6,0.1,1.5,0.2,2.5,0.3c0.4,0.4,0.8,0.9,1.1,1.5c0.3,0.6,0.5,1.2,0.6,1.8
		s0.1,1.1,0.1,1.7s-0.2,0.9-0.5,1.3c0,0.2,0.1,0.2,0.3,0.2c0.2,0,0.4,0,0.6,0c-0.3,0.2-0.5,0.4-0.7,0.7c-0.2,0.3-0.4,0.5-0.6,0.8
		c-0.2,0.3-0.4,0.5-0.7,0.8c-0.3,0.2-0.6,0.4-1,0.4c-1.4,0.5-3.2,0.6-5.4,0.1c-2.2-0.5-5-1.4-8.4-2.7c-1.7-0.6-3-1.2-4.1-1.7
		c-1.1-0.5-2-1-2.8-1.5c-0.8-0.5-1.5-1-2.2-1.6c-0.7-0.6-1.4-1.2-2.3-2c-0.1,0-0.2,0.1-0.2,0.2c0,0.1-0.1,0.2-0.2,0.2
		c-0.2,1.6-0.5,2.8-0.9,3.8c-0.4,1-1,2-1.8,3c-0.6-0.1-1-0.1-1.3,0.2c-0.2,0.2-0.5,0.4-0.8,0.6c-0.4,0.1-0.7,0.1-0.9,0
		c-0.2-0.1-0.4-0.2-0.5-0.3c-0.2-0.1-0.3-0.2-0.5-0.4c-0.2-0.1-0.5-0.2-0.9-0.1c-0.1-0.4-0.2-0.7-0.4-1c-0.1-0.3-0.4-0.5-0.9-0.4
		c0.1-0.4,0.2-0.7,0.1-0.9c0-0.3-0.1-0.5-0.2-0.7c-0.1-0.2-0.1-0.4-0.2-0.7S83.8,335.3,83.9,335z M103.5,308.3
		c-0.5,0.7-1.1,1.4-1.7,2c-0.6,0.6-1.2,1.2-1.8,1.9c-0.6,0.6-1.1,1.3-1.6,2.1s-0.8,1.7-1,2.7c1.6-0.2,3.4-0.7,5.2-1.4
		c1.8-0.7,3.5-1.4,5.1-2.1c-0.2-1.4-0.7-2.6-1.5-3.5S104.4,308.6,103.5,308.3z"/>
	<path class="st1" d="M124.3,338.1c-0.3-0.3-0.5-0.7-0.7-1.1c-0.1-0.4-0.5-0.8-1-1.1c-0.1-0.6-0.2-1.3-0.3-2
		c-0.1-0.8-0.3-1.5-0.4-2.3c-0.1-0.8-0.2-1.6-0.3-2.4c-0.1-0.8,0-1.5,0.1-2.2c0.1-0.4,0.2-0.7,0.4-1c0.2-0.3,0.4-0.6,0.5-0.9
		s0.3-0.6,0.4-0.9c0.1-0.3,0.1-0.6,0-0.9c0.2,0,0.4-0.2,0.4-0.4c0.1-0.2,0.2-0.3,0.6-0.2c0.3-0.9,0.6-1.7,0.9-2.4
		c0.3-0.7,0.6-1.5,1-2.2s0.7-1.4,1.1-2.1c0.4-0.7,0.7-1.5,1-2.4c-0.7-0.6-1.1-1.3-1.4-2c-0.3-0.7-0.5-1.5-0.7-2.2
		c-0.2-0.7-0.3-1.5-0.4-2.3c-0.1-0.8-0.2-1.5-0.5-2.3c0.5-0.7,1-1.3,1.7-1.7c0.7-0.4,1.4-0.8,2.2-1.1c0.8-0.3,1.7-0.5,2.6-0.7
		s1.9-0.4,3-0.6c1.9-0.6,3.6-1,5-1.4c1.5-0.3,2.9-0.6,4.3-0.8c1.4-0.2,2.9-0.4,4.4-0.6s3.3-0.4,5.3-0.8c0,0.1,0.1,0.2,0.2,0.2
		c0.1,0,0.2,0,0.4,0c0.1,0.3,0.3,0.4,0.6,0.4c0-0.1,0-0.2,0-0.3c0-0.1,0-0.2,0-0.3c0.1,0,0.2,0,0.3,0.1c0.1,0,0.3,0.1,0.4,0.1
		c0.1,0,0.2,0,0.3,0c0.1-0.1,0.1-0.2,0.1-0.4c0.5,0.8,1.1,1.5,1.8,2c0.7,0.5,1.6,1,2.5,1.4c0,0.4,0,0.6,0,0.8c0,0.2,0,0.3-0.1,0.4
		c0,0.1-0.1,0.3-0.1,0.5s0,0.4,0.1,0.7c-0.6,1.1-1.3,1.9-2.1,2.5c-0.8,0.6-1.7,1-2.5,1.3c-0.9,0.3-1.8,0.5-2.8,0.7
		c-1,0.2-2,0.3-3,0.5c-1,0.2-2.1,0.4-3.1,0.7c-1.1,0.3-2.1,0.8-3.1,1.4c-0.3-0.1-0.6-0.2-0.8-0.1c-0.3,0-0.5,0.1-0.8,0.1
		c-0.3,0.1-0.6,0.2-0.9,0.2c-0.3,0.1-0.7,0.1-1.2,0c-0.3,0.3-0.7,0.5-1.1,0.6s-0.8,0.2-1.3,0.4c0.2,0.4,0.3,0.9,0.3,1.3
		c0,0.4,0,0.8,0.1,1.1c1.6,0.2,3.5,0.1,5.4,0s3.9-0.3,5.9-0.4c0,0.2,0,0.3-0.1,0.4c-0.1,0.1-0.1,0.2-0.1,0.4c0.4,0.2,0.7,0.5,1,0.9
		c0.3,0.4,0.6,0.7,1,1c0.3,0.3,0.7,0.6,1,0.8c0.4,0.2,0.8,0.3,1.2,0.3c0.2,0.4,0.3,0.8,0.4,1.2c0.1,0.4,0,0.9-0.2,1.3
		c-0.8,0.5-1.5,1-2.3,1.6c-0.7,0.5-1.5,1-2.3,1.4c-0.8,0.4-1.7,0.8-2.6,1.1c-0.9,0.3-2,0.4-3,0.4c-0.2,0-0.4,0-0.5,0
		c-0.1,0-0.3-0.1-0.5-0.2c-0.4,0.2-0.9,0.3-1.6,0.2s-1.2,0-1.6,0.2c-0.5-0.2-1.2-0.3-1.9-0.3c-0.7,0-1.4-0.1-1.9-0.3
		c-0.7,1-1.4,2.1-2,3.2c-0.6,1.1-1.2,2.3-1.6,3.5c1.6,0.2,2.9,0.3,4,0.3c1.1,0,2.1-0.1,3-0.2s1.9-0.2,2.9-0.4s2.2-0.2,3.7-0.1
		c1-0.5,2.1-0.8,3.4-1c1.3-0.2,2.5-0.4,3.5-0.8c0.4,0.1,0.7,0.3,1,0.7c0.3,0.3,0.5,0.7,0.8,1c0.3,0.3,0.5,0.6,0.8,0.8
		c0.3,0.2,0.6,0.3,1.1,0.2c0.2,0.2,0.3,0.4,0.4,0.7c0.1,0.3,0.1,0.5,0.2,0.8s0.1,0.4,0.3,0.6c0.1,0.1,0.3,0.2,0.6,0.1
		c-0.7,1.5-1.6,2.7-2.5,3.5c-0.9,0.8-2,1.5-3.1,1.9c-1.2,0.4-2.4,0.8-3.9,1c-1.4,0.2-3,0.5-4.8,0.8c-0.4,0.1-0.8,0.1-1.1,0
		c-0.3-0.1-0.6-0.1-0.9-0.1c-1.1,0.2-2.4,0.4-3.9,0.6c-1.5,0.2-3,0.3-4.5,0.2c-1.5,0-3-0.2-4.4-0.6S125.3,339,124.3,338.1z"/>
	<path class="st1" d="M157.1,334.5l0.8-0.6l0.1-1.2c1-2.4,2-4.7,3-6.9c1-2.2,2.1-4.4,3.3-6.7c0.4-0.7,0.7-1.5,1.1-2.2
		c0.4-0.7,0.7-1.5,1.1-2.3c0-0.2-0.1-0.3-0.1-0.5s0-0.4,0.1-0.6c0.5-0.8,1-1.5,1.3-2.1c0.3-0.6,0.7-1.3,1-1.9
		c0.4-0.8,0.7-1.6,1.1-2.3c0.4-0.8,0.9-1.5,1.6-2.3l0.4-0.6l0.6,0.1c0.2-0.1,0.3-0.1,0.5-0.2s0.4-0.1,0.7-0.1l1.1,0.2
		c1.3-0.6,2.4-1.4,3.4-2.5s2-2.5,3-4l0.7-1l0.9,0.6c0.2,0.1,0.5,0.2,0.9,0.4c0.4,0.1,0.9,0.3,1.3,0.4c0.8,0.2,1.6,0.4,2.4,0.7
		c0.8,0.3,1.4,0.6,1.8,1l0.3,0.5c0.1,0.4,0.1,0.8,0.2,1.2s0.1,0.7,0.2,1.1c0.2,0.8,0.3,1.6,0.4,2.4c0.1,0.8,0.2,1.7,0.2,2.7
		c0.2,0.8,0.4,1.6,0.6,2.4c0.2,0.8,0.3,1.6,0.5,2.4c0.2,1.1,0.4,2.2,0.6,3.3c0.2,1,0.5,2,0.9,3c0.4,0,0.6,0,0.7,0.1
		c0.5-0.2,1-0.3,1.6-0.4l0.8-0.1l0.2,0.7c0.1,0.1,0.2,0.2,0.3,0.4s0.3,0.2,0.4,0.4c0.6,0,1.1,0.2,1.4,0.4c0.3,0.2,0.5,0.4,0.7,0.6
		c0.1,0.1,0.2,0.2,0.3,0.3c0.1,0.1,0.2,0.2,0.3,0.2l1.1,0.4l-0.6,1.1c-0.4,0.8-1.1,1.6-2,2.4c-0.9,0.8-1.9,1.4-3,1.9
		c0.1,0.3,0.1,0.5,0.1,0.8c0,0.2,0.1,0.5,0.1,0.8c0.2,0.8,0.3,1.6,0.4,2.4c0.1,0.8,0.1,1.7,0,2.6c-0.4,1-0.8,1.9-1.4,2.7
		c-0.5,0.8-1.2,1.5-1.9,2.2c-0.7,0.6-1.5,1.2-2.4,1.6c-0.9,0.4-1.8,0.6-2.8,0.7c-0.5-0.1-0.9-0.3-1.2-0.4c-0.3-0.2-0.5-0.3-0.7-0.5
		c-0.3-0.2-0.6-0.4-0.8-0.5l-0.8-0.4l0.2-0.9c0.1-0.3,0.1-0.6,0-0.8c-0.1-0.2-0.4-0.5-0.8-0.9c-0.2-0.1-0.3-0.2-0.4-0.4
		c-0.1-0.1-0.3-0.3-0.4-0.4l-1.2-1.3l1.9-0.5c1.2-0.3,2-0.7,2.3-1.2c0.4-0.5,0.5-1.4,0.5-2.6c-1-0.2-1.8-0.2-2.4-0.1
		c-0.6,0.1-1.3,0.3-1.9,0.4c-0.9,0.2-1.8,0.4-2.6,0.6c-0.9,0.2-1.8,0.3-2.8,0.3c-0.7,0-1.4-0.1-2.1-0.2l-0.6-0.1l-0.2-0.6
		c0-0.1,0-0.2-0.1-0.3c-0.1-0.1-0.2-0.2-0.3-0.3c-0.2-0.2-0.4-0.5-0.7-0.9c-0.3-0.4-0.3-0.9-0.2-1.5c-0.3-0.4-0.4-0.9-0.5-1.3
		c-0.2,0.3-0.3,0.6-0.4,0.9c-0.1,0.3-0.2,0.6-0.3,0.8l-0.2,0.8l-0.8,0.1c-0.1,0.1-0.1,0.2-0.2,0.4c-0.1,0.2-0.1,0.3,0,0.4l0.2,0.6
		l-0.6,0.5c-0.1,0.1-0.2,0.2-0.3,0.3c-0.1,0.1-0.2,0.2-0.3,0.2c-0.1,0.4-0.2,0.8-0.3,1.2c-0.1,0.4-0.3,0.8-0.4,1.2
		c-0.2,0.6-0.4,1.2-0.6,1.8s-0.3,1.2-0.3,1.8l-0.2,0.8c-0.2,0.3-0.4,0.5-0.7,0.7c-0.3,0.2-0.6,0.3-0.8,0.4c-0.4,0.2-0.7,0.3-0.8,0.5
		l-0.2,0.8l-0.9,0.1c-0.5,0.1-0.9,0.2-1.1,0.2c-0.2,0-0.5,0.1-0.7,0.1l-0.8-0.1c-0.5-0.5-0.8-0.8-1.1-1.1c-0.3-0.3-0.6-0.5-1-0.7
		l-0.4-0.5c-0.2-0.3-0.3-0.6-0.3-0.8c0-0.3-0.1-0.5-0.2-0.8c-0.1-0.5-0.2-0.9-0.4-1.1L157.1,334.5z M175.8,319.3
		c-0.5,0.8-1.1,1.6-1.6,2.5c0.3,0,0.5-0.1,0.8-0.1c0.3,0,0.5,0,0.8-0.1c1.4-0.1,2.6-0.2,3.8-0.3s2.4-0.3,3.8-0.6
		c-0.3-1.4-0.7-2.9-1-4.4c-0.4-1.5-0.8-3-1.2-4.5l-0.3,0.6c-1,1.1-1.9,2.2-2.8,3.4C177.2,317,176.5,318.1,175.8,319.3L175.8,319.3z"
		/>
	<path class="st1" d="M199.1,307c0-0.3-0.1-0.6-0.2-0.8c-0.1-0.3-0.2-0.5-0.3-0.8c-0.2-0.5-0.4-1-0.5-1.5c-0.2-0.5-0.2-1.2-0.2-1.9
		c0.1-0.4,0.2-0.7,0.3-0.8s0.2-0.3,0.4-0.4l0.2-1.1h0.9c0.3,0,0.6,0.1,1,0.1c0.3,0,0.7,0,1,0c1.5,0,3-0.1,4.6-0.2
		c1.6-0.1,3.2-0.3,4.8-0.4c1.8-0.2,3.7-0.4,5.8-0.5c0.2-0.4,0.3-0.7,0.4-0.8s0.1-0.3,0.2-0.4l0.6-0.4c0.9,0,1.5,0.1,1.9,0.3
		c0.4,0.3,0.6,0.5,0.8,0.7c1-0.1,2.1-0.2,3.1-0.3c1.1-0.1,2.1-0.3,3.3-0.4c1.6-0.2,3.1-0.4,4.7-0.6c1.6-0.2,3.2-0.3,4.7-0.3
		c0.7,0,1.3,0,1.9,0.1c0.6,0,1.2,0.1,1.7,0.2l0.7,0.5c0.2,0.3,0.4,0.5,0.6,0.8s0.5,0.5,0.8,0.7c0.6,0.5,1.2,1.1,1.7,1.8
		s0.8,1.7,0.6,3.1l-0.3,0.6c-0.2,0.2-0.4,0.3-0.6,0.5l-0.6,0.8h-0.6c-0.4,0-0.7,0-0.9,0.1s-0.4,0.1-0.7,0.3
		c-0.2,0.1-0.3,0.1-0.5,0.2s-0.4,0.1-0.6,0.2c-0.4,0-0.8-0.1-1-0.1s-0.5,0-0.8,0c-1.2,0-2.4,0.1-3.8,0.2c-1.4,0.2-2.7,0.3-4,0.5
		c-0.9,0.1-1.8,0.2-2.7,0.3c-0.9,0.1-1.6,0.2-2.3,0.3c-0.4,1-0.7,1.9-1.1,2.7c-0.3,0.8-0.6,1.6-1,2.3c-0.4,0.8-0.7,1.6-1,2.4
		c-0.3,0.8-0.6,1.7-0.9,2.7c-0.5,0.7-0.9,1.4-1.2,2s-0.6,1.4-0.8,2.2c-0.6,0.7-1,1.4-1.3,2.2c-0.3,0.8-0.5,1.4-0.7,2l-0.2,0.9
		c-0.3,0.3-0.4,0.5-0.5,0.6c-0.1,0.2-0.2,0.3-0.3,0.5c-0.1,0.5-0.3,1-0.5,1.5c-0.1,0.2-0.2,0.4-0.2,0.6c-0.1,0.2-0.1,0.4-0.1,0.5
		c-0.1,0.4-0.2,0.8-0.4,1c0,0.2,0,0.5-0.1,0.7s-0.1,0.5-0.1,0.7c-0.1,0.3-0.1,0.5-0.2,0.7c0,0.2,0,0.4,0.1,0.6
		c0.1,0.2,0.2,0.3,0.4,0.5c0.1,0.2,0.2,0.4,0.3,0.6c0.1,0.1,0.2,0.1,0.3,0.2c0.1,0,0.2,0.1,0.3,0.2c0.3,0.3,0.6,0.4,0.9,0.5l0.6,0.7
		c0.2,1.4,0,2.5-0.6,3.3c-0.7,0.9-1.9,1.3-3.5,1.3l-0.8-0.1c-0.3-0.3-0.4-0.4-0.5-0.5c-0.4-0.2-0.6-0.3-0.9-0.4
		c-0.2-0.1-0.4-0.3-0.6-0.6c-0.1-0.1-0.2-0.1-0.3-0.1c-0.1,0-0.2-0.1-0.3-0.1c-0.4-0.1-0.7-0.3-0.9-0.4l-0.6-0.4
		c0-0.4,0.1-0.7,0.1-0.8c-0.3-0.4-0.6-0.9-0.7-1.4c-0.2-0.5-0.3-1-0.4-1.6c-0.1-0.4-0.2-0.8-0.3-1.2c-0.1-0.4-0.2-0.7-0.4-0.9
		c-0.1-2.7,0.2-5,0.8-6.9c0.6-1.9,1.2-3.7,1.9-5.4c0.4-0.9,0.8-1.9,1.1-2.9c0.4-1,0.7-2,0.9-3l0.6-0.6c0.3-0.2,0.4-0.4,0.5-0.4
		c0-0.5,0.1-1,0.3-1.5c0.2-0.5,0.4-1,0.6-1.5c0.2-0.3,0.3-0.6,0.4-0.9c0.1-0.3,0.2-0.6,0.3-0.8c-0.3,0-0.5,0-0.7,0
		c-0.2,0-0.4,0-0.7,0.1c-0.5,0.1-1,0.2-1.5,0.2c-0.4,0-0.6,0-0.8-0.1c-0.3,0.2-0.6,0.2-0.9,0.3c-0.3,0-0.5,0-0.8,0h-0.7h-0.7
		c-0.5,0-0.8,0.1-1.1,0.2c-0.5,0-0.9,0-1.1,0c-0.2,0-0.3,0-0.5,0h-0.7h-0.7c-0.3,0-0.7,0-1.1-0.1c-0.4-0.1-0.8-0.2-1.2-0.4l-0.4-0.5
		c-0.2-0.4-0.4-0.7-0.6-0.7l-0.6-0.2V307z"/>
	<path class="st1" d="M246.6,340.3c-1.7,0.2-3.3,0.2-4.7-0.2s-2.7-1-3.8-1.8s-2.1-1.8-2.9-2.9c-0.8-1.1-1.5-2.3-2-3.6
		c-0.4-2.7-0.3-5.1,0.3-7.2s1.3-4.2,2.4-6c1.1-1.8,2.3-3.6,3.6-5.2c1.3-1.6,2.6-3.1,3.9-4.6c0.3,0.1,0.5,0.1,0.7,0s0.3-0.3,0.5-0.5
		c0.1-0.2,0.3-0.4,0.5-0.6c0.2-0.2,0.4-0.3,0.6-0.4c0.2-0.4,0.4-0.6,0.6-0.9s0.5-0.5,0.8-0.7c0.3-0.2,0.6-0.4,0.8-0.7
		s0.5-0.5,0.7-0.9c0.4-0.1,0.7-0.2,1-0.4c0.3-0.2,0.6-0.4,0.8-0.6s0.5-0.4,0.8-0.6c0.3-0.2,0.6-0.4,1-0.5v-0.8
		c0.9-0.4,1.5-0.8,1.9-1.3s0.9-1.1,1.4-1.8c0.4,0,0.8-0.1,1-0.1s0.7,0,1.2-0.1c0.4-0.7,0.7-1.2,1-1.5c0.3-0.3,0.8-0.7,1.3-1.1
		c0.6,0.3,1.2,0.5,1.9,0.6s1.3,0.4,1.8,0.9c0,0.5,0.2,0.8,0.4,1.1c0.2,0.3,0.5,0.5,0.8,0.7c0.3,0.2,0.5,0.4,0.8,0.7s0.4,0.6,0.5,1
		c0.2,0,0.3,0,0.4-0.1c0.1-0.1,0.2-0.1,0.4-0.1c0.1,0.3,0.2,0.6,0.2,0.8c0.1,0.2,0.2,0.4,0.3,0.5c0.1,0.2,0.2,0.3,0.3,0.5
		c0.1,0.2,0.2,0.4,0.3,0.7c-0.2,0.5-0.4,1-0.5,1.5s-0.5,0.9-0.9,1.1c0,0.3,0.1,0.5,0.4,0.5c0.2,0,0.4,0.2,0.4,0.4
		c0,0.4,0,0.6-0.2,0.9c1.1,1.8,2.1,3.8,3,5.8c0.9,2,1.9,3.9,3,5.8c-0.1,0.5,0,1.1,0.1,1.6s0.3,1,0.5,1.6c0.2,0.5,0.4,1,0.6,1.5
		c0.2,0.5,0.3,1,0.4,1.5c0.1,0.7,0.1,1.4,0,2.1s-0.2,1.5-0.5,2.2s-0.5,1.4-0.9,2c-0.4,0.6-0.8,1.1-1.3,1.4c-0.6,0.8-1.4,1.4-2.3,1.9
		c-0.9,0.5-1.8,1.1-2.6,1.7c-0.5,0.3-1.1,0.5-1.8,0.7c-0.6,0.1-1.3,0.3-1.9,0.4c-0.5,0.3-1.1,0.6-1.8,0.9s-1.4,0.6-2.2,0.8
		s-1.5,0.4-2.2,0.6c-0.7,0.1-1.4,0.2-2,0.1c-1.4,0.5-2.8,0.9-4.1,1.1C249.9,340.8,248.4,340.7,246.6,340.3z M247.3,319
		c-0.4,0.9-0.8,1.7-1.4,2.4c-0.5,0.7-1,1.5-1.6,2.2c-0.5,0.7-0.9,1.5-1.3,2.4c-0.4,0.8-0.6,1.8-0.6,3c0.8,0.7,1.7,1.1,2.8,1.2
		c1.1,0.1,2.2,0.2,3.3,0.1c1.1-0.1,2.3-0.2,3.4-0.4c1.1-0.2,2.1-0.3,3-0.3c0-0.4,0.2-0.5,0.5-0.5c1.6-0.2,3.2-0.6,4.6-1.4
		s2.9-1.5,4.4-2.3c0.2-0.5,0.4-0.9,0.8-1.2s0.5-0.9,0.5-1.5c-0.2-0.4-0.3-0.6-0.4-0.9s-0.1-0.6-0.1-1.1c-1-1.4-1.9-2.9-2.6-4.6
		c-0.7-1.7-1.6-3.2-2.6-4.7c-0.1,0.2-0.2,0.4-0.5,0.6c-0.2,0.2-0.5,0.2-0.8-0.1c-0.1,0.4-0.3,0.7-0.5,0.8c-0.2,0.1-0.5,0.2-0.8,0.2
		s-0.6-0.1-0.9-0.2s-0.6-0.3-0.8-0.5c-1.4,1.1-2.7,2.1-4.1,3.2c-1.3,1-2.6,2.2-3.7,3.6c-0.2,0.1-0.3,0.2-0.4,0.1
		C247.7,318.9,247.6,318.9,247.3,319z"/>
	<path class="st1" d="M278.7,335c-0.2,0-0.4-0.1-0.5-0.4c-0.2-0.3-0.3-0.7-0.5-1h0.6c-0.3-0.9-0.3-1.6-0.2-2.4
		c0.1-0.7,0.3-1.4,0.5-2.1c0.2-0.7,0.4-1.3,0.5-2s0.1-1.3-0.2-2c0.2,0.1,0.3,0.1,0.4-0.1c0.1-0.2,0.2-0.5,0.2-0.8
		c0.1-0.3,0.1-0.7,0.1-1.1c0-0.4,0-0.7-0.1-0.9c0.5-1.2,0.9-2.5,1.2-3.8s0.6-2.6,0.8-3.8c0.2-1.3,0.5-2.5,0.8-3.7
		c0.3-1.2,0.7-2.3,1.1-3.4c0.5-0.1,1.1,0,1.7,0.2c0.6,0.2,1,0.5,1.2,0.8c1.2-0.9,2.3-2.1,3.2-3.4c0.9-1.3,1.9-2.6,2.8-3.9
		c1-1.3,2-2.4,3.3-3.4c1.2-1,2.7-1.6,4.5-1.8c0.9,0.7,2,1.4,3.2,2.1s2.1,1.7,2.9,2.8c0.3,0.2,0.6,0.4,0.9,0.6
		c0.3,0.2,0.6,0.4,0.9,0.6v0.9c0.5,0.5,1,1.1,1.4,1.8c0.4,0.7,0.7,1.4,1,2.2s0.6,1.5,0.8,2.3c0.3,0.8,0.6,1.5,0.9,2.2
		c-0.1,0.2-0.1,0.4-0.1,0.6s0.1,0.4,0.1,0.5s0.1,0.4,0.1,0.6c0,0.2,0.1,0.5,0.1,0.8c-0.2,2.1-0.8,3.7-2,5c-1.2,1.3-2.6,2.3-4.3,3.1
		c-1.7,0.8-3.5,1.5-5.4,2.1c-1.9,0.6-3.7,1.2-5.2,1.8c0,0.2,0.1,0.2,0.3,0.2s0.2,0.1,0.1,0.4c1.2,0.7,2.1,1.3,2.7,1.7
		c0.6,0.4,1.2,0.8,1.8,1.1s1.2,0.5,1.9,0.7c0.7,0.2,1.6,0.4,2.8,0.7c1.2,0.3,2.2,0.5,2.8,0.7s1.3,0.3,1.8,0.4
		c0.5,0.1,1.1,0.2,1.8,0.3c0.6,0.1,1.5,0.2,2.5,0.3c0.4,0.4,0.8,0.9,1.1,1.5s0.5,1.2,0.6,1.8s0.1,1.1,0.1,1.7s-0.2,0.9-0.5,1.3
		c0,0.2,0.1,0.2,0.3,0.2c0.2,0,0.4,0,0.6,0c-0.3,0.2-0.5,0.4-0.7,0.7c-0.2,0.3-0.4,0.5-0.6,0.8c-0.2,0.3-0.4,0.5-0.7,0.8
		s-0.6,0.4-1,0.4c-1.4,0.5-3.2,0.6-5.4,0.1c-2.2-0.5-5-1.4-8.4-2.7c-1.7-0.6-3-1.2-4.1-1.7c-1.1-0.5-2-1-2.8-1.5
		c-0.8-0.5-1.5-1-2.2-1.6c-0.7-0.6-1.4-1.2-2.3-2c-0.1,0-0.2,0.1-0.2,0.2s-0.1,0.2-0.2,0.2c-0.2,1.6-0.5,2.8-0.9,3.8
		c-0.4,1-1,2-1.8,3c-0.6-0.1-1-0.1-1.3,0.2s-0.5,0.4-0.8,0.6c-0.4,0.1-0.7,0.1-0.9,0c-0.2-0.1-0.4-0.2-0.5-0.3s-0.3-0.2-0.5-0.4
		s-0.5-0.2-0.9-0.1c-0.1-0.4-0.2-0.7-0.4-1c-0.1-0.3-0.4-0.5-0.9-0.4c0.1-0.4,0.2-0.7,0.1-0.9c0-0.3-0.1-0.5-0.2-0.7
		c-0.1-0.2-0.1-0.4-0.2-0.7S278.6,335.3,278.7,335z M298.3,308.3c-0.5,0.7-1.1,1.4-1.7,2c-0.6,0.6-1.2,1.2-1.8,1.9s-1.1,1.3-1.6,2.1
		s-0.8,1.7-1,2.7c1.6-0.2,3.4-0.7,5.2-1.4c1.8-0.7,3.5-1.4,5.1-2.1c-0.2-1.4-0.7-2.6-1.5-3.5S299.2,308.6,298.3,308.3z"/>
	<path class="st1" d="M316.6,313.6c0.1-0.6,0.2-1.1,0.2-1.4c0-0.4-0.1-0.8-0.4-1.2c0.2-0.6,0.3-1.1,0.4-1.5s0.1-0.8,0-1.5
		c0.4-1,0.9-1.9,1.6-2.6s1.5-1.3,2.4-1.8c0.9-0.5,1.8-0.9,2.7-1.2c0.9-0.3,1.8-0.6,2.6-0.8c0-0.2-0.1-0.2-0.2-0.2s-0.2-0.1-0.1-0.3
		c2.1-0.4,4.2-1,6.4-1.7c2.1-0.7,4.3-1.4,6.5-2s4.5-0.9,6.9-1.1c2.3-0.1,4.8,0.2,7.4,0.9c0.2,0.5,0.4,0.9,0.6,1.3
		c0.3,0.4,0.6,0.8,0.8,1.3s0.6,0.8,0.8,1.2c0.2,0.4,0.4,0.8,0.4,1.2c0.5,0.4,0.8,0.9,1.1,1.4c0.3,0.5,0.3,1.1,0.1,2
		c-0.4,0.3-0.9,0.6-1.3,0.9c-0.5,0.3-1,0.6-1.5,0.9c-1.8-0.4-3.5-0.6-5.3-0.5s-3.3,0.3-4.7,0.4c-0.4-0.5-0.9-0.7-1.5-0.7
		c-0.6,0-1.2,0.1-1.8,0.3s-1.3,0.4-1.9,0.5s-1.2,0.2-1.8,0.1c-0.4,0.4-1,0.7-1.7,0.8c-0.7,0.1-1.4,0.2-2.2,0.3c0,0.2,0,0.3,0.1,0.4
		c0.1,0.1,0.1,0.2,0.1,0.5c0.3,0.4,0.6,0.6,1.1,0.7c0.5,0.1,0.9,0.3,1.4,0.4s0.9,0.3,1.3,0.5c0.4,0.2,0.6,0.6,0.8,1
		c0.7,0,1.3,0.2,1.8,0.6c0.5,0.3,0.9,0.7,1.3,1.2s0.6,1,0.8,1.5s0.2,1,0.2,1.4c0.2,0.4,0.3,0.5,0.5,0.5c0.2-0.1,0.4,0,0.6,0.3
		c0.2,0.6,0.5,1.2,1.1,1.8c0.6,0.6,1,1.3,1.3,2.1c0.1,1.2,0.1,2.2,0.2,3.2s-0.1,1.9-0.5,2.8c-0.7,1.7-1.6,3.3-2.9,4.6
		c-1.2,1.4-2.7,2.6-4.2,3.6c-1.6,1-3.3,1.9-5,2.7s-3.5,1.4-5.2,1.9c-0.2,0-0.3,0-0.6,0c-0.2,0-0.3-0.1-0.1-0.4
		c-0.4,0.3-0.8,0.5-1.2,0.6c-0.4,0.1-0.9,0.1-1.5,0.1c-0.5,0-1.1,0-1.6-0.1c-0.5,0-1,0-1.6,0.1c-0.3-0.3-0.6-0.6-0.8-0.9
		s-0.5-0.7-0.6-1.1c-0.2,0-0.3-0.2-0.3-0.4c0-0.2-0.1-0.3-0.3-0.3c0-0.2,0-0.3,0.1-0.4c0-0.1,0.1-0.2,0.1-0.2
		c0.2-0.1,0.2-0.2,0.2-0.3s-0.1-0.1-0.2-0.2s-0.2-0.1-0.3-0.2c-0.1-0.1-0.1-0.2-0.1-0.3c0.2-0.4,0.3-0.8,0.2-1.3
		c-0.1-0.5-0.1-1-0.1-1.5c0-0.5,0-1,0.1-1.4c0.1-0.4,0.4-0.8,1-1.1c1.6,0.2,3.1,0.1,4.5-0.2c1.4-0.3,2.8-0.7,4-1.3
		c1.3-0.5,2.5-1.1,3.6-1.8s2.3-1.2,3.4-1.8c0.1-0.4,0.3-0.7,0.6-1c0.3-0.3,0.5-0.5,0.8-0.8c0.3-0.3,0.5-0.5,0.8-0.8s0.4-0.7,0.5-1.1
		c0-0.2,0-0.3,0-0.4c0-0.1-0.1-0.1-0.2-0.2s-0.2-0.1-0.2-0.2c-0.1-0.1-0.1-0.2-0.1-0.4c-0.1,0-0.2-0.1-0.3-0.1
		c-0.1,0-0.2-0.1-0.3-0.1c-1-0.5-2.1-0.9-3.2-1.3s-2.1-0.7-2.9-1.2c-0.5,0.3-0.9,0.4-1.4,0.2c-0.5-0.2-1-0.3-1.7-0.5
		c-1.6-0.1-3.2-0.2-4.7-0.5s-2.9-0.6-4.2-1.2c-0.1-0.2-0.2-0.4-0.3-0.6s-0.4-0.2-0.8-0.1c-0.3-0.4-0.6-0.8-0.8-1.1
		C317.1,314.5,316.9,314.1,316.6,313.6z"/>
</g>
<ellipse class="st2" cx="198.7" cy="243.3" rx="109" ry="33"/>
<path class="st3" d="M308.7,245.3l-4-9l-258-214l44,223c-0.2,0.4-1.9-35.2,109-33C310.7,214.5,309.4,246.7,308.7,245.3z"/>
<g class="st4">
	<path class="st1" d="M175.7,361.8c0,1.1-0.2,2.1-0.5,3s-0.8,1.6-1.4,2.2c-0.6,0.6-1.3,1.1-2.1,1.4c-0.8,0.3-1.7,0.5-2.7,0.5h-5.2
		v-14.2h5.2c1,0,1.9,0.2,2.7,0.5c0.8,0.3,1.5,0.8,2.1,1.4c0.6,0.6,1.1,1.4,1.4,2.2C175.5,359.8,175.7,360.8,175.7,361.8z
		 M174.6,361.8c0-1-0.1-1.9-0.4-2.6s-0.7-1.4-1.2-2s-1.1-0.9-1.8-1.2c-0.7-0.3-1.5-0.4-2.3-0.4h-4.1v12.5h4.1c0.8,0,1.6-0.1,2.3-0.4
		c0.7-0.3,1.3-0.7,1.8-1.2s0.9-1.2,1.2-2S174.6,362.8,174.6,361.8z"/>
	<path class="st1" d="M179.7,355.5c0,0.1,0,0.2-0.1,0.3c-0.1,0.1-0.1,0.2-0.2,0.3c-0.1,0.1-0.2,0.1-0.3,0.2c-0.1,0-0.2,0.1-0.3,0.1
		c-0.1,0-0.2,0-0.3-0.1s-0.2-0.1-0.3-0.2c-0.1-0.1-0.1-0.2-0.2-0.3c0-0.1-0.1-0.2-0.1-0.3s0-0.2,0.1-0.3c0-0.1,0.1-0.2,0.2-0.3
		s0.2-0.1,0.3-0.2c0.1,0,0.2-0.1,0.3-0.1c0.1,0,0.2,0,0.3,0.1c0.1,0,0.2,0.1,0.3,0.2s0.1,0.2,0.2,0.3
		C179.7,355.3,179.7,355.4,179.7,355.5z M179.3,359v10h-1v-10H179.3z"/>
	<path class="st1" d="M188.2,360.2c-0.1,0.1-0.1,0.1-0.2,0.1c-0.1,0-0.2,0-0.3-0.1c-0.1-0.1-0.3-0.2-0.5-0.3
		c-0.2-0.1-0.4-0.2-0.7-0.3c-0.3-0.1-0.6-0.1-1-0.1c-0.4,0-0.7,0.1-1,0.2c-0.3,0.1-0.6,0.2-0.8,0.4c-0.2,0.2-0.4,0.4-0.5,0.6
		c-0.1,0.2-0.2,0.5-0.2,0.7c0,0.3,0.1,0.6,0.2,0.8c0.2,0.2,0.4,0.4,0.6,0.5c0.3,0.1,0.6,0.3,0.9,0.4s0.7,0.2,1,0.3
		c0.3,0.1,0.7,0.2,1,0.4c0.3,0.1,0.6,0.3,0.9,0.5c0.3,0.2,0.5,0.4,0.6,0.7c0.2,0.3,0.2,0.6,0.2,1c0,0.4-0.1,0.8-0.2,1.2
		c-0.2,0.4-0.4,0.7-0.7,1c-0.3,0.3-0.7,0.5-1.1,0.7c-0.4,0.2-0.9,0.2-1.5,0.2c-0.7,0-1.3-0.1-1.8-0.3c-0.5-0.2-1-0.5-1.4-0.9
		l0.2-0.3c0-0.1,0.1-0.1,0.1-0.1c0,0,0.1,0,0.2,0c0.1,0,0.2,0.1,0.3,0.2c0.1,0.1,0.3,0.2,0.5,0.3s0.5,0.2,0.8,0.3
		c0.3,0.1,0.7,0.2,1.1,0.2c0.4,0,0.8-0.1,1.1-0.2c0.3-0.1,0.6-0.3,0.8-0.5c0.2-0.2,0.4-0.4,0.5-0.7c0.1-0.3,0.2-0.6,0.2-0.9
		c0-0.3-0.1-0.6-0.2-0.8s-0.4-0.4-0.6-0.6c-0.3-0.2-0.6-0.3-0.9-0.4c-0.3-0.1-0.7-0.2-1-0.3c-0.3-0.1-0.7-0.2-1-0.4
		c-0.3-0.1-0.6-0.3-0.9-0.5c-0.3-0.2-0.5-0.4-0.6-0.7c-0.2-0.3-0.2-0.6-0.2-1c0-0.4,0.1-0.7,0.2-1c0.2-0.3,0.4-0.6,0.7-0.9
		c0.3-0.2,0.6-0.4,1-0.6s0.9-0.2,1.4-0.2c0.6,0,1.1,0.1,1.6,0.3c0.5,0.2,0.9,0.4,1.3,0.8L188.2,360.2z"/>
	<path class="st1" d="M197.9,360.3C197.9,360.3,197.9,360.4,197.9,360.3c-0.1,0.1-0.2,0.1-0.2,0.1c-0.1,0-0.2,0-0.3-0.1
		s-0.3-0.2-0.5-0.3s-0.4-0.2-0.7-0.3c-0.3-0.1-0.6-0.1-1.1-0.1c-0.6,0-1.1,0.1-1.5,0.3c-0.4,0.2-0.8,0.5-1.1,0.9
		c-0.3,0.4-0.5,0.8-0.7,1.4s-0.2,1.1-0.2,1.8c0,0.7,0.1,1.3,0.2,1.9c0.2,0.5,0.4,1,0.7,1.4s0.7,0.7,1.1,0.8s0.9,0.3,1.4,0.3
		c0.5,0,0.9-0.1,1.2-0.2s0.6-0.2,0.8-0.4c0.2-0.1,0.4-0.3,0.5-0.4c0.1-0.1,0.2-0.2,0.3-0.2s0.1,0,0.2,0.1l0.2,0.3
		c-0.2,0.2-0.3,0.4-0.6,0.6c-0.2,0.2-0.5,0.3-0.8,0.5c-0.3,0.1-0.6,0.2-1,0.3c-0.3,0.1-0.7,0.1-1.1,0.1c-0.6,0-1.2-0.1-1.7-0.3
		c-0.5-0.2-1-0.6-1.4-1s-0.7-1-0.9-1.6c-0.2-0.6-0.3-1.4-0.3-2.2c0-0.8,0.1-1.5,0.3-2.1c0.2-0.6,0.5-1.2,0.9-1.6
		c0.4-0.5,0.9-0.8,1.4-1.1s1.2-0.4,1.9-0.4c0.6,0,1.2,0.1,1.7,0.3c0.5,0.2,0.9,0.5,1.3,0.8L197.9,360.3z"/>
	<path class="st1" d="M204.4,358.8c0.7,0,1.4,0.1,1.9,0.4c0.6,0.2,1,0.6,1.4,1s0.7,1,0.9,1.6c0.2,0.6,0.3,1.3,0.3,2.1
		c0,0.8-0.1,1.5-0.3,2.1c-0.2,0.6-0.5,1.2-0.9,1.6c-0.4,0.4-0.9,0.8-1.4,1c-0.6,0.2-1.2,0.4-1.9,0.4s-1.4-0.1-1.9-0.4
		c-0.6-0.2-1-0.6-1.4-1c-0.4-0.4-0.7-1-0.9-1.6c-0.2-0.6-0.3-1.3-0.3-2.1c0-0.8,0.1-1.5,0.3-2.1c0.2-0.6,0.5-1.2,0.9-1.6
		c0.4-0.4,0.9-0.8,1.4-1S203.7,358.8,204.4,358.8z M204.4,368.3c0.6,0,1.1-0.1,1.6-0.3s0.8-0.5,1.1-0.9c0.3-0.4,0.5-0.8,0.7-1.4
		c0.1-0.5,0.2-1.1,0.2-1.8c0-0.7-0.1-1.3-0.2-1.8c-0.1-0.5-0.4-1-0.7-1.4c-0.3-0.4-0.7-0.7-1.1-0.9c-0.4-0.2-1-0.3-1.6-0.3
		c-0.6,0-1.1,0.1-1.6,0.3c-0.4,0.2-0.8,0.5-1.1,0.9c-0.3,0.4-0.5,0.8-0.7,1.4s-0.2,1.1-0.2,1.8c0,0.7,0.1,1.3,0.2,1.8
		c0.1,0.5,0.4,1,0.7,1.4c0.3,0.4,0.7,0.7,1.1,0.9S203.8,368.3,204.4,368.3z"/>
	<path class="st1" d="M219.4,359l-4.2,10h-0.8l-4.2-10h0.8c0.1,0,0.2,0,0.2,0.1c0.1,0,0.1,0.1,0.1,0.2l3.3,7.8
		c0.1,0.3,0.2,0.6,0.2,0.9c0.1-0.3,0.1-0.6,0.2-0.9l3.3-7.8c0-0.1,0.1-0.1,0.1-0.2c0.1,0,0.1-0.1,0.2-0.1H219.4z"/>
	<path class="st1" d="M221.5,363.6v0.2c0,0.7,0.1,1.4,0.3,2c0.2,0.6,0.4,1,0.7,1.4c0.3,0.4,0.7,0.7,1.2,0.9s1,0.3,1.5,0.3
		c0.5,0,0.9-0.1,1.3-0.2c0.4-0.1,0.7-0.2,0.9-0.4s0.4-0.3,0.6-0.4c0.1-0.1,0.3-0.2,0.3-0.2c0.1,0,0.2,0,0.2,0.1l0.3,0.3
		c-0.2,0.2-0.4,0.4-0.6,0.6c-0.3,0.2-0.6,0.3-0.9,0.4c-0.3,0.1-0.7,0.2-1,0.3c-0.4,0.1-0.7,0.1-1.1,0.1c-0.7,0-1.3-0.1-1.9-0.4
		c-0.6-0.2-1-0.6-1.4-1c-0.4-0.5-0.7-1-0.9-1.7c-0.2-0.7-0.3-1.4-0.3-2.3c0-0.7,0.1-1.4,0.3-2c0.2-0.6,0.5-1.1,0.9-1.6
		c0.4-0.4,0.9-0.8,1.4-1c0.6-0.2,1.2-0.4,1.9-0.4c0.6,0,1.1,0.1,1.6,0.3c0.5,0.2,0.9,0.5,1.2,0.8c0.4,0.4,0.6,0.8,0.8,1.4
		s0.3,1.2,0.3,1.9c0,0.1,0,0.2-0.1,0.3c0,0.1-0.1,0.1-0.2,0.1H221.5z M228.2,362.9c0-0.5-0.1-1-0.2-1.4c-0.1-0.4-0.4-0.8-0.6-1.1
		c-0.3-0.3-0.6-0.5-1-0.7c-0.4-0.2-0.8-0.2-1.2-0.2c-0.5,0-1,0.1-1.4,0.2c-0.4,0.2-0.8,0.4-1.1,0.7s-0.5,0.7-0.7,1.1
		s-0.3,0.9-0.4,1.4H228.2z"/>
	<path class="st1" d="M232.5,361.4c0.2-0.4,0.3-0.8,0.5-1.1c0.2-0.3,0.4-0.6,0.7-0.8c0.3-0.2,0.5-0.4,0.9-0.5
		c0.3-0.1,0.7-0.2,1.1-0.2c0.2,0,0.4,0,0.6,0.1c0.2,0,0.4,0.1,0.5,0.2l-0.1,0.7c0,0.1-0.1,0.2-0.2,0.2c-0.1,0-0.2,0-0.4-0.1
		s-0.4-0.1-0.6-0.1c-0.4,0-0.7,0.1-1,0.2c-0.3,0.1-0.6,0.3-0.8,0.5c-0.2,0.2-0.4,0.5-0.6,0.9s-0.3,0.7-0.5,1.2v6.4h-1v-10h0.5
		c0.1,0,0.2,0,0.2,0.1s0.1,0.1,0.1,0.2L232.5,361.4z"/>
	<path class="st1" d="M244.6,360.7c0.5-0.6,1-1,1.6-1.4c0.6-0.3,1.3-0.5,2-0.5c0.5,0,1,0.1,1.4,0.3c0.4,0.2,0.8,0.4,1,0.8
		c0.3,0.3,0.5,0.7,0.6,1.2c0.1,0.5,0.2,1,0.2,1.6v6.4h-1v-6.4c0-0.9-0.2-1.7-0.6-2.2c-0.4-0.5-1.1-0.8-2-0.8c-0.6,0-1.3,0.2-1.8,0.5
		c-0.6,0.3-1.1,0.8-1.5,1.4v7.5h-1v-10h0.5c0.2,0,0.3,0.1,0.3,0.2L244.6,360.7z"/>
	<path class="st1" d="M255,363.6v0.2c0,0.7,0.1,1.4,0.3,2c0.2,0.6,0.4,1,0.7,1.4c0.3,0.4,0.7,0.7,1.2,0.9s1,0.3,1.5,0.3
		c0.5,0,0.9-0.1,1.3-0.2c0.4-0.1,0.7-0.2,0.9-0.4s0.4-0.3,0.6-0.4c0.1-0.1,0.3-0.2,0.3-0.2c0.1,0,0.2,0,0.2,0.1l0.3,0.3
		c-0.2,0.2-0.4,0.4-0.6,0.6c-0.3,0.2-0.6,0.3-0.9,0.4c-0.3,0.1-0.7,0.2-1,0.3c-0.4,0.1-0.7,0.1-1.1,0.1c-0.7,0-1.3-0.1-1.9-0.4
		c-0.6-0.2-1-0.6-1.4-1c-0.4-0.5-0.7-1-0.9-1.7c-0.2-0.7-0.3-1.4-0.3-2.3c0-0.7,0.1-1.4,0.3-2c0.2-0.6,0.5-1.1,0.9-1.6
		c0.4-0.4,0.9-0.8,1.4-1c0.6-0.2,1.2-0.4,1.9-0.4c0.6,0,1.1,0.1,1.6,0.3c0.5,0.2,0.9,0.5,1.2,0.8c0.4,0.4,0.6,0.8,0.8,1.4
		s0.3,1.2,0.3,1.9c0,0.1,0,0.2-0.1,0.3c0,0.1-0.1,0.1-0.2,0.1H255z M261.7,362.9c0-0.5-0.1-1-0.2-1.4c-0.1-0.4-0.4-0.8-0.6-1.1
		c-0.3-0.3-0.6-0.5-1-0.7c-0.4-0.2-0.8-0.2-1.2-0.2c-0.5,0-1,0.1-1.4,0.2c-0.4,0.2-0.8,0.4-1.1,0.7s-0.5,0.7-0.7,1.1
		s-0.3,0.9-0.4,1.4H261.7z"/>
	<path class="st1" d="M278.2,359l-3.3,10h-0.7c-0.1,0-0.2-0.1-0.2-0.2l-2.7-8.1c0-0.1-0.1-0.2-0.1-0.3c0-0.1-0.1-0.2-0.1-0.3
		c0,0.2-0.1,0.4-0.2,0.6l-2.8,8.1c0,0.1-0.1,0.2-0.2,0.2h-0.7l-3.3-10h0.7c0.1,0,0.2,0,0.2,0.1s0.1,0.1,0.1,0.2l2.5,7.8
		c0,0.2,0.1,0.3,0.1,0.4s0.1,0.3,0.1,0.4c0-0.1,0.1-0.3,0.1-0.4s0.1-0.3,0.1-0.4l2.7-7.9c0-0.1,0.1-0.2,0.3-0.2h0.4
		c0.1,0,0.2,0.1,0.3,0.2l2.6,7.9c0,0.2,0.1,0.3,0.1,0.4s0.1,0.3,0.1,0.4c0-0.1,0.1-0.3,0.1-0.4s0.1-0.3,0.1-0.4l2.5-7.8
		c0-0.1,0.1-0.1,0.1-0.2c0.1,0,0.1-0.1,0.2-0.1H278.2z"/>
	<path class="st1" d="M292,360.3C292,360.3,292,360.4,292,360.3c-0.1,0.1-0.2,0.1-0.2,0.1c-0.1,0-0.2,0-0.3-0.1s-0.3-0.2-0.5-0.3
		s-0.4-0.2-0.7-0.3c-0.3-0.1-0.6-0.1-1.1-0.1c-0.6,0-1.1,0.1-1.5,0.3c-0.4,0.2-0.8,0.5-1.1,0.9c-0.3,0.4-0.5,0.8-0.7,1.4
		c-0.2,0.5-0.2,1.1-0.2,1.8c0,0.7,0.1,1.3,0.2,1.9s0.4,1,0.7,1.4s0.7,0.7,1.1,0.8s0.9,0.3,1.4,0.3c0.5,0,0.9-0.1,1.2-0.2
		s0.6-0.2,0.8-0.4c0.2-0.1,0.4-0.3,0.5-0.4s0.2-0.2,0.3-0.2s0.1,0,0.2,0.1l0.2,0.3c-0.2,0.2-0.3,0.4-0.6,0.6
		c-0.2,0.2-0.5,0.3-0.8,0.5c-0.3,0.1-0.6,0.2-1,0.3c-0.3,0.1-0.7,0.1-1.1,0.1c-0.6,0-1.2-0.1-1.7-0.3c-0.5-0.2-1-0.6-1.4-1
		c-0.4-0.4-0.7-1-0.9-1.6c-0.2-0.6-0.3-1.4-0.3-2.2c0-0.8,0.1-1.5,0.3-2.1c0.2-0.6,0.5-1.2,0.9-1.6s0.9-0.8,1.4-1.1s1.2-0.4,1.9-0.4
		c0.6,0,1.2,0.1,1.7,0.3c0.5,0.2,0.9,0.5,1.3,0.8L292,360.3z"/>
	<path class="st1" d="M295.7,361.4c0.2-0.4,0.3-0.8,0.5-1.1c0.2-0.3,0.4-0.6,0.7-0.8c0.3-0.2,0.5-0.4,0.9-0.5
		c0.3-0.1,0.7-0.2,1.1-0.2c0.2,0,0.4,0,0.6,0.1c0.2,0,0.4,0.1,0.5,0.2l-0.1,0.7c0,0.1-0.1,0.2-0.2,0.2c-0.1,0-0.2,0-0.4-0.1
		s-0.4-0.1-0.6-0.1c-0.4,0-0.7,0.1-1,0.2c-0.3,0.1-0.6,0.3-0.8,0.5c-0.2,0.2-0.4,0.5-0.6,0.9s-0.3,0.7-0.5,1.2v6.4h-1v-10h0.5
		c0.1,0,0.2,0,0.2,0.1s0.1,0.1,0.1,0.2L295.7,361.4z"/>
	<path class="st1" d="M301.6,363.6v0.2c0,0.7,0.1,1.4,0.3,2c0.2,0.6,0.4,1,0.7,1.4c0.3,0.4,0.7,0.7,1.2,0.9s1,0.3,1.5,0.3
		c0.5,0,0.9-0.1,1.3-0.2c0.4-0.1,0.7-0.2,0.9-0.4s0.4-0.3,0.6-0.4c0.1-0.1,0.3-0.2,0.3-0.2c0.1,0,0.2,0,0.2,0.1l0.3,0.3
		c-0.2,0.2-0.4,0.4-0.6,0.6c-0.3,0.2-0.6,0.3-0.9,0.4c-0.3,0.1-0.7,0.2-1,0.3c-0.4,0.1-0.7,0.1-1.1,0.1c-0.7,0-1.3-0.1-1.9-0.4
		c-0.6-0.2-1-0.6-1.4-1c-0.4-0.5-0.7-1-0.9-1.7c-0.2-0.7-0.3-1.4-0.3-2.3c0-0.7,0.1-1.4,0.3-2c0.2-0.6,0.5-1.1,0.9-1.6
		c0.4-0.4,0.9-0.8,1.4-1c0.6-0.2,1.2-0.4,1.9-0.4c0.6,0,1.1,0.1,1.6,0.3c0.5,0.2,0.9,0.5,1.2,0.8c0.4,0.4,0.6,0.8,0.8,1.4
		s0.3,1.2,0.3,1.9c0,0.1,0,0.2-0.1,0.3c0,0.1-0.1,0.1-0.2,0.1H301.6z M308.3,362.9c0-0.5-0.1-1-0.2-1.4c-0.1-0.4-0.4-0.8-0.6-1.1
		c-0.3-0.3-0.6-0.5-1-0.7c-0.4-0.2-0.8-0.2-1.2-0.2c-0.5,0-1,0.1-1.4,0.2c-0.4,0.2-0.8,0.4-1.1,0.7s-0.5,0.7-0.7,1.1
		s-0.3,0.9-0.4,1.4H308.3z"/>
	<path class="st1" d="M311.4,360.4c0.5-0.5,1.1-0.9,1.6-1.2s1.2-0.4,2-0.4c0.5,0,1,0.1,1.4,0.3c0.4,0.2,0.7,0.4,1,0.7
		s0.5,0.7,0.6,1.1c0.1,0.5,0.2,1,0.2,1.5v6.5h-0.4c-0.2,0-0.3-0.1-0.4-0.3l-0.1-1.3c-0.3,0.3-0.5,0.5-0.8,0.7
		c-0.3,0.2-0.6,0.4-0.8,0.5c-0.3,0.1-0.6,0.3-1,0.3s-0.7,0.1-1.1,0.1c-0.3,0-0.7,0-1-0.2c-0.3-0.1-0.6-0.3-0.9-0.5
		c-0.2-0.2-0.5-0.5-0.6-0.8c-0.2-0.3-0.2-0.7-0.2-1.2c0-0.4,0.1-0.8,0.4-1.2s0.6-0.7,1.1-0.9s1.2-0.5,2-0.6c0.8-0.2,1.8-0.3,2.9-0.3
		v-1c0-0.9-0.2-1.6-0.6-2.1c-0.4-0.5-1-0.7-1.8-0.7c-0.5,0-0.9,0.1-1.2,0.2c-0.3,0.1-0.6,0.3-0.9,0.4s-0.4,0.3-0.6,0.4
		c-0.1,0.1-0.3,0.2-0.4,0.2c-0.1,0-0.1,0-0.2,0c0,0-0.1-0.1-0.1-0.1L311.4,360.4z M317.3,364.1c-0.9,0-1.8,0.1-2.4,0.2
		s-1.2,0.3-1.7,0.5c-0.4,0.2-0.8,0.4-1,0.7c-0.2,0.3-0.3,0.6-0.3,0.9c0,0.3,0.1,0.6,0.2,0.9c0.1,0.2,0.3,0.4,0.4,0.6
		c0.2,0.2,0.4,0.3,0.6,0.3s0.5,0.1,0.8,0.1c0.4,0,0.7,0,1.1-0.1c0.3-0.1,0.6-0.2,0.9-0.3c0.3-0.2,0.5-0.3,0.8-0.5
		c0.2-0.2,0.5-0.4,0.7-0.7V364.1z"/>
	<path class="st1" d="M324,369.1c-0.7,0-1.2-0.2-1.6-0.6c-0.4-0.4-0.6-0.9-0.6-1.7V360h-1.4c-0.1,0-0.1,0-0.2-0.1
		c0,0-0.1-0.1-0.1-0.2v-0.4l1.7-0.1l0.2-3.6c0-0.1,0-0.1,0.1-0.2s0.1-0.1,0.2-0.1h0.5v3.8h3.1v0.7h-3.1v6.8c0,0.3,0,0.5,0.1,0.7
		c0.1,0.2,0.2,0.4,0.3,0.5c0.1,0.1,0.3,0.2,0.4,0.3s0.3,0.1,0.5,0.1c0.2,0,0.4,0,0.6-0.1c0.2-0.1,0.3-0.1,0.5-0.2
		c0.1-0.1,0.2-0.2,0.3-0.2c0.1-0.1,0.1-0.1,0.2-0.1c0.1,0,0.1,0,0.2,0.1l0.3,0.4c-0.3,0.3-0.6,0.5-1,0.7
		C324.8,369,324.4,369.1,324,369.1z"/>
	<path class="st1" d="M332.1,358.8c0.7,0,1.4,0.1,1.9,0.4s1,0.6,1.4,1s0.7,1,0.9,1.6c0.2,0.6,0.3,1.3,0.3,2.1c0,0.8-0.1,1.5-0.3,2.1
		c-0.2,0.6-0.5,1.2-0.9,1.6c-0.4,0.4-0.9,0.8-1.4,1c-0.6,0.2-1.2,0.4-1.9,0.4c-0.7,0-1.4-0.1-1.9-0.4c-0.6-0.2-1-0.6-1.4-1
		c-0.4-0.4-0.7-1-0.9-1.6c-0.2-0.6-0.3-1.3-0.3-2.1c0-0.8,0.1-1.5,0.3-2.1c0.2-0.6,0.5-1.2,0.9-1.6s0.9-0.8,1.4-1
		S331.3,358.8,332.1,358.8z M332.1,368.3c0.6,0,1.1-0.1,1.6-0.3s0.8-0.5,1.1-0.9s0.5-0.8,0.7-1.4c0.1-0.5,0.2-1.1,0.2-1.8
		c0-0.7-0.1-1.3-0.2-1.8s-0.4-1-0.7-1.4c-0.3-0.4-0.7-0.7-1.1-0.9c-0.4-0.2-1-0.3-1.6-0.3s-1.1,0.1-1.6,0.3
		c-0.4,0.2-0.8,0.5-1.1,0.9c-0.3,0.4-0.5,0.8-0.7,1.4c-0.1,0.5-0.2,1.1-0.2,1.8c0,0.7,0.1,1.3,0.2,1.8c0.2,0.5,0.4,1,0.7,1.4
		s0.7,0.7,1.1,0.9S331.5,368.3,332.1,368.3z"/>
	<path class="st1" d="M340.2,361.4c0.2-0.4,0.3-0.8,0.5-1.1s0.4-0.6,0.7-0.8c0.3-0.2,0.5-0.4,0.9-0.5c0.3-0.1,0.7-0.2,1.1-0.2
		c0.2,0,0.4,0,0.6,0.1c0.2,0,0.4,0.1,0.5,0.2l-0.1,0.7c0,0.1-0.1,0.2-0.2,0.2c-0.1,0-0.2,0-0.4-0.1c-0.2,0-0.4-0.1-0.6-0.1
		c-0.4,0-0.7,0.1-1,0.2c-0.3,0.1-0.6,0.3-0.8,0.5s-0.4,0.5-0.6,0.9s-0.3,0.7-0.5,1.2v6.4h-1v-10h0.5c0.1,0,0.2,0,0.2,0.1
		c0,0,0.1,0.1,0.1,0.2L340.2,361.4z"/>
	<path class="st1" d="M351.7,360.2c-0.1,0.1-0.1,0.1-0.2,0.1c-0.1,0-0.2,0-0.3-0.1c-0.1-0.1-0.3-0.2-0.5-0.3
		c-0.2-0.1-0.4-0.2-0.7-0.3c-0.3-0.1-0.6-0.1-1-0.1c-0.4,0-0.7,0.1-1,0.2c-0.3,0.1-0.6,0.2-0.8,0.4c-0.2,0.2-0.4,0.4-0.5,0.6
		c-0.1,0.2-0.2,0.5-0.2,0.7c0,0.3,0.1,0.6,0.2,0.8c0.2,0.2,0.4,0.4,0.6,0.5c0.3,0.1,0.6,0.3,0.9,0.4c0.3,0.1,0.7,0.2,1,0.3
		c0.3,0.1,0.7,0.2,1,0.4c0.3,0.1,0.6,0.3,0.9,0.5c0.3,0.2,0.5,0.4,0.6,0.7c0.2,0.3,0.2,0.6,0.2,1c0,0.4-0.1,0.8-0.2,1.2
		c-0.2,0.4-0.4,0.7-0.7,1c-0.3,0.3-0.7,0.5-1.1,0.7c-0.4,0.2-0.9,0.2-1.5,0.2c-0.7,0-1.3-0.1-1.8-0.3c-0.5-0.2-1-0.5-1.4-0.9
		l0.2-0.3c0-0.1,0.1-0.1,0.1-0.1c0,0,0.1,0,0.2,0c0.1,0,0.2,0.1,0.3,0.2c0.1,0.1,0.3,0.2,0.5,0.3c0.2,0.1,0.5,0.2,0.8,0.3
		c0.3,0.1,0.7,0.2,1.1,0.2c0.4,0,0.8-0.1,1.1-0.2c0.3-0.1,0.6-0.3,0.8-0.5c0.2-0.2,0.4-0.4,0.5-0.7c0.1-0.3,0.2-0.6,0.2-0.9
		c0-0.3-0.1-0.6-0.2-0.8s-0.4-0.4-0.6-0.6s-0.6-0.3-0.9-0.4c-0.3-0.1-0.7-0.2-1-0.3c-0.3-0.1-0.7-0.2-1-0.4
		c-0.3-0.1-0.6-0.3-0.9-0.5s-0.5-0.4-0.6-0.7s-0.2-0.6-0.2-1c0-0.4,0.1-0.7,0.2-1c0.2-0.3,0.4-0.6,0.7-0.9c0.3-0.2,0.6-0.4,1-0.6
		c0.4-0.1,0.9-0.2,1.4-0.2c0.6,0,1.1,0.1,1.6,0.3c0.5,0.2,0.9,0.4,1.3,0.8L351.7,360.2z"/>
</g>
<ellipse class="st2" cx="217.7" cy="243.3" rx="109" ry="33"/>
<path class="st3" d="M109,243.3l4.1-8.9L374.3,24.3L327,246.6c0.2,0.4,2.4-35.2-108.5-34.6C107.5,212.5,108.3,244.7,109,243.3z"/>
</svg>
