<?xml version="1.0" encoding="utf-8"?>
<!-- Generator: Adobe Illustrator 19.2.1, SVG Export Plug-In . SVG Version: 6.00 Build 0)  -->
<svg version="1.1" id="Calque_1" xmlns="http://www.w3.org/2000/svg" xmlns:xlink="http://www.w3.org/1999/xlink" x="0px" y="0px"
	 viewBox="0 0 2846.1 1000" style="enable-background:new 0 0 2846.1 1000;" xml:space="preserve">
<style type="text/css">
	.st0{opacity:0.6;fill:#F6C90E;}
	.st1{opacity:0.5;fill:#F6C90E;}
	.st2{fill:#F6C90E;}
	.st3{font-family:'PermanentMarker';}
	.st4{font-size:369px;}
	.st5{fill:none;}
	.st6{font-family:'Lato-Light';}
	.st7{font-size:157px;}
</style>
<ellipse class="st0" cx="469.7" cy="741.2" rx="279.7" ry="84.7"/>
<path class="st1" d="M751.9,746.3l-10.3-23.1l-662-549.1l112.9,572.2c-0.5,1-4.9-90.3,279.7-84.7C757,667.3,753.7,749.9,751.9,746.3
	z"/>
<ellipse class="st0" cx="518.4" cy="741.2" rx="279.7" ry="84.7"/>
<path class="st1" d="M239.6,741.3l10.6-22.9l670.1-539.2L798.9,749.6c0.5,1,6.2-90.3-278.4-88.8
	C235.7,662.2,237.8,744.8,239.6,741.3z"/>
<text transform="matrix(1 0 0 1 975.8354 554.0547)" class="st2 st3 st4">Creators</text>
<polygon class="st5" points="1370.4,770.1 975.8,770.1 975.8,770.1 1370.4,770.1 "/>
<text transform="matrix(1 0 0 1 1282.1362 702.9565)" class="st2 st6 st7">Discover new creators</text>
</svg>
