<?xml version="1.0" encoding="utf-8"?>
<!-- Generator: Adobe Illustrator 21.1.0, SVG Export Plug-In . SVG Version: 6.00 Build 0)  -->
<svg version="1.1" id="Calque_1" xmlns="http://www.w3.org/2000/svg" xmlns:xlink="http://www.w3.org/1999/xlink" x="0px" y="0px"
	 viewBox="0 0 2846.1 1000" style="enable-background:new 0 0 2846.1 1000;" xml:space="preserve">
<style type="text/css">
	.st0{enable-background:new    ;}
	.st1{fill:#F6C90E;}
	.st2{fill:none;}
	.st3{fill:#02DFDF;}
</style>
<g class="st0">
	<path class="st1" d="M361.8,504.2c-8.9-6.7-16.1-15.1-21.7-25.2c-5.7-10.1-10.1-20.8-13.3-32c-3.2-11.3-5.3-23-6.4-35
		c-1.1-12.1-1.4-23.6-1.1-34.6c2.7-8.2,6.1-15.8,10.1-22.7c4-6.9,8.4-13.4,13.3-19.7c4.9-6.3,10-12.2,15.3-17.9
		c5.3-5.6,10.6-11.4,15.8-17.2c1.8,0,3.5,0.5,5,1.4c1.2-3.4,3-6.3,5.5-8.7c2.4-2.4,5-4.6,7.8-6.6c2.7-2,5.5-4,8.2-6s5-4.3,6.9-7.1
		c7.6-1.8,14.4-4.4,20.4-7.8s11.7-7,17.2-11s11.1-7.6,16.9-11s12.5-6,20.1-7.8c2.7-3,6.2-5.6,10.3-7.8c4.1-2.1,8.2-4.1,12.4-6
		s8.1-3.8,11.9-6c3.8-2.1,6.9-5,9.4-8.7c1.8,2.4,4.4,3.3,7.8,2.5c3.4-0.8,6.4-1.6,9.2-2.5c1.8-0.3,3.4,0,4.6,0.9
		c1.2,0.9,2.4,1.9,3.4,3c1.1,1.1,2,1.8,2.7,2.1c0.8,0.3,1.6-0.6,2.5-2.7c2.4,0.3,3.1,1.4,2.1,3.2c-1.1,1.8-1.8,3.1-2.1,3.7
		c3-0.6,5.6-0.1,7.6,1.6c2,1.7,5.1,2.8,9.4,3.4c1.5,1.5,2,2.7,1.4,3.7c-0.6,0.9-1.1,2.4-1.4,4.6c11,3.4,18,8.6,21.1,15.8
		c3,7.2,3.4,14.7,0.9,22.4c-2.4,7.8-6.9,15-13.5,21.5c-6.6,6.6-13.8,10.9-21.7,13c-9.5,2.4-18.2,4.9-26.3,7.3s-15.9,5.2-23.3,8.2
		c-7.5,3.1-14.5,6.6-21.1,10.8c-6.6,4.1-12.3,8.9-17.2,14.4c-8.5,2.4-16.3,5.8-23.1,10.1c-6.9,4.3-13.3,9-19.2,14.2
		c-6,5.2-11.7,10.6-17.2,16.3c-5.5,5.7-11,11.2-16.5,16.7c0,5.2-0.9,9.2-2.7,11.9c-1.8,2.7-3.8,5.5-6,8.2c0.6,5.8,1.9,10.8,3.9,14.9
		s4,8.3,6.2,12.6c24.4,7.3,50.3,11.8,77.6,13.5c27.3,1.7,54.4,2.7,81.3,3c2.7,3.7,5.9,7.1,9.4,10.3c3.5,3.2,6.7,6.5,9.6,9.8
		c2.9,3.4,5.2,7.3,6.9,11.7c1.7,4.4,2.1,9.7,1.1,15.8c-5.2,5.2-10.8,10.2-16.9,14.9c-6.1,4.7-12.2,9.4-18.3,14c-2.7,0.3-6,0.3-9.8,0
		s-7.8-0.5-11.9-0.5c-4.1,0-8.2,0.2-12.4,0.7s-8,1.5-11.7,3c-19.2-0.6-38.9-3-59.1-7.1c-20.1-4.1-38.8-9.1-55.9-14.9
		c-3.4-4-6.9-7.7-10.5-11.2C372.8,508.3,367.9,505.7,361.8,504.2z"/>
	<path class="st1" d="M679.5,496.4c-3.4,12.2-6.3,21.4-8.9,27.7c-2.6,6.3-6.5,12.7-11.7,19.5c-4-0.6-6.7-0.2-8.2,1.4
		c-1.5,1.5-3.2,2.9-5,4.1c-2.7,0.6-4.7,0.6-6,0c-1.2-0.6-2.3-1.3-3.2-2.1s-2.1-1.5-3.4-2.3c-1.4-0.8-3.4-1.1-6.2-1.1
		c-0.6-2.4-1.3-4.7-2.1-6.9c-0.8-2.1-2.8-2.9-6.2-2.3c0.6-2.4,0.8-4.5,0.5-6.2s-0.7-3.2-1.1-4.6c-0.5-1.4-0.8-2.7-1.1-4.1
		c-0.3-1.4-0.2-3.1,0.5-5.3c-1.5,0-2.7-1.1-3.7-3.2c-0.9-2.1-2-4.3-3.2-6.4c0.9-5.5,1.8-10.7,2.7-15.6s2.1-9.5,3.4-13.7
		c1.4-4.3,2.5-8.5,3.4-12.8s0.5-8.7-1.4-13.3c1.2,0.9,2.1,0.7,2.7-0.7c0.6-1.4,1.1-3.2,1.4-5.5c0.3-2.3,0.5-4.6,0.5-6.9
		s-0.2-4.2-0.5-5.7c3-7.9,5.6-16.1,7.6-24.5s3.8-16.7,5.5-25c1.7-8.2,3.4-16.3,5.3-24.3c1.8-7.9,4.3-15.3,7.3-22
		c3.4-0.6,7.1-0.2,11.2,1.1c4.1,1.4,6.6,3.1,7.6,5.3c7.9-6.1,15-13.5,21.1-22.2s12.4-17.2,18.8-25.4s13.5-15.6,21.3-22
		s17.6-10.2,29.5-11.4c6.1,4.6,12.9,9.2,20.4,14c7.5,4.7,13.7,10.9,18.5,18.5c2.4,1.2,4.5,2.5,6.2,3.9s3.7,2.8,6.2,4.3v5.5
		c3.7,3.4,6.6,7.3,8.9,11.7c2.3,4.4,4.3,9.2,6.2,14.2s3.7,10.1,5.5,15.1s4,9.8,6.4,14.4c-0.6,1.5-0.9,2.8-0.9,3.9s0.2,2.2,0.7,3.4
		c0.5,1.2,0.8,2.4,1.1,3.7c0.3,1.2,0.3,2.9,0,5c-0.9,13.4-5.3,24.3-13,32.5s-17.2,15-28.2,20.4c-11,5.3-22.7,9.8-35.3,13.5
		c-12.5,3.7-23.8,7.6-33.9,11.9c0,1.2,0.5,1.8,1.6,1.8s1.4,0.8,1.1,2.3c7.3,4.6,13.1,8.2,17.4,11c4.3,2.7,8.3,5,12.1,6.9
		c3.8,1.8,7.9,3.4,12.4,4.8c4.4,1.4,10.6,3,18.5,4.8s14.1,3.3,18.5,4.3c4.4,1.1,8.5,2,12.1,2.7c3.7,0.8,7.4,1.4,11.2,1.8
		c3.8,0.5,9.2,1,16.3,1.6c2.7,2.7,5.1,6,7.1,9.8s3.3,7.6,3.9,11.4c0.6,3.8,0.8,7.5,0.5,11s-1.4,6.3-3.2,8.5c0.3,0.9,1,1.3,2.1,1.1
		s2.2-0.1,3.4,0.2c-1.8,1.2-3.4,2.7-4.6,4.6c-1.2,1.8-2.4,3.7-3.7,5.5c-1.2,1.8-2.6,3.4-4.1,4.8c-1.5,1.4-3.7,2.2-6.4,2.5
		c-9.5,3.7-21.4,3.9-35.7,0.7c-14.4-3.2-32.5-9.1-54.5-17.6c-11-4.3-19.9-8-26.8-11.2s-12.8-6.4-17.9-9.6c-5-3.2-9.6-6.6-13.7-10.3
		C690.3,506,685.3,501.6,679.5,496.4z M745,339.4c-3.4,4.9-7.1,9.3-11.2,13.3c-4.1,4-8.1,8-11.9,12.1c-3.8,4.1-7.3,8.7-10.3,13.7
		c-3.1,5-5.2,10.9-6.4,17.6c10.7-1.2,21.8-4.2,33.4-8.9c11.6-4.7,22.6-9.2,33-13.5c-1.2-9.5-4.5-17.1-9.8-22.9
		C756.3,345,750.8,341.2,745,339.4z"/>
	<path class="st1" d="M1114.9,286.3c0.3,2.1,0.4,3.7,0.2,4.8c-0.2,1.1-0.3,2.1-0.5,3s-0.2,1.9-0.2,3s0.3,2.7,0.9,4.8
		c-6.4,10.4-13.8,17.5-22.2,21.3c-8.4,3.8-17.5,6.6-27.2,8.2c-9.8,1.7-19.8,3.4-30,5.3c-10.2,1.8-20.4,5.8-30.4,11.9
		c-4-1.5-7.6-1.5-10.8,0s-7.9,2-14,1.4c-1.8,1.8-4.1,3.1-6.9,3.9c-2.7,0.8-5.5,1.6-8.2,2.5c1.2,2.7,1.8,5.6,1.6,8.5s0.2,5.3,1.1,7.1
		c10.7,0.9,22.5,0.8,35.5-0.5c13-1.2,25.7-2,38.2-2.3c0.3,1.5,0.2,2.5-0.5,3c-0.6,0.5-0.8,1.3-0.5,2.5c2.1,1.5,4.3,3.4,6.4,5.7
		c2.1,2.3,4.3,4.5,6.4,6.6s4.3,3.9,6.6,5.3s5,1.9,8,1.6c1.2,2.4,2.1,5.1,2.5,8c0.5,2.9,0.1,5.9-1.1,8.9c-4.9,3.4-9.8,6.8-14.7,10.3
		c-4.9,3.5-10,6.6-15.3,9.4c-5.3,2.7-11,5-16.9,6.6c-6,1.7-12.6,2.4-19.9,2.1c-1.5,0-2.7,0-3.4,0c-0.8,0-1.8-0.5-3-1.4
		c-2.4,1.5-5.9,2-10.3,1.4c-4.4-0.6-7.9-0.2-10.3,1.4c-3.4-1.5-7.4-2.2-12.1-2.1c-4.7,0.2-8.9-0.4-12.6-1.6
		c-4.9,6.4-9.3,13.3-13.3,20.6c-4,7.3-7.5,15.1-10.5,23.3c10.4,1.5,19,2.1,25.9,1.8c6.9-0.3,13.3-0.8,19.5-1.6
		c6.1-0.8,12.4-1.5,18.8-2.3c6.4-0.8,14.5-1,24.3-0.7c6.1-3.4,13.3-5.6,21.7-6.6c8.4-1.1,16.1-2.8,23.1-5.3c2.4,0.9,4.6,2.5,6.4,4.8
		s3.6,4.4,5.3,6.4c1.7,2,3.4,3.7,5.3,5.3c1.8,1.5,4.1,2.1,6.9,1.8c1.2,1.2,2.1,2.7,2.5,4.3c0.5,1.7,0.8,3.3,1.1,4.8
		c0.3,1.5,0.8,2.8,1.6,3.9c0.8,1.1,2.1,1.5,3.9,1.1c-4.6,10.1-9.8,17.8-15.8,23.1s-12.7,9.4-20.4,12.1c-7.6,2.7-16.1,4.9-25.4,6.4
		c-9.3,1.5-19.6,3.4-30.9,5.5c-2.7,0.6-5,0.5-6.9-0.2c-1.8-0.8-4-1.1-6.4-1.1c-7,1.5-15.4,2.9-25.2,4.1c-9.8,1.2-19.7,1.7-29.8,1.4
		s-19.7-1.6-28.8-3.9s-16.6-6.3-22.4-12.1c-2.4-2.1-4-4.7-4.8-7.6c-0.8-2.9-2.8-5.1-6.2-6.6c-0.3-4-0.9-8.4-1.8-13.3
		c-0.9-4.9-1.8-10-2.7-15.3s-1.6-10.6-2.1-15.8c-0.5-5.2-0.2-9.9,0.7-14.2c0.9-4.6,2.8-8.7,5.7-12.4c2.9-3.7,3.9-7.6,3-11.9
		c1.5-0.3,2.4-1.1,2.7-2.5s1.5-1.9,3.7-1.6c1.8-5.5,3.8-10.7,6-15.6c2.1-4.9,4.3-9.6,6.6-14.2s4.6-9.2,6.9-14
		c2.3-4.7,4.5-10,6.6-15.8c-4.3-4-7.4-8.3-9.4-13s-3.4-9.5-4.3-14.2c-0.9-4.7-1.7-9.6-2.3-14.7c-0.6-5-1.7-10.1-3.2-15.3
		c3-4.6,6.8-8.3,11.2-11.2c4.4-2.9,9.2-5.3,14.4-7.1c5.2-1.8,10.8-3.4,16.9-4.6c6.1-1.2,12.5-2.6,19.2-4.1c12.2-4,23.1-7,32.7-9.2
		c9.6-2.1,19.1-3.9,28.4-5.3c9.3-1.4,19-2.7,29.1-3.9c10.1-1.2,21.5-3,34.3-5.5c2.7,2.7,5.3,4.1,7.8,4.1c1.2-2.7,2.7-3.6,4.3-2.5
		c1.7,1.1,2.4,0.2,2.1-2.5c3,5.2,6.9,9.5,11.7,13C1103.8,280.9,1109.1,283.8,1114.9,286.3z"/>
	<path class="st1" d="M1346.1,505.6c-1.8,5.2-4.5,10.5-8,15.8c-3.5,5.3-7.6,10.1-12.4,14.2c-4.7,4.1-10,7.6-15.8,10.3
		s-11.9,4.3-18.3,4.6c-4-0.9-6.6-1.9-8-3s-2.8-2.1-4.3-3c-0.9-0.6-1.8-1.1-2.5-1.6c-0.8-0.5-1.5-0.8-2.1-1.1l-5.5-2.3l1.8-6
		c0.6-2.4,0.5-4.3-0.5-5.7c-0.9-1.4-2.7-3.3-5.5-5.7c-0.9-0.9-1.8-1.8-2.7-2.7c-0.9-0.9-1.7-1.8-2.3-2.7l-7.8-8.7l12.4-3.2
		c7.6-2.1,12.7-4.9,15.3-8.2c2.6-3.4,3.6-9,3-16.9c-6.1-1.2-11.2-1.4-15.3-0.5c-4.1,0.9-8.3,2-12.6,3.2c-5.5,1.5-11.1,2.8-16.7,3.9
		c-5.7,1.1-11.8,1.6-18.5,1.6c-2.4,0-4.7-0.1-6.9-0.2c-2.1-0.2-4.4-0.4-6.9-0.7l-4.6-0.9c-0.6-3.4-1.2-5.3-1.8-5.7
		c-0.6-0.5-1.2-1-1.8-1.6c-1.5-1.5-3.1-3.6-4.8-6.2c-1.7-2.6-2.1-5.9-1.1-9.8c-1.5-2.7-2.4-5.5-2.7-8.2c-1.8,3.7-3.2,7.5-4.1,11.4
		l-1.8,4.6l-4.6,0.9c-0.6,0.3-1.1,1-1.4,2.1s-0.5,1.9-0.5,2.5l-2.3,7.8c-0.6,0.6-1.2,1.1-1.8,1.6c-0.6,0.5-1.2,1-1.8,1.6
		c-0.6,2.7-1.4,5.5-2.3,8.2s-1.8,5.3-2.7,7.8c-1.5,4-2.8,7.9-3.9,11.7s-1.5,7.6-1.1,11.2l-1.8,5c-1.5,1.8-3.2,3.3-5,4.3
		c-1.8,1.1-3.7,2.1-5.5,3c-0.6,0.6-1.5,1.1-2.5,1.6c-1.1,0.5-1.9,0.8-2.5,1.1l-1.4,5l-5.5,0.9c-3.4,0.6-5.7,1.1-7.1,1.4
		c-1.4,0.3-3,0.5-4.8,0.5l-4.6-0.5c-3.4-2.7-6-5-7.8-6.6c-1.8-1.7-4-3.3-6.4-4.8c-2.7-3.7-4.3-6.4-4.6-8.2c-0.3-1.8-0.6-3.5-0.9-5
		c-0.6-1.8-1-3.4-1.1-4.6c-0.2-1.2-0.5-2.1-1.1-2.7l-6-5.5l5-4.1l0.5-7.8c6.1-15.6,12.6-30.5,19.5-44.9c6.9-14.3,14-29,21.3-44
		c2.4-4.9,4.8-9.8,7.1-14.7c2.3-4.9,4.6-9.8,7.1-14.7c-0.3-0.9-0.5-2-0.5-3.2s0.3-2.6,0.9-4.1c3.4-5.2,6.1-9.8,8.2-14
		c2.1-4.1,4.3-8.3,6.4-12.6c2.4-5.2,5-10.2,7.6-15.1s5.9-9.9,9.8-15.1l7.3-3.2c0.9-0.3,2-0.7,3.2-1.1c1.2-0.5,2.6-0.7,4.1-0.7
		l6.9,0.9c8.5-4,16-9.5,22.4-16.7s13-15.8,19.7-25.9l4.6-6.4l6,3.7c1.5,0.9,3.7,1.8,6.4,2.5c2.7,0.8,5.6,1.6,8.7,2.5
		c5.5,1.2,10.7,2.6,15.6,4.1s8.8,3.8,11.9,6.9c1.8,4.9,2.9,8.5,3.2,11c0.3,2.4,0.8,4.9,1.4,7.3c0.9,5.2,1.8,10.4,2.5,15.6
		c0.8,5.2,1.3,11,1.6,17.4c1.5,5.2,2.8,10.3,3.9,15.3s2.1,10.2,3,15.3c1.5,7.3,3,14.4,4.6,21.3c1.5,6.9,3.5,13.4,6,19.5
		c2.4,0,4,0.2,4.6,0.5c1.5-0.6,3.1-1.1,4.8-1.4c1.7-0.3,3.6-0.6,5.7-0.9l5-0.5l1.8,4.6c0.3,1.5,1.8,3.1,4.6,4.6
		c4,0.3,6.9,1.1,8.7,2.5c1.8,1.4,3.5,2.8,5,4.3c1.2,1.2,2.4,2.1,3.7,2.7l6.9,2.7l-3.7,6.9c-3.1,5.5-7.4,10.8-13,15.8
		c-5.7,5-12,9.2-19,12.6c0.3,1.8,0.5,3.6,0.7,5.3c0.2,1.7,0.5,3.4,1.1,5.3c0.9,5.2,1.7,10.5,2.3,16c0.6,5.5,0.6,11.1,0,16.9
		L1346.1,505.6z M1213.8,426.4c9.2-0.6,17.5-1.3,25-2.1c7.5-0.8,15.8-2.1,25-3.9c-2.1-9.2-4.4-18.7-6.9-28.6
		c-2.4-9.9-5-19.8-7.8-29.5l-2.7,4.6c-6.1,6.4-12,13.6-17.6,21.5c-5.7,7.9-10.5,15.4-14.4,22.4c-1.8,2.7-3.7,5.5-5.5,8.2
		s-3.5,5.5-5,8.2c1.8-0.3,3.6-0.5,5.3-0.5C1210.7,426.8,1212.3,426.7,1213.8,426.4z"/>
	<path class="st1" d="M1613.5,323.8c-7.6,0-15.9,0.5-24.7,1.6c-8.9,1.1-17.6,2.2-26.1,3.4c-6.1,0.9-12,1.7-17.6,2.3
		c-5.7,0.6-10.8,1.1-15.3,1.4c-2.1,6.7-4.3,12.7-6.4,17.9c-2.1,5.2-4.4,10.2-6.9,15.1c-2.4,5.2-4.7,10.5-6.6,15.8
		c-2,5.3-3.9,11.1-5.7,17.2c-3.1,4.9-5.6,9.4-7.6,13.5s-3.6,8.8-4.8,14c-3.7,4.6-6.4,9.4-8.2,14.4c-1.8,5-3.2,9.4-4.1,13l-1.8,5.5
		c-1.8,1.8-2.9,3.3-3.2,4.3c-0.3,1.1-1.1,2.1-2.3,3c-0.3,3.4-1.4,6.7-3.2,10.1c-0.6,1.5-1.1,3-1.4,4.3c-0.3,1.4-0.5,2.4-0.5,3
		c0,3.1-0.8,5-2.3,6c0.3,1.5,0.3,3.1,0,4.8c-0.3,1.7-0.6,3.3-0.9,4.8c-0.9,3.7-1.2,6.6-0.9,8.7c0.9,1.2,1.8,2.3,2.5,3.2
		c0.8,0.9,1.3,2.1,1.6,3.7c1.8,1.2,3.2,2,4.1,2.3c1.2,0.9,3,2,5.5,3.2l4.1,4.6c1.5,8.9,0.1,15.9-4.1,21.1
		c-4.6,5.8-12.4,8.7-23.3,8.7h-5.5c-1.5-1.5-2.4-2.7-2.7-3.7c-2.4-0.9-4.4-1.7-6-2.3c-1.5-0.6-2.9-1.8-4.1-3.7
		c-4-1.8-7.2-3.4-9.6-4.6l-4.1-2.3c0-3.4,0-5.2,0-5.5c-2.1-2.7-3.7-5.8-4.8-9.2c-1.1-3.4-1.9-6.7-2.5-10.1c-0.6-2.7-1.3-5.3-2.1-7.8
		c-0.8-2.4-1.8-4.6-3-6.4c-0.6-17.7,1.1-32.7,5-44.9c4-12.2,8.1-24,12.4-35.3c2.4-6.1,4.9-12.3,7.3-18.5c2.4-6.3,4.6-12.7,6.4-19.5
		l4.1-4.6c2.1-4.9,3.9-8.9,5.3-12.1s2.8-6.5,4.3-9.8c0.9-2.1,1.8-4.2,2.5-6.2c0.8-2,1.4-3.7,2.1-5.3c-1.8,0-3.5,0.1-5,0.2
		c-1.5,0.2-3.1,0.4-4.6,0.7c-1.8,0.3-3.5,0.5-5,0.7s-3.1,0.2-4.6,0.2c-2.1,0-3.7-0.1-4.6-0.5c-3.4,1.5-7,2.3-11,2.3h-4.6
		c-0.9,0-1.8-0.1-2.5-0.2c-0.8-0.2-1.5-0.2-2.1-0.2c-3.1,0-5.5,0.5-7.3,1.4c-3.7,0-7.2,0-10.5,0h-4.6c-0.6,0-1.4,0.1-2.3,0.2
		c-0.9,0.2-1.7,0.2-2.3,0.2c-2.1,0-4.4-0.2-6.9-0.7c-2.4-0.5-5-1.4-7.8-3c-3.7-4.9-6.1-7.5-7.3-7.8l-4.1-5.5
		c-0.3-1.8-0.8-3.6-1.4-5.3c-0.6-1.7-1.2-3.6-1.8-5.7c-1.2-3-2.4-6.3-3.4-9.8c-1.1-3.5-1.6-7.7-1.6-12.6c0.3-2.4,0.9-4.3,1.8-5.5
		s1.7-2.3,2.3-3.2l1.4-6.9l6,0.5h12.8c9.8,0,19.7-0.4,29.8-1.1c10.1-0.8,20.4-1.6,31.1-2.5c6.1-0.6,12.3-1.2,18.5-1.8
		c6.3-0.6,12.7-1.2,19.5-1.8c1.2-2.7,2.4-5.3,3.7-7.8l4.6-2.3c5.5-0.3,9.4,0.4,11.7,2.1c2.3,1.7,4.2,3.3,5.7,4.8
		c6.7-0.6,13.5-1.3,20.4-2.1c6.9-0.8,13.8-1.8,20.8-3c10.4-1.5,20.8-2.9,31.4-4.1c10.5-1.2,20.7-1.8,30.4-1.8
		c4.3,0,8.4,0.2,12.4,0.5s7.6,0.8,11,1.4l4.6,3.2c0.9,1.8,2.2,3.5,3.9,5c1.7,1.5,3.4,3.1,5.3,4.6c3.7,3.4,7.3,7.3,11,11.9
		s5,11.3,4.1,20.1c-2.4,3.7-4.3,5.8-5.5,6.4l-4.1,5.5l-4.6-0.5c-1.8,0-3.5,0.2-5,0.7s-3.1,1-4.6,1.6c-1.2,0.6-2.4,1.1-3.7,1.6
		c-1.2,0.5-2.6,0.8-4.1,1.1c-2.7,0-5-0.1-6.6-0.2C1617.1,323.9,1615.3,323.8,1613.5,323.8z"/>
	<path class="st1" d="M1830.5,406.7c-0.3,3.7,0,7.2,0.9,10.5c0.9,3.4,2.1,6.6,3.4,9.8c1.4,3.2,2.7,6.5,3.9,9.8
		c1.2,3.4,2.1,6.7,2.7,10.1c0.6,4.3,0.6,8.9,0,14c-0.6,5-1.7,9.9-3.2,14.7c-1.5,4.7-3.5,9-6,12.8c-2.4,3.8-5.3,6.6-8.7,8.5
		c-4.3,5.5-9.5,9.8-15.6,12.8c-6.1,3.1-11.8,6.7-16.9,11c-3.4,2.1-7.1,3.7-11.2,4.6c-4.1,0.9-8.3,1.8-12.6,2.7
		c-3.4,1.8-7.3,3.7-11.9,5.7s-9.3,3.8-14.2,5.5c-4.9,1.7-9.8,2.9-14.7,3.7c-4.9,0.8-9.2,1-12.8,0.7c-9.2,3.4-18.1,5.6-26.8,6.6
		c-8.7,1.1-18.9,0.4-30.4-2.1c-11,1.5-21.1,1.1-30.4-1.4c-9.3-2.4-17.6-6.3-24.7-11.7c-7.2-5.3-13.4-11.7-18.8-19.2
		c-5.3-7.5-9.7-15.3-13-23.6c-2.4-17.4-1.8-33.2,1.8-47.4s8.9-27.3,15.8-39.4s14.7-23.2,23.6-33.4c8.8-10.2,17.4-20.2,25.6-30
		c1.8,0.6,3.3,0.5,4.3-0.2c1.1-0.8,2.1-1.8,3-3.2c0.9-1.4,1.9-2.7,3-3.9c1.1-1.2,2.4-2,3.9-2.3c2.1-4.6,5.3-8,9.4-10.3
		s7.4-5.6,9.8-9.8c2.7-0.6,5-1.5,6.9-2.7c1.8-1.2,3.6-2.6,5.3-4.1c1.7-1.5,3.4-3,5.3-4.3c1.8-1.4,4-2.4,6.4-3v-5
		c5.5-2.4,9.5-5.3,12.1-8.5s5.7-7.1,9.4-11.7c2.7-0.3,5-0.5,6.6-0.5c1.7,0,4.2-0.3,7.6-0.9c2.4-4.3,4.7-7.5,6.6-9.6
		c2-2.1,5-4.4,8.9-6.9c3.7,1.8,7.7,3.1,12.1,3.7s8.3,2.6,11.7,6c0.3,3.1,1.2,5.4,2.7,7.1s3.2,3.2,5,4.6s3.6,2.8,5.3,4.3
		c1.7,1.5,2.8,3.7,3.4,6.4c1.2,0.3,2.1,0.2,2.5-0.5c0.5-0.6,1.3-0.8,2.5-0.5c0.9,4.3,2,7.1,3.2,8.5s2.4,4,3.7,8
		c-1.5,3.1-2.7,6.2-3.4,9.4c-0.8,3.2-2.7,5.6-5.7,7.1c-0.3,2.1,0.3,3.3,1.8,3.4c1.5,0.2,2.4,1,2.7,2.5c0.3,2.7-0.2,4.7-1.4,6
		c7.3,11.9,13.9,24.5,19.7,37.8C1816.6,382.2,1823.2,394.8,1830.5,406.7z M1773.3,450.2c1.2-3.4,2.8-6.1,4.8-8.2s3.1-5.3,3.4-9.6
		c-1.5-2.4-2.4-4.3-2.7-5.7c-0.3-1.4-0.5-3.6-0.5-6.6c-6.7-9.5-12.5-19.6-17.4-30.4s-10.4-21-16.5-30.4c-0.6,1.2-1.7,2.4-3.2,3.7
		c-1.5,1.2-3.2,0.9-5-0.9c-0.6,2.4-1.7,4.2-3.2,5.3c-1.5,1.1-3.2,1.5-5,1.4c-1.8-0.2-3.7-0.6-5.7-1.4s-3.7-1.8-5.3-3
		c-8.9,7-17.7,13.9-26.6,20.6s-16.8,14.5-23.8,23.3c-1.2,0.6-2,0.8-2.3,0.7c-0.3-0.2-1.2,0.1-2.7,0.7c-2.4,5.8-5.4,11.1-8.9,15.8
		c-3.5,4.7-6.9,9.5-10.3,14.4s-6.3,10.1-8.7,15.6c-2.4,5.5-3.8,11.9-4.1,19.2c5.2,4.3,11.3,6.9,18.3,7.8s14.3,1.1,21.7,0.5
		c7.5-0.6,14.8-1.6,22-3s13.8-2.1,19.9-2.1c12.8-3,23.8-7.1,33-12.1C1753.6,460.5,1763.2,455.4,1773.3,450.2z"/>
	<path class="st1" d="M1932.1,496.4c-3.4,12.2-6.3,21.4-8.9,27.7s-6.5,12.7-11.7,19.5c-4-0.6-6.7-0.2-8.2,1.4
		c-1.5,1.5-3.2,2.9-5,4.1c-2.7,0.6-4.7,0.6-6,0c-1.2-0.6-2.3-1.3-3.2-2.1c-0.9-0.8-2.1-1.5-3.4-2.3c-1.4-0.8-3.4-1.1-6.2-1.1
		c-0.6-2.4-1.3-4.7-2.1-6.9c-0.8-2.1-2.8-2.9-6.2-2.3c0.6-2.4,0.8-4.5,0.5-6.2s-0.7-3.2-1.1-4.6c-0.5-1.4-0.8-2.7-1.1-4.1
		c-0.3-1.4-0.2-3.1,0.5-5.3c-1.5,0-2.7-1.1-3.7-3.2c-0.9-2.1-2-4.3-3.2-6.4c0.9-5.5,1.8-10.7,2.7-15.6c0.9-4.9,2.1-9.5,3.4-13.7
		c1.4-4.3,2.5-8.5,3.4-12.8s0.5-8.7-1.4-13.3c1.2,0.9,2.1,0.7,2.7-0.7c0.6-1.4,1.1-3.2,1.4-5.5s0.5-4.6,0.5-6.9s-0.2-4.2-0.5-5.7
		c3-7.9,5.6-16.1,7.6-24.5s3.8-16.7,5.5-25c1.7-8.2,3.4-16.3,5.3-24.3c1.8-7.9,4.3-15.3,7.3-22c3.4-0.6,7.1-0.2,11.2,1.1
		c4.1,1.4,6.6,3.1,7.6,5.3c7.9-6.1,15-13.5,21.1-22.2s12.4-17.2,18.8-25.4c6.4-8.2,13.5-15.6,21.3-22s17.6-10.2,29.5-11.4
		c6.1,4.6,12.9,9.2,20.4,14c7.5,4.7,13.7,10.9,18.5,18.5c2.4,1.2,4.5,2.5,6.2,3.9s3.7,2.8,6.2,4.3v5.5c3.7,3.4,6.6,7.3,8.9,11.7
		c2.3,4.4,4.3,9.2,6.2,14.2c1.8,5,3.7,10.1,5.5,15.1s4,9.8,6.4,14.4c-0.6,1.5-0.9,2.8-0.9,3.9s0.2,2.2,0.7,3.4
		c0.5,1.2,0.8,2.4,1.1,3.7c0.3,1.2,0.3,2.9,0,5c-0.9,13.4-5.3,24.3-13,32.5s-17.2,15-28.2,20.4c-11,5.3-22.7,9.8-35.3,13.5
		c-12.5,3.7-23.8,7.6-33.9,11.9c0,1.2,0.5,1.8,1.6,1.8s1.4,0.8,1.1,2.3c7.3,4.6,13.1,8.2,17.4,11c4.3,2.7,8.3,5,12.1,6.9
		c3.8,1.8,7.9,3.4,12.4,4.8c4.4,1.4,10.6,3,18.5,4.8c7.9,1.8,14.1,3.3,18.5,4.3c4.4,1.1,8.5,2,12.1,2.7c3.7,0.8,7.4,1.4,11.2,1.8
		c3.8,0.5,9.2,1,16.3,1.6c2.7,2.7,5.1,6,7.1,9.8s3.3,7.6,3.9,11.4c0.6,3.8,0.8,7.5,0.5,11s-1.4,6.3-3.2,8.5c0.3,0.9,1,1.3,2.1,1.1
		s2.2-0.1,3.4,0.2c-1.8,1.2-3.4,2.7-4.6,4.6c-1.2,1.8-2.4,3.7-3.7,5.5c-1.2,1.8-2.6,3.4-4.1,4.8c-1.5,1.4-3.7,2.2-6.4,2.5
		c-9.5,3.7-21.4,3.9-35.7,0.7c-14.4-3.2-32.5-9.1-54.5-17.6c-11-4.3-19.9-8-26.8-11.2s-12.8-6.4-17.9-9.6c-5-3.2-9.6-6.6-13.7-10.3
		S1937.9,501.6,1932.1,496.4z M1997.6,339.4c-3.4,4.9-7.1,9.3-11.2,13.3s-8.1,8-11.9,12.1s-7.3,8.7-10.3,13.7
		c-3.1,5-5.2,10.9-6.4,17.6c10.7-1.2,21.8-4.2,33.4-8.9c11.6-4.7,22.6-9.2,33-13.5c-1.2-9.5-4.5-17.1-9.8-22.9
		C2009,345,2003.4,341.2,1997.6,339.4z"/>
	<path class="st1" d="M2119.4,338c2.1-6.4,5.6-11.9,10.3-16.5s9.9-8.5,15.6-11.7c5.6-3.2,11.5-5.9,17.6-8s11.9-4,17.4-5.5
		c12.2-5.2,25.3-10.1,39.1-14.9c13.9-4.7,28.1-8.9,42.6-12.6s29.4-6,44.6-7.1c15.3-1.1,31.3,0.8,48.1,5.7c0.9,3.1,2.3,6,4.1,8.7
		s3.7,5.5,5.7,8.2s3.7,5.4,5.3,8c1.5,2.6,2.4,5.3,2.7,8c3,2.7,5.5,5.7,7.3,8.9c1.8,3.2,2.1,7.4,0.9,12.6c-3.1,2.4-6,4.7-8.9,6.6
		c-2.9,2-6,3.7-9.4,5.3c-11.3-2.7-22.7-3.7-34.3-2.7c-11.6,0.9-22,1.7-31.1,2.3c-2.7-2.7-6-4.1-9.8-4.1s-7.8,0.6-11.9,1.8
		c-4.1,1.2-8.2,2.4-12.4,3.7c-4.1,1.2-8,1.5-11.7,0.9c-3.1,2.4-6.8,4-11.2,4.8s-9.2,1.5-14.4,2.1c-0.3,1.5,0,2.5,0.9,3
		s1.1,1.5,0.5,3c1.8,2.1,4.2,3.7,7.1,4.6c2.9,0.9,6,1.8,9.2,2.7c3.2,0.9,6,2.1,8.5,3.4c2.4,1.4,4.1,3.6,5,6.6
		c4.6,0,8.5,1.1,11.9,3.2s6.1,4.7,8.2,7.8c2.1,3.1,3.7,6.3,4.8,9.8s1.6,6.6,1.6,9.4c0.9,2.4,2,3.5,3.2,3.2s2.6,0.3,4.1,1.8
		c0.9,4,3.2,8,6.9,12.1s6.6,8.6,8.7,13.5c0.6,7.6,1.1,14.4,1.4,20.4c0.3,6-0.8,12-3.2,18.1c-4.6,11.3-10.9,21.4-19,30.2
		c-8.1,8.9-17.2,16.7-27.5,23.6c-10.2,6.9-21.1,12.7-32.7,17.6c-11.6,4.9-22.9,9-33.9,12.4c-1.2-0.3-2.4-0.3-3.7,0
		c-1.2,0.3-1.5-0.5-0.9-2.3c-2.4,2.1-5.1,3.5-8,4.1s-6,0.8-9.4,0.7c-3.4-0.2-6.8-0.4-10.3-0.7s-6.8-0.2-9.8,0.5
		c-2.1-2.1-4-4.2-5.7-6.2s-3-4.5-3.9-7.6c-1.5,0-2.2-0.8-2.1-2.3c0.2-1.5-0.4-2.3-1.6-2.3c1.8-3,2.7-4.8,2.5-5.3s-0.6-0.8-1.4-1.1
		c-0.8-0.3-1.5-0.7-2.1-1.1c-0.6-0.5-0.8-1.1-0.5-2.1c1.2-2.4,1.7-5.3,1.4-8.5s-0.6-6.5-0.9-9.8c-0.3-3.4-0.1-6.6,0.7-9.6
		s3-5.5,6.6-7.3c10.4,1.2,20.2,0.8,29.5-1.1c9.3-2,18.1-4.8,26.3-8.5s16.1-7.6,23.6-11.9s14.9-8.1,22.2-11.4c0.9-2.7,2.2-5,3.9-6.9
		c1.7-1.8,3.4-3.5,5.3-5c1.8-1.5,3.5-3.2,5-5s2.6-4.1,3.2-6.9c0.3-2.1-0.2-3.4-1.6-3.9c-1.4-0.5-2.1-1.6-2.1-3.4l-5-1.4
		c-5.8-3.4-12.4-6.2-19.7-8.5s-13.6-4.8-18.8-7.6c-3.4,1.8-6.5,2.3-9.4,1.4s-6.6-1.8-11.2-2.7c-10.4-0.6-20.4-1.7-30-3.2
		s-18.8-4.3-27.7-8.2c-0.6-1.5-1.4-2.9-2.3-4.1c-0.9-1.2-2.6-1.5-5-0.9c-1.8-2.4-3.7-4.8-5.5-7.1s-3.5-4.8-5-7.6
		c0.6-3.7,1.1-6.8,1.4-9.4c0.3-2.6-0.6-5.1-2.7-7.6c1.2-4,2.1-7.2,2.7-9.6C2120,345.2,2120,342,2119.4,338z"/>
</g>
<polygon class="st2" points="820.5,830.5 319.2,830.5 319.2,830.5 "/>
<g class="st0">
	<path class="st1" d="M876.1,686.6c0,10.9-1.6,20.7-4.9,29.4c-3.3,8.7-7.8,16.1-13.8,22.2c-5.9,6.1-13,10.8-21.3,14.1
		s-17.4,4.9-27.4,4.9h-51.6V616.1h51.6c10,0,19.1,1.6,27.4,4.9c8.3,3.3,15.4,7.9,21.3,14.1c5.9,6.1,10.5,13.5,13.8,22.2
		C874.5,666,876.1,675.8,876.1,686.6z M865.5,686.6c0-9.8-1.4-18.6-4.1-26.3c-2.7-7.7-6.6-14.2-11.6-19.5s-11-9.4-18-12.2
		s-14.7-4.2-23.1-4.2h-41.3V749h41.3c8.4,0,16.2-1.4,23.1-4.2c7-2.8,13-6.8,18-12.2c5-5.3,8.8-11.8,11.6-19.5
		C864.1,705.3,865.5,696.5,865.5,686.6z"/>
	<path class="st1" d="M916.7,623.8c0,1.2-0.2,2.3-0.7,3.3s-1.1,1.9-1.9,2.7s-1.7,1.4-2.8,1.9s-2.2,0.7-3.4,0.7s-2.3-0.2-3.4-0.7
		c-1.1-0.5-2-1.1-2.8-1.9s-1.4-1.7-1.9-2.7s-0.7-2.1-0.7-3.3s0.2-2.3,0.7-3.4c0.5-1.1,1.1-2,1.9-2.8s1.7-1.4,2.8-1.9
		s2.2-0.7,3.4-0.7s2.3,0.2,3.4,0.7c1.1,0.5,2,1.1,2.8,1.9s1.4,1.7,1.9,2.8C916.4,621.4,916.7,622.6,916.7,623.8z M912.6,658v99.2
		h-9.5V658H912.6z"/>
	<path class="st1" d="M1001,670.2c-0.5,0.9-1.3,1.4-2.3,1.4c-0.7,0-1.7-0.4-2.8-1.2s-2.6-1.8-4.5-2.8s-4.2-2-7-2.8
		s-6.2-1.2-10.2-1.2c-3.6,0-6.9,0.5-9.8,1.5c-3,1-5.5,2.4-7.6,4.1c-2.1,1.7-3.7,3.7-4.8,6s-1.7,4.7-1.7,7.2c0,3.1,0.8,5.7,2.4,7.8
		c1.6,2.1,3.7,3.8,6.2,5.3c2.6,1.5,5.5,2.7,8.8,3.8s6.7,2.1,10.1,3.2c3.4,1.1,6.8,2.2,10.1,3.5s6.3,2.9,8.8,4.8
		c2.6,1.9,4.6,4.3,6.2,7.1c1.6,2.8,2.4,6.2,2.4,10.2c0,4.3-0.8,8.3-2.3,12.1c-1.5,3.7-3.8,6.9-6.7,9.7c-3,2.7-6.6,4.9-10.9,6.5
		c-4.3,1.6-9.3,2.4-14.9,2.4c-7,0-13-1.1-18.1-3.3s-9.6-5.1-13.6-8.7l2.2-3.4c0.3-0.5,0.7-0.9,1.1-1.2c0.4-0.3,1-0.4,1.7-0.4
		c0.9,0,1.9,0.5,3.1,1.6c1.2,1.1,2.9,2.2,4.9,3.4c2.1,1.2,4.6,2.4,7.6,3.4c3,1.1,6.8,1.6,11.2,1.6c4.2,0,7.9-0.6,11.1-1.7
		c3.2-1.2,5.9-2.7,8-4.7s3.7-4.3,4.8-7s1.6-5.5,1.6-8.5c0-3.3-0.8-6.1-2.4-8.3c-1.6-2.2-3.7-4.1-6.3-5.6s-5.5-2.8-8.8-3.9
		c-3.3-1.1-6.7-2.1-10.1-3.2c-3.5-1.1-6.8-2.2-10.1-3.5s-6.2-2.9-8.8-4.8c-2.6-1.9-4.7-4.3-6.3-7c-1.6-2.8-2.4-6.2-2.4-10.3
		c0-3.5,0.8-6.9,2.3-10.2s3.7-6.1,6.5-8.6s6.3-4.4,10.3-5.9c4.1-1.5,8.6-2.2,13.7-2.2c6,0,11.4,0.9,16.1,2.6c4.7,1.7,9,4.4,12.8,8
		L1001,670.2z"/>
	<path class="st1" d="M1097.9,671.2c-0.3,0.3-0.6,0.6-0.9,0.8s-0.7,0.3-1.2,0.3c-0.7,0-1.6-0.4-2.7-1.3c-1.1-0.9-2.7-1.9-4.6-2.9
		c-1.9-1.1-4.3-2-7.2-2.9c-2.9-0.9-6.4-1.3-10.5-1.3c-5.7,0-10.8,1-15.2,3c-4.4,2-8.2,4.9-11.2,8.7s-5.4,8.4-6.9,13.8
		s-2.3,11.4-2.3,18.2c0,7,0.8,13.2,2.4,18.6c1.6,5.4,3.9,9.9,6.9,13.6s6.6,6.5,10.9,8.4s9,2.9,14.2,2.9c4.8,0,8.8-0.6,12-1.7
		c3.2-1.1,5.9-2.4,8-3.7s3.7-2.6,4.9-3.7c1.2-1.1,2.2-1.7,3-1.7s1.5,0.3,2,1l2.5,3.2c-1.5,2-3.5,3.9-5.8,5.6c-2.3,1.7-5,3.2-7.9,4.5
		s-6.1,2.2-9.5,2.9s-7,1-10.7,1c-6.3,0-12.1-1.1-17.3-3.4c-5.2-2.3-9.7-5.6-13.5-10s-6.7-9.7-8.8-16s-3.1-13.5-3.1-21.5
		c0-7.6,1-14.5,3-20.7s4.9-11.6,8.8-16.2c3.9-4.5,8.6-8,14.1-10.5c5.6-2.5,11.9-3.7,19.1-3.7c6.4,0,12.2,1,17.2,3.1
		s9.3,4.9,13.1,8.4L1097.9,671.2z"/>
	<path class="st1" d="M1162.6,656.4c7.1,0,13.5,1.2,19.1,3.6c5.6,2.4,10.4,5.9,14.2,10.3c3.9,4.5,6.8,9.8,8.8,16.1s3,13.3,3,21.1
		s-1,14.8-3,21s-5,11.6-8.8,16.1c-3.9,4.5-8.6,7.9-14.2,10.3c-5.6,2.4-12,3.6-19.1,3.6s-13.5-1.2-19.1-3.6
		c-5.6-2.4-10.4-5.8-14.3-10.3s-6.8-9.8-8.9-16.1c-2-6.2-3-13.3-3-21s1-14.8,3-21.1s5-11.7,8.9-16.1c3.9-4.5,8.6-7.9,14.3-10.3
		C1149.1,657.6,1155.5,656.4,1162.6,656.4z M1162.6,751c5.9,0,11.1-1,15.5-3s8.1-4.9,11.1-8.7s5.2-8.4,6.6-13.7
		c1.5-5.4,2.2-11.4,2.2-18s-0.7-12.6-2.2-18s-3.7-10-6.6-13.8c-3-3.8-6.7-6.8-11.1-8.8c-4.4-2.1-9.6-3.1-15.5-3.1s-11.1,1-15.5,3.1
		s-8.1,5-11.1,8.8s-5.2,8.4-6.7,13.8c-1.5,5.4-2.2,11.4-2.2,18s0.7,12.7,2.2,18c1.5,5.4,3.7,9.9,6.7,13.7s6.6,6.7,11.1,8.7
		C1151.5,750,1156.7,751,1162.6,751z"/>
	<path class="st1" d="M1311.9,658l-41.9,99.2h-8.4l-41.9-99.2h7.5c0.9,0,1.7,0.2,2.3,0.7s1,1,1.2,1.6l32.8,78.3
		c1,2.9,1.8,5.8,2.4,8.7c0.6-2.9,1.4-5.8,2.5-8.7l32.9-78.3c0.3-0.7,0.8-1.3,1.3-1.7c0.6-0.4,1.2-0.6,2-0.6H1311.9z"/>
	<path class="st1" d="M1333.3,703.7v1.9c0,7.4,0.9,14,2.6,19.6c1.7,5.7,4.2,10.4,7.4,14.2c3.2,3.8,7,6.7,11.6,8.6
		c4.5,1.9,9.6,2.9,15.2,2.9c5,0,9.3-0.5,13-1.6s6.7-2.3,9.2-3.7s4.5-2.6,5.9-3.7c1.5-1.1,2.5-1.6,3.2-1.6c0.9,0,1.5,0.3,2,1l2.6,3.2
		c-1.6,2-3.7,3.9-6.3,5.6c-2.6,1.7-5.6,3.2-8.8,4.4c-3.2,1.2-6.7,2.2-10.4,2.9c-3.7,0.7-7.4,1.1-11.1,1.1c-6.8,0-13-1.2-18.6-3.5
		c-5.6-2.4-10.4-5.8-14.4-10.3s-7.1-10.1-9.2-16.6c-2.2-6.5-3.2-14-3.2-22.5c0-7.1,1-13.7,3-19.7s5-11.2,8.8-15.6
		c3.8-4.4,8.5-7.8,14.1-10.2c5.6-2.5,11.9-3.7,18.9-3.7c5.6,0,10.8,1,15.6,2.9c4.8,1.9,8.9,4.7,12.5,8.4c3.5,3.7,6.3,8.2,8.3,13.6
		c2,5.4,3,11.6,3,18.6c0,1.5-0.2,2.5-0.6,3s-1.1,0.8-2,0.8L1333.3,703.7L1333.3,703.7z M1399.5,697.6c0-5.3-0.7-10.1-2.2-14.3
		s-3.6-7.8-6.3-10.7c-2.7-2.9-6-5.2-9.7-6.7c-3.8-1.6-7.9-2.3-12.4-2.3c-5.1,0-9.7,0.8-13.8,2.4c-4.1,1.6-7.6,3.9-10.5,6.9
		c-3,3-5.3,6.6-7.1,10.8c-1.8,4.2-3,8.9-3.6,14.1h65.6V697.6z"/>
	<path class="st1" d="M1443,681.9c1.5-4.1,3.3-7.7,5.2-10.8c2-3.2,4.2-5.8,6.8-8c2.6-2.2,5.4-3.9,8.6-5c3.2-1.2,6.7-1.7,10.5-1.7
		c2.1,0,4.1,0.2,6.1,0.5c2,0.4,3.8,1,5.3,1.9l-0.8,6.6c-0.3,1.1-1,1.6-1.9,1.6c-0.8,0-2-0.2-3.6-0.7s-3.8-0.7-6.4-0.7
		c-3.9,0-7.3,0.6-10.2,1.7c-3,1.2-5.6,2.9-8,5.2s-4.4,5.2-6.2,8.6c-1.8,3.4-3.4,7.4-4.8,11.8v64.2h-9.6V658h5.1
		c1.1,0,1.9,0.2,2.4,0.7s0.8,1.3,0.9,2.4L1443,681.9z"/>
	<path class="st1" d="M1563.4,675.3c4.6-5.7,9.9-10.3,15.9-13.8s12.7-5.2,20.1-5.2c5.5,0,10.3,0.9,14.4,2.6
		c4.2,1.7,7.6,4.2,10.3,7.5c2.7,3.3,4.8,7.2,6.2,11.8s2.1,9.8,2.1,15.6v63.4h-9.6v-63.4c0-9.3-2.1-16.6-6.4-21.9
		c-4.3-5.3-10.7-7.9-19.4-7.9c-6.5,0-12.5,1.6-18.1,4.9c-5.6,3.3-10.6,7.9-15,13.7v74.6h-9.6V658h5.3c1.7,0,2.6,0.8,2.9,2.5
		L1563.4,675.3z"/>
	<path class="st1" d="M1667.4,703.7v1.9c0,7.4,0.9,14,2.6,19.6c1.7,5.7,4.2,10.4,7.4,14.2c3.2,3.8,7,6.7,11.6,8.6
		c4.5,1.9,9.6,2.9,15.2,2.9c5,0,9.3-0.5,13-1.6s6.7-2.3,9.2-3.7s4.5-2.6,5.9-3.7c1.5-1.1,2.5-1.6,3.2-1.6c0.9,0,1.5,0.3,2,1l2.6,3.2
		c-1.6,2-3.7,3.9-6.3,5.6c-2.6,1.7-5.6,3.2-8.8,4.4c-3.2,1.2-6.7,2.2-10.4,2.9c-3.7,0.7-7.4,1.1-11.1,1.1c-6.8,0-13-1.2-18.6-3.5
		c-5.6-2.4-10.4-5.8-14.4-10.3s-7.1-10.1-9.2-16.6c-2.2-6.5-3.2-14-3.2-22.5c0-7.1,1-13.7,3-19.7s5-11.2,8.8-15.6
		c3.8-4.4,8.5-7.8,14.1-10.2c5.6-2.5,11.9-3.7,18.9-3.7c5.6,0,10.8,1,15.6,2.9c4.8,1.9,8.9,4.7,12.5,8.4c3.5,3.7,6.3,8.2,8.3,13.6
		c2,5.4,3,11.6,3,18.6c0,1.5-0.2,2.5-0.6,3s-1.1,0.8-2,0.8L1667.4,703.7L1667.4,703.7z M1733.6,697.6c0-5.3-0.7-10.1-2.2-14.3
		s-3.6-7.8-6.3-10.7c-2.7-2.9-6-5.2-9.7-6.7c-3.8-1.6-7.9-2.3-12.4-2.3c-5.1,0-9.7,0.8-13.8,2.4c-4.1,1.6-7.6,3.9-10.5,6.9
		c-3,3-5.3,6.6-7.1,10.8c-1.8,4.2-3,8.9-3.6,14.1h65.6V697.6z"/>
	<path class="st1" d="M1898.7,658l-33.1,99.2h-7.1c-1.1,0-1.9-0.7-2.3-2.1l-27.1-80.6c-0.3-1-0.6-2-0.9-3s-0.5-2-0.7-3
		c-0.3,2-0.8,4-1.5,6l-27.5,80.6c-0.4,1.4-1.2,2.1-2.4,2.1h-6.8l-33.1-99.2h7.2c0.9,0,1.7,0.2,2.3,0.7s1,1,1.2,1.6l25,78.3
		c0.4,1.5,0.8,3,1.1,4.4c0.3,1.4,0.6,2.8,0.8,4.2c0.4-1.4,0.8-2.8,1.2-4.2c0.4-1.4,0.9-2.9,1.4-4.4l26.5-79c0.5-1.5,1.4-2.2,2.8-2.2
		h3.9c1.5,0,2.4,0.7,2.9,2.2l26.3,79c0.5,1.5,0.9,3,1.3,4.4s0.8,2.8,1.1,4.2c0.3-1.4,0.5-2.8,0.8-4.2s0.7-2.9,1.1-4.4l25.2-78.3
		c0.3-0.7,0.7-1.3,1.3-1.7c0.6-0.4,1.3-0.6,2.1-0.6H1898.7z"/>
	<path class="st1" d="M2036.7,671.2c-0.3,0.3-0.6,0.6-0.9,0.8s-0.7,0.3-1.2,0.3c-0.7,0-1.6-0.4-2.7-1.3c-1.1-0.9-2.7-1.9-4.6-2.9
		c-1.9-1.1-4.3-2-7.2-2.9c-2.9-0.9-6.4-1.3-10.5-1.3c-5.7,0-10.8,1-15.2,3c-4.4,2-8.2,4.9-11.2,8.7c-3.1,3.8-5.4,8.4-6.9,13.8
		c-1.6,5.4-2.3,11.4-2.3,18.2c0,7,0.8,13.2,2.4,18.6c1.6,5.4,3.9,9.9,6.9,13.6s6.6,6.5,10.9,8.4s9,2.9,14.2,2.9
		c4.8,0,8.8-0.6,12-1.7c3.2-1.1,5.9-2.4,8-3.7s3.7-2.6,4.9-3.7c1.2-1.1,2.2-1.7,3-1.7s1.5,0.3,2,1l2.5,3.2c-1.5,2-3.5,3.9-5.8,5.6
		c-2.3,1.7-5,3.2-7.9,4.5s-6.1,2.2-9.5,2.9s-7,1-10.7,1c-6.3,0-12.1-1.1-17.3-3.4c-5.2-2.3-9.7-5.6-13.5-10s-6.7-9.7-8.8-16
		c-2.1-6.3-3.1-13.5-3.1-21.5c0-7.6,1-14.5,3-20.7s4.9-11.6,8.8-16.2c3.9-4.5,8.6-8,14.1-10.5s11.9-3.7,19.1-3.7
		c6.4,0,12.2,1,17.2,3.1s9.3,4.9,13.1,8.4L2036.7,671.2z"/>
	<path class="st1" d="M2073.1,681.9c1.5-4.1,3.3-7.7,5.2-10.8c2-3.2,4.2-5.8,6.8-8s5.4-3.9,8.6-5c3.2-1.2,6.7-1.7,10.5-1.7
		c2.1,0,4.1,0.2,6.1,0.5c2,0.4,3.8,1,5.3,1.9l-0.8,6.6c-0.3,1.1-1,1.6-1.9,1.6c-0.8,0-2-0.2-3.6-0.7s-3.8-0.7-6.4-0.7
		c-3.9,0-7.3,0.6-10.2,1.7c-3,1.2-5.6,2.9-8,5.2s-4.4,5.2-6.2,8.6c-1.8,3.4-3.4,7.4-4.8,11.8v64.2h-9.6V658h5.1
		c1.1,0,1.9,0.2,2.4,0.7s0.8,1.3,0.9,2.4L2073.1,681.9z"/>
	<path class="st1" d="M2132.4,703.7v1.9c0,7.4,0.9,14,2.6,19.6c1.7,5.7,4.2,10.4,7.4,14.2s7,6.7,11.6,8.6c4.5,1.9,9.6,2.9,15.2,2.9
		c5,0,9.3-0.5,13-1.6s6.7-2.3,9.2-3.7s4.5-2.6,5.9-3.7c1.5-1.1,2.5-1.6,3.2-1.6c0.9,0,1.5,0.3,2,1l2.6,3.2c-1.6,2-3.7,3.9-6.3,5.6
		c-2.6,1.7-5.6,3.2-8.8,4.4s-6.7,2.2-10.4,2.9s-7.4,1.1-11.1,1.1c-6.8,0-13-1.2-18.6-3.5c-5.6-2.4-10.4-5.8-14.4-10.3
		s-7.1-10.1-9.2-16.6c-2.2-6.5-3.2-14-3.2-22.5c0-7.1,1-13.7,3-19.7s5-11.2,8.8-15.6c3.8-4.4,8.5-7.8,14.1-10.2
		c5.6-2.5,11.9-3.7,18.9-3.7c5.6,0,10.8,1,15.6,2.9s8.9,4.7,12.5,8.4c3.5,3.7,6.3,8.2,8.3,13.6c2,5.4,3,11.6,3,18.6
		c0,1.5-0.2,2.5-0.6,3c-0.4,0.5-1.1,0.8-2,0.8L2132.4,703.7L2132.4,703.7z M2198.6,697.6c0-5.3-0.7-10.1-2.2-14.3s-3.6-7.8-6.3-10.7
		s-6-5.2-9.7-6.7c-3.8-1.6-7.9-2.3-12.4-2.3c-5.1,0-9.7,0.8-13.8,2.4c-4.1,1.6-7.6,3.9-10.5,6.9c-3,3-5.3,6.6-7.1,10.8
		s-3,8.9-3.6,14.1h65.6V697.6z"/>
	<path class="st1" d="M2230.2,672c5.2-5.2,10.6-9.1,16.4-11.8c5.7-2.7,12.2-4,19.4-4c5.3,0,10,0.8,14,2.5s7.3,4.1,9.9,7.3
		c2.6,3.2,4.6,7,5.9,11.5c1.3,4.5,2,9.5,2,15v64.6h-3.8c-2,0-3.2-0.9-3.7-2.8l-1.4-12.8c-2.7,2.7-5.4,5.1-8.1,7.2
		c-2.7,2.1-5.5,3.9-8.4,5.4s-6.1,2.6-9.5,3.4c-3.4,0.8-7.1,1.2-11.2,1.2c-3.4,0-6.7-0.5-9.9-1.5s-6-2.5-8.5-4.6s-4.5-4.7-6-7.9
		s-2.2-7.1-2.2-11.6c0-4.2,1.2-8.1,3.6-11.7c2.4-3.6,6.1-6.7,11.3-9.4c5.1-2.7,11.7-4.8,19.7-6.4c8-1.6,17.6-2.5,28.9-2.8v-10.4
		c0-9.2-2-16.2-5.9-21.2c-4-5-9.8-7.4-17.6-7.4c-4.8,0-8.9,0.7-12.2,2c-3.4,1.3-6.2,2.8-8.5,4.4c-2.3,1.6-4.2,3.1-5.7,4.4
		c-1.5,1.3-2.7,2-3.7,2c-0.7,0-1.3-0.2-1.8-0.5s-0.9-0.8-1.2-1.3L2230.2,672z M2288.5,709.2c-9.4,0.3-17.6,1.1-24.4,2.2
		c-6.8,1.2-12.4,2.7-16.9,4.7c-4.4,2-7.7,4.4-9.8,7.1c-2.1,2.8-3.2,5.9-3.2,9.4c0,3.3,0.5,6.2,1.6,8.6c1.1,2.4,2.6,4.4,4.4,6
		c1.8,1.6,3.9,2.7,6.3,3.4c2.4,0.7,4.9,1.1,7.5,1.1c3.9,0,7.4-0.4,10.6-1.2c3.2-0.8,6.2-2,9-3.5s5.3-3.3,7.7-5.3
		c2.4-2.1,4.8-4.3,7.1-6.7L2288.5,709.2L2288.5,709.2z"/>
	<path class="st1" d="M2355.6,758.8c-6.7,0-12-1.9-15.7-5.6c-3.8-3.7-5.6-9.5-5.6-17.3v-67.8H2320c-0.7,0-1.3-0.2-1.8-0.6
		c-0.5-0.4-0.7-1-0.7-1.7v-3.7l17-1.2l2.4-35.5c0.1-0.6,0.4-1.1,0.8-1.6c0.4-0.5,1-0.7,1.7-0.7h4.5V661h31.3v7.1h-31.3v67.3
		c0,2.7,0.3,5.1,1,7c0.7,2,1.7,3.6,2.9,4.8c1.2,1.3,2.7,2.2,4.3,2.8c1.7,0.6,3.5,0.9,5.4,0.9c2.4,0,4.5-0.3,6.2-1s3.2-1.5,4.5-2.3
		s2.3-1.6,3.1-2.3s1.4-1,1.9-1s1.1,0.3,1.6,1l2.6,4.2c-2.5,2.8-5.7,5-9.6,6.7S2359.8,758.8,2355.6,758.8z"/>
	<path class="st1" d="M2435.8,656.4c7.1,0,13.5,1.2,19.1,3.6c5.6,2.4,10.4,5.9,14.2,10.3c3.9,4.5,6.8,9.8,8.8,16.1s3,13.3,3,21.1
		s-1,14.8-3,21s-5,11.6-8.8,16.1c-3.9,4.5-8.6,7.9-14.2,10.3c-5.6,2.4-12,3.6-19.1,3.6s-13.5-1.2-19.1-3.6
		c-5.6-2.4-10.4-5.8-14.3-10.3c-3.9-4.5-6.8-9.8-8.9-16.1c-2-6.2-3-13.3-3-21s1-14.8,3-21.1s5-11.7,8.9-16.1
		c3.9-4.5,8.6-7.9,14.3-10.3C2422.3,657.6,2428.6,656.4,2435.8,656.4z M2435.8,751c5.9,0,11.1-1,15.5-3s8.1-4.9,11.1-8.7
		s5.2-8.4,6.6-13.7c1.5-5.4,2.2-11.4,2.2-18s-0.7-12.6-2.2-18s-3.7-10-6.6-13.8c-3-3.8-6.7-6.8-11.1-8.8c-4.4-2.1-9.6-3.1-15.5-3.1
		s-11.1,1-15.5,3.1s-8.1,5-11.1,8.8s-5.2,8.4-6.7,13.8c-1.5,5.4-2.2,11.4-2.2,18s0.7,12.7,2.2,18c1.5,5.4,3.7,9.9,6.7,13.7
		s6.6,6.7,11.1,8.7C2424.7,750,2429.8,751,2435.8,751z"/>
	<path class="st1" d="M2516.8,681.9c1.5-4.1,3.3-7.7,5.2-10.8c2-3.2,4.2-5.8,6.8-8s5.4-3.9,8.6-5c3.2-1.2,6.7-1.7,10.5-1.7
		c2.1,0,4.1,0.2,6.1,0.5c2,0.4,3.8,1,5.3,1.9l-0.8,6.6c-0.3,1.1-1,1.6-1.9,1.6c-0.8,0-2-0.2-3.6-0.7s-3.8-0.7-6.4-0.7
		c-3.9,0-7.3,0.6-10.2,1.7c-3,1.2-5.6,2.9-8,5.2s-4.4,5.2-6.2,8.6c-1.8,3.4-3.4,7.4-4.8,11.8v64.2h-9.6V658h5.1
		c1.1,0,1.9,0.2,2.4,0.7s0.8,1.3,0.9,2.4L2516.8,681.9z"/>
	<path class="st1" d="M2631.7,670.2c-0.5,0.9-1.3,1.4-2.3,1.4c-0.7,0-1.7-0.4-2.8-1.2s-2.6-1.8-4.5-2.8s-4.2-2-7-2.8
		s-6.2-1.2-10.2-1.2c-3.6,0-6.9,0.5-9.8,1.5c-3,1-5.5,2.4-7.6,4.1c-2.1,1.7-3.7,3.7-4.8,6s-1.7,4.7-1.7,7.2c0,3.1,0.8,5.7,2.4,7.8
		c1.6,2.1,3.7,3.8,6.2,5.3c2.6,1.5,5.5,2.7,8.8,3.8s6.7,2.1,10.1,3.2c3.4,1.1,6.8,2.2,10.1,3.5s6.3,2.9,8.8,4.8
		c2.6,1.9,4.6,4.3,6.2,7.1c1.6,2.8,2.4,6.2,2.4,10.2c0,4.3-0.8,8.3-2.3,12.1c-1.5,3.7-3.8,6.9-6.7,9.7c-3,2.7-6.6,4.9-10.9,6.5
		s-9.3,2.4-14.9,2.4c-7,0-13-1.1-18.1-3.3s-9.6-5.1-13.6-8.7l2.2-3.4c0.3-0.5,0.7-0.9,1.1-1.2c0.4-0.3,1-0.4,1.7-0.4
		c0.9,0,1.9,0.5,3.1,1.6c1.2,1.1,2.9,2.2,4.9,3.4c2.1,1.2,4.6,2.4,7.6,3.4c3,1.1,6.8,1.6,11.2,1.6c4.2,0,7.9-0.6,11.1-1.7
		c3.2-1.2,5.9-2.7,8-4.7s3.7-4.3,4.8-7s1.6-5.5,1.6-8.5c0-3.3-0.8-6.1-2.4-8.3s-3.7-4.1-6.3-5.6s-5.5-2.8-8.8-3.9
		c-3.3-1.1-6.7-2.1-10.1-3.2c-3.5-1.1-6.8-2.2-10.1-3.5s-6.2-2.9-8.8-4.8c-2.6-1.9-4.7-4.3-6.3-7c-1.6-2.8-2.4-6.2-2.4-10.3
		c0-3.5,0.8-6.9,2.3-10.2s3.7-6.1,6.5-8.6s6.3-4.4,10.3-5.9c4.1-1.5,8.6-2.2,13.7-2.2c6,0,11.4,0.9,16.1,2.6c4.7,1.7,9,4.4,12.8,8
		L2631.7,670.2z"/>
</g>
<g class="st0">
	<path class="st3" d="M2394.6,553.8v-83.5h34.5c6.5,0,12,0.5,16.5,1.6c4.6,1.1,8.3,2.6,11.1,4.5c2.9,1.9,5,4.3,6.3,7.1
		c1.3,2.8,2,5.9,2,9.3c0,1.9-0.3,3.7-0.9,5.4c-0.6,1.7-1.5,3.4-2.8,4.9c-1.3,1.5-2.9,2.9-5,4.2c-2,1.2-4.4,2.3-7.3,3.2
		c6.2,1.3,10.8,3.5,13.7,6.5c3,3,4.4,6.8,4.4,11.5c0,3.6-0.8,6.9-2.3,9.9c-1.5,3.1-3.8,5.7-6.8,8c-3,2.3-6.7,4-11,5.3
		c-4.4,1.3-9.4,1.9-15,1.9H2394.6z M2416.4,505.4h11.3c2.4,0,4.6-0.2,6.5-0.5c1.9-0.3,3.6-0.8,4.9-1.6c1.4-0.8,2.4-1.8,3.1-3.2
		c0.7-1.3,1.1-3,1.1-5c0-2-0.3-3.6-0.8-5c-0.6-1.3-1.4-2.4-2.6-3.2c-1.2-0.8-2.6-1.4-4.4-1.7s-3.9-0.5-6.3-0.5h-12.8V505.4z
		 M2416.4,518.4v20.8h15.3c2.9,0,5.2-0.3,7.1-1c1.8-0.6,3.3-1.5,4.3-2.5c1-1,1.7-2.2,2.1-3.5c0.4-1.3,0.6-2.6,0.6-4
		c0-1.5-0.2-2.9-0.7-4.1c-0.5-1.2-1.2-2.3-2.3-3.1c-1.1-0.8-2.5-1.5-4.3-1.9c-1.8-0.5-4.1-0.7-6.8-0.7H2416.4z"/>
	<path class="st3" d="M2546.1,470.3v14.9h-38.5v19.5h29.5V519h-29.5v19.9h38.5v14.9h-60.4v-83.5H2546.1z"/>
	<path class="st3" d="M2634.3,470.3v15.4h-26.4v68.1h-21.8v-68.1h-26.4v-15.4H2634.3z"/>
	<path class="st3" d="M2728,553.8h-16.9c-1.9,0-3.4-0.4-4.7-1.2c-1.2-0.8-2.1-1.8-2.5-3l-5.5-14.6h-35.7l-5.5,14.6
		c-0.4,1.1-1.3,2-2.5,2.9c-1.2,0.9-2.8,1.3-4.6,1.3h-17l36.3-83.5h22.3L2728,553.8z M2667.7,521.9h25.6l-8.6-22.9
		c-0.6-1.5-1.2-3.2-2-5.1c-0.8-2-1.5-4.1-2.2-6.4c-0.7,2.3-1.4,4.5-2.1,6.5c-0.7,2-1.4,3.7-2.1,5.2L2667.7,521.9z"/>
</g>
</svg>
